<mxfile host="app.diagrams.net" modified="2024-05-27T11:24:50.980Z" agent="Mozilla/5.0 (Windows NT 10.0; Win64; x64) AppleWebKit/537.36 (KHTML, like Gecko) Chrome/121.0.0.0 Safari/537.36" etag="yiNFvrRizptsMt0iQa5l" version="24.4.8" type="device">
  <diagram name="PÃ¡gina-1" id="HdGTkWyh92yAQT41dvv-">
    <mxGraphModel dx="1434" dy="782" grid="1" gridSize="10" guides="1" tooltips="1" connect="1" arrows="1" fold="1" page="1" pageScale="1" pageWidth="827" pageHeight="1169" math="0" shadow="0">
      <root>
        <mxCell id="0" />
        <mxCell id="1" parent="0" />
        <mxCell id="L7dsEmiv85f3Rtklv7uQ-47" value="" style="whiteSpace=wrap;html=1;aspect=fixed;fillColor=#f8cecc;gradientColor=#ea6b66;strokeColor=#b85450;" vertex="1" parent="1">
          <mxGeometry x="210" y="135" width="450" height="450" as="geometry" />
        </mxCell>
        <mxCell id="L7dsEmiv85f3Rtklv7uQ-48" value="" style="rounded=1;whiteSpace=wrap;html=1;" vertex="1" parent="1">
          <mxGeometry x="307" y="280" width="246" height="20" as="geometry" />
        </mxCell>
        <mxCell id="L7dsEmiv85f3Rtklv7uQ-49" value="" style="rounded=1;whiteSpace=wrap;html=1;" vertex="1" parent="1">
          <mxGeometry x="307" y="340" width="246" height="20" as="geometry" />
        </mxCell>
        <mxCell id="L7dsEmiv85f3Rtklv7uQ-50" value="&lt;span style=&quot;font-size: 36px;&quot;&gt;LOGIN&lt;/span&gt;" style="text;strokeColor=none;fillColor=none;html=1;fontSize=24;fontStyle=1;verticalAlign=middle;align=center;" vertex="1" parent="1">
          <mxGeometry x="380" y="140" width="100" height="40" as="geometry" />
        </mxCell>
        <mxCell id="L7dsEmiv85f3Rtklv7uQ-52" value="&lt;font size=&quot;3&quot;&gt;Email ou CPF&lt;/font&gt;" style="text;strokeColor=none;fillColor=none;html=1;fontSize=24;fontStyle=1;verticalAlign=middle;align=center;" vertex="1" parent="1">
          <mxGeometry x="307" y="250" width="100" height="40" as="geometry" />
        </mxCell>
        <mxCell id="L7dsEmiv85f3Rtklv7uQ-53" value="&lt;font style=&quot;font-size: 18px;&quot;&gt;Senha&lt;/font&gt;" style="text;strokeColor=none;fillColor=none;html=1;fontSize=24;fontStyle=1;verticalAlign=middle;align=center;" vertex="1" parent="1">
          <mxGeometry x="290" y="310" width="100" height="40" as="geometry" />
        </mxCell>
        <mxCell id="L7dsEmiv85f3Rtklv7uQ-54" value="" style="shape=image;html=1;verticalLabelPosition=bottom;verticalAlign=top;imageAspect=1;aspect=fixed;image=data:image/png,iVBORw0KGgoAAAANSUhEUgAAAjAAAAFyCAYAAADrieCVAAAAAXNSR0IArs4c6QAAIABJREFUeF7svQV4lFfa//8dt7gQTyC4u7u7trgWt1BosUKBAVrcCqVokSKFhEJxhxR3d0ggSNyTyfjM/7oPy/7f3/XuvtvuAkvgfvbKNcnMM+c553NO2+/eKgFfTIAJMAEmwASYABPIZwQk+Wy+PF0mwASYABNgAkyACYAFDB8CJsAEmAATYAJMIN8RYAGT77aMJ8wEmAATYAJMgAmwgOEzwASYABNgAkyACeQ7Aixg8t2W8YSZABNgAkyACTABFjB8BpgAE2ACTIAJMIF8R4AFTL7bMp4wE2ACTIAJMAEmwAKGzwATYAJMgAkwASaQ7wiwgMl3W8YTZgJMgAkwASbABFjA8BlgAkyACTABJsAE8h0BFjD5bst4wkyACTABJsAEmAALGD4DTIAJMAEmwASYQL4jwAIm320ZT5gJMAEmwASYABNgAcNngAkwASbABJgAE8h3BFjA5Lst4wkzASbABJgAE2ACLGD4DDABJsAEmAATYAL5jgALmHy3ZTxhJsAEmAATYAJMgAUMnwEmwASYABNgAkwg3xFgAZPvtownzASYABNgAkyACbCA4TPABJgAE2ACTIAJ5DsCLGDy3ZbxhJkAE2ACTIAJMAEWMHwGmAATYAJMgAkwgXxHgAVMvtsynjATYAJMgAkwASbAAobPABNgAkyACTABJpDvCLCAyXdbxhNmAkyACTABJsAEWMDwGWACTIAJMAEmwATyHQEWMPluy3jCTIAJMAEmwASYAAsYPgNMgAkwASbABJhAviPAAibfbRlPmAkwASbABJgAE2ABw2eACTABJsAEmAATyHcEWMDkuy3jCTMBJsAEmAATYAIsYPgMMAEmwASYABNgAvmOAAuYfLdlPGEmwASYABNgAkyABQyfASbABJgAE2ACTCDfEWABk++2jCfMBJgAE2ACTIAJsIDhM8AEmAATYAJMgAnkOwIsYPLdlvGEmQATYAJMgAkwARYwfAaYABNgAkyACTCBfEeABUy+2zKeMBNgAkyACTABJsAChs8AE2ACTIAJMAEmkO8IsIDJd1vGE2YCTIAJMAEmwARYwPAZYAJMgAkwASbABPIdARYw+W7LeMJMgAkwASbABJgACxg+A0yACTABJsAEmEC+I8ACJt9tGU+YCTABJsAEmAATYAHDZ4AJMAEmwASYABPIdwRYwOS7LeMJMwEmwASYABNgAixg+AwwASbABJgAE2AC+Y4AC5h8t2U8YSbABJgAE2ACTIAFDJ8BJsAEmAATYAJMIN8RYAGT77aMJ8wEmAATYAJMgAmwgOEzwASYABNgAkyACeQ7Aixg8t2W8YSZABNgAkyACTABFjB8BpgAE2ACTIAJMIF8R4AFTL7bMp4wE2ACTIAJMAEmwAKGzwATYAJ/isCVwYMVVVavtv6pm/kmJsAEmMA7JsAC5h0D5uGZwMdA4OrcxSUr9ey2DQpJqsTPv/HHsCZeAxNgAvmbAAuY/L1/PHsm8NYJOE/edYEmb+DKlct/dxgMqRKFj0Ln51q0dvP6Ewo3qFsONkde9IIttRvqR+S+9YfzgEyACTCBP0mABcyfBMW3MYFPhUDCukhf/zb19kOr03zbs9+kLEPWs2SjMWTNtk3fPU9N9L164fKDvl17y6JmbmjdZfFXxk+FC6+TCTCBD4sAC5gPaz94NkzggyCQc+/2ZJeCBccBiryf5s97UKFmteAq9WoXscklzuqVq2TdPnU+AYnph1Es/GuJROL8ICbNk2ACTOCTIsAC5pPabl4sE/jnBJx6vTQaLl7xcpOucrPGEwqXK9Pbara6aFzckZObDYVaBSgVuH7lsmG+/vunO3/ZKr3yy5a2VccMj2WuTIAJMIH3TYAFzPsmzs9jAh8QgZvz5+s8y5Us5C53a+IWFFQ/JTU11bdYeBC8XKtYpFJfi8GMlKRk+BcoALvdDpVGA5nEifYt2pq2rlkd56pWZ/y+aUP3DhMnxpEl5u7y5S4apVIn02otYT17ZnxAS+WpMAEm8JERYAHzkW0oL4cJ/FkC12bN8q0YMWI31IpQ5Fkl5w8eNv24Zk3aghXLS2n9fXWPnz6Dv7cf3N3cQE4iF60OT2NjUSi8IA7u2YvDBw+Ylvy4LOPB5QtHN65dt7R16+a+FcqUb+/i5RkOB9KQm3XNkp5yIN4YE1uo4RemPzsvvo8JMAEm8GcIsID5M5T4HibwERJw3nuwAgVD29ktlkCZVIrLF68g12RGxWpVINOoIJUpkJ2VheiTp1C2bFkUKRqOpKQkqFQqYZFZvHgJvhwxHFabNW/O7FkZ02bO1MBiUsfGxFoD/ArINFqNCTKlDE7ny5zbd3+9evbyrw3HDHv2j1DeXbTIK9Xp1OUa06USq9zupdXC1cUls/QIznT6CI8eL4kJvBUCLGDeCkYehAnkHwKRnSNlitKPKncYP/ZX2G3hJqsVancPpCcnIyk5FTKlAl5eXnga9wy5OXkoUqQIbt+9A09PT9SoUQUpKWlwdXWFw+GAxCmFwWDAy1fP4eXtjYTEV8jKykJQgD+Sk5JQtGA4QsLCLHA4k2A0Z9yPPvv1q6S4RyYgVWO1alxVbm5B4UEt3Hy8argG+AXA6ZTC3cUDDtjwNO7m85t3lsY+evSwoV5vyz+EeaZMgAm8DwIsYN4HZX4GE/iACBxb+GOxxkMGHoNS5mLJy/OMjY3Fr5HbsXHjRqz5eR2atmiB9LQM3Lx9C1WqVoWLixZWqx0PHz5EcnKysMa4uGqhUakhcUpgzzMjNSMdySkpKF6qOJQqFbJzsiGVAmq5Ak6HDTnpmbhz7carqhUq5mp8C0hgtQJKpRpSiRwWo+rO3TupZapW8oPdpoVMmgu7zQqHRAOTNS3r3IX57pcurZLo9Y4PCCNPhQkwgf8yARYw/+UN4MczgfdNwJmcewruusDVq5ZnyqWSCvfv35d5e3ujXccOKFy0GBISErAtcgeOHDuK7ZGRwtqSlpYGNzc3IWYSEpLg4+sFh8UGm8Es4mN0bq5ISEpEXNxTuHi4i+/YHHZYrWb4eHtDrVBCJgV2Re6wyiRSQ9fevRWw25WQSyRGk8mgcXVRA8iDwym3GHJjb1y4eCvI3S00KKxwkb2LFze/ptHc17OAed9HhZ/HBD5oAixgPujt4ckxgbdL4Ob8X3Tl2jT4afTE8T/NWfnj5m+mTMqTKCSldVpXmVQhh19AoHAZNWvZEpAAcc9f4s6dO8jITEN2djaGDR0Gs8UsJuW02qGRq5GbmQUn/ZtEJoVWq8bDmCdQKBTQuboId9LjmCeAw4lmzZrAarUiNSUFPj4+UCqVUEhlkMoVdpgteVaz6cHeHbvmWdJTzqW8fGl1oSEdDocm2eTsEvVz+tslwaMxASaQ3wmwgMnvO8jzZwJ/kUCkXq80Jmb5Hr53R3s79uHAMpUrDK5Vu67HsJEjhKsoOzcHGVlZ8PT2QmJiMp6/eIG69WrDzdUNySnJuHjxIooVK4YSxYrDlGMU6dUSiQRmsxmePp7ibxI0OTk5kAhRo8Xz589x78EDqJVKNGrSCGajGXarBW5aHWB3OmLu3T27NzKyn4tUahg0a1bSX1wS384EmMAnSIAFzCe46bxkJkAE9B07FjgVE9PYv0j4nC1RUaF5OdnQal3hcDpw9PhJ+AX4o2DBgsKSkpqaivv37yM1NRmlS5dGUFAQ5HI5LDaHCOalS61Ww5CTIywrUqlUWGHIvZSeni7uf/EyHosXLcKEb8ZDLlVAoZDBlJuFAv7+mKvX737xOHZ2sIdHktrhMGc9epSij47mwF0+qkyACfxTAixg+HAwgU+UwILu/Uoow4N6Rnw7adzUqVNVC5csRljBcNy7fx+QyJBnMgqXz/2HD0RMi7u7Ozw93YVQMRqNMFrMsDoBtVYj/lYrVYDdAafdAZlEIsSL0+kU9WNevUqAv7+/EDYOOGHKM+L582dQqaUILxgKhUptS3ry5I4kz5Jz//r1vVeOHFuvlEoto7Zsyf5Et4eXzQSYwL8gwAKGjwgT+AQJLO/dteSLXGOl2T+vWzB+2jT/Fq1bwcPDAyNGjkLz5s3RrUcvpKSlws/PT8TE5BhyhXBxOu3Izc0VwoZaC1glEuQZjVAqFELAyCVS2ExmWM0WaNUaSCQyOG12YaWh+jH0mpaZAY1SBb9APzikNqRnpIkYGR9vT1I8gDEvEzK5YdXM2cNUCs3RL/R6LoL3CZ5RXjIT+FcEWMD8K0L8ORP4yAisHT6gSK2WLb8u2bRF241r1/k1aN5MHhAQAOrIqNK6YNmypcISU7duXWzduhXXr1/HpG8nIyQkBImJ8cIaY7FYoHHRIcuQJ1xMRkMeTIY8kVqtVaqEmKEYGNghhAtZXvLy8oTbSUv3G41wShyw2MxQaVWQOCRwOGzIzsrEk8cPER4UlFCoaFHcO31+9ZXzl5f1mTQpXQIxRb6YABNgAoIACxg+CEzgEyFweP58XXpuZsmW3bt/716kSFWbxeL5+eedMX3GDCxe/AMiIiJQsWJlSBUK7N6zW2Qfff31ONy7dw8zZuixZcsW6HQ6ZGRkCNcQ/UjlMpGdRFlFly9egoebu6gTk5SQIIJ3yVJDlp0sio1Rq2Cz2UTAL6QSWC12eHl6CquMxWyDQimDSqGAwZALnYsWsffvJYWHhFmhUqZv+H7WWFle3hNJts1UqHCAJN5oTO2i11s+ka3jZTIBJvAPCLCA4WPBBD4BAheWLg2Gl3uN6l07L4bN4e9QquQxT5/BRaNGl886oXjxkmjfqSMqVawiXEX7DuwXQbgvXrxC5cqVYTQaUK1aNVELhtxDlGlEnwvxYXn9N4kWEisUK0PChYSKCOw1GoXQIQEjrDBKpUiv9vX1Q+KrRNy+eVvEzZClRq1R4e6t2+JZlSqWh1qnJbuLGVZrLoAUGIy5MFuyYs9fWH/n+q1j7WdN5oylT+D88hKZwD8iwAKGzwUT+IgJnP1uQZjTxTWkTP0aX7qXLtnIZrV62SCBQvHarWOzWZCckojLly8L60pgQDBKli4lPjMazUKgUBZRSHAQcnMMr4WJwwmNVgWTySSsMCRSqNAduZao0B1lLFFhO3IhkctIrlCIMSgtW3xfLoNMJoPV5oDdChw+cAjVq1YTXa8fPXiAzPTXTaxT0lJQp04dVK1aFQHB/iY4HDI4Jem5yUlmlwIF3GE2X42aMa1nl/nzEz/iLeSlMQEm8E8IsIDho8EEPjICkZGRsmIv0/zTrZYSdVo1G6gID28Gid0rz2qBVKmC2WyF3CmDzk1L5ehgthiFtYRaAOTlmUQaNAkPcZ9cLkRKUkKisK7kZmWLnkh5xlwhQuh71AuJxAsJGjvscHF5XcBOrdEIlxH9KFRKcS/dQ1acnDyDsOBAogAcEnh7uMKYaxYBvzpXLbIyskVhvDNnz1KZGIQXLYLDhw/GnPnjdOzXX31ZMywkVBvi422A0Xhp1/z5EcW12pjS7FL6yE4yL4cJ/N8EWMDwCWECHwmB4wsWhGXJZIF+wYUqlqpQprlHcGgtOB0+UMhgtJqFoHDCCZvJBqVchbMnTkDlpkGVGtVhtzuFIMnIyIKrmxvkMipMZwWcUmGNMZtMQoDoNGrkZmeLe01mM5QaJSw2qxAjFBuTkZGGsLCw1y4mlVIIFvo+nHZoNBrhQiIrDAX7kjChNGxyHT24e0/Ez5QsXkpYbrJzDQgMCoDNCaRlpIvieQcO7EsoW7KUa+kSxV3ysnKgdNguN23dsiBSk5Mzb9wa6dm2Y/RHspW8DCbABP4EARYwfwIS38IEPmQCJ/V6dWCZMo2KtW45HxKpO6kJq91RgOJORH0WrRYmc95rAaJUIzs9A64qjShI9zjuGUw2C549e4akpBS8SogX7iA/X3/xOQkRyj6irtNyuVRkGjkdDmGloZQgK2wivoWsLBTM++rVC1H8jsQKffe1JccMuVQGJ+xiHJVKIdKr8/Jyoda5ICE5AXJIQJlQGrVOzFml0cJkscBqt8FosSI1KVlkQBUKCUWQvx+OHTwMq9Fw8ehv2xfVK19BKTdYznZZsODph7xPPDcmwATeLgEWMG+XJ4/GBN4rgcgJE9xrtW77dVDVyoO6dWwn27htu5dcrZK9dhWZhYAg4UKxLGQ1uXXzJtasWYMpkybj2s1r2B4Vif4DBmD//v3w8PASAbskPm7duI0XL16IlgH0U7dOXTjsTkghgcloFGOTZUXtqhGCp0CBAkhMTBQWl8DAwL/HxJCwoYueT4YYgCw6gEymEAKG/rbbrSLwl7pie/t44v6DR8KVRUKoUOGiUKtVyMrKFc98dP8e7DYLGjdujHEjhp9LvHnrBy+F4l4xz9CEkbt+SXuv8PlhTIAJ/FcJsID5r+LnhzOB/4zAlsmTw3pMm3YQNksYVErts9hYuLi7ieq4ZM0g8ZKSkiJ6EVGgLllTqFAdJA4oFEpYrBYcPnwY4eFFhADZuXMnunTpIjKNSFCkpKSJCrqB/gEiPZqCf+Pi4uCmcxFxKXkmg4iJIaFy5coVBAcHi1gZsqK8SaMmS8z/zFoiMUMWHLpofvSTmZmOJ0+eCCvN6VNnkZqaLgRSfHwiPv+sC7p2/QwWMxXEswEOG9Q6HYwpyVnPrl27+9u6dZFam/RgTkZSLLcf+M/OE3+bCeQnAixg8tNu8VyZwP8gEDl8uIuqRIkh7YYP0185f84luGAYNm39Fa3atkGpkqVw/8FDXLp0ScSckGgJCQ4hWwiS0lLw+PFjxMfHY8f2SERtj0RycioePXqEgwcP4u7duxg7dqzISrp165aIbXF39xRuJopPoRiXShUqolKVyqL7NFlGKBMpOjpaVO0lEZOQkCBmSu+/scCQNYjEiwjqVSj+XtyOgn7JrUQVfkkMZWZk4OaN23j+7Jl4TU9LQ7VK1dClc2d4+fmCAnZSX8Sl+YQE+cBiJDOT8erWbZui9+6ZMXbv3lQ+JEyACXwaBFjAfBr7zKv8CAmsHjSo9KBly87M/n6Wx/FT0Zg1dw4CgoMQHBSKzJxsJCcnCzGhVqnx6OEDUZDuzr17IgXa7nDg/r17CA4IhsNmR8WKFUW2EWUTzZ49G23atEG7du2EpWTHjh3Qal3E7yQwnsTEoEb16mjcuCFiYmKEu8jX11f8Xr16deGqoovSqel3ckmJonfS1wHB9DtZXUjIUBVfEjOmPIOw0ljMZhHU6+rqgdSkJKQlpiIsJBR5uQZr7MPHzw05WfdtFnOyOTv7acGCIc3sDpNCI5dKPKVKxa6ft7ca9OtargvzEZ51XhIT+EcEWMDwuWAC+ZBAZOfOmoDGDYfV6dVnXszLV7KQsDBRKC43zwClWovMzEx4eXnih0VLhNWkdatWCC9SCFK5XAiOfQf2IjgoCB3bdcSCeQuxa9cuzJ8/H3Xr1sYvv2wW2UJkeXnw8CG+/vprFCkaDo1ag7jnccjOzYXRYBCuIgrOJZFE7iOypJC1h/6mmBgSK+S6IgHzJgaHRBD9/iYuh5pGurrpYDbmCVcXzYnqxjy6dx+FCxeF0+KAXKMGTFb07dm9X8nCRU/bjWazwZxpsaelmRzuMg1yAT8XFxgKF07V6/WvW2PzxQSYwEdPgAXMR7/FvMCPkcCqzp3d3SuWmdl19LiIS9dvoFrNmtj66zYEBgXhyJEjaN++o7CqyKQQLp64p8+w9MdlyDFki+DcJs2boFChQrh68bqwptSsWRNFixbFiRMnhNuHxAu5n3bu2oUzZ85ArpCKAN1Zc+YIcUTChFxQ1y5dxrVr14TLyNvbG7t378Z3330nBBC5nLy8vEQsDFlXSNCQRYYq99KraO7olLxOyTYaoFTKodVohOXm2LFjePDgAQb1HyTib2RSGZYunL/89oXrCwsEeJrMOTlWi80msSPFWCAFJo59+RhPOa+JCfzfBFjA8AlhAvmQQKRer0w2Za8zyDQd23burt3663bhQurbty9+WLpUWDhcXNTYtH6zsI4ULVoYJUqUQLmK5YSg0LpQp2gJvug/GM2aNRPvkQWG3lu0aJEQFWQRoYDdGTNmiGq9wnIik4meSPPmzUOvXr3weYeOQsyQa+n27dtC1FD1XArIJRdRqVKl/p5WTdYZGuONNYZiYigbiS6NSvm6T5LUCZlcLlKyZQo5UtIyRHXe8IKFEBIc6FA6HbFLFszbdPrEiRNWYy78dDqpTqp9luDp+SoqKsqeD7eSp8wEmMC/SYAFzL8Jjr/GBP6bBBZ+0S0ktFylHyvUadRuxbpfcPPObYyMiECjps0QG/sEev0MtG3bGrlZufD38xVBu6dORQsXD7mSyI1UrWYNdOz0OUqULImYJ7EoUiQce/fuF0KHspUuXLiAxYsXY8+ePZDJJHD39MD69ethdzqF+4gynsg6QoG7ZKUhVxEF/lI2k6i2m5Mj4lvq1asnarxQxV6yxJCFR1hdTCYhYOgeufS1JSYm9jFiaNzgIJQqUxYGi1l8npOZgUP79sJDpzFVKVcuKyg40M2WlhZ34UR0YnxMzIMnt6/PmLzz8OvIYb6YABP4JAiwgPkktpkX+bERWNqzU3C5Zm1/Tsw1NTt5/iKatmqB5i1b4Of1G/HVV6Nx9/4DBAX4Y8a0GcjMSMO0adNw+8Z1EeuSmpkqLC3ePj6iSFxmVhb69xsAq82MWzfvoH79+iKGhTpMk7uIhAgFBKekpSIoKEgUrtu+fbuo99KvT18cPXpU3EsChH5IqJBQIqFCFpxGjRoJdxaNQ899404iiwsJGBI+yr91tY5PeIm09HQULV4CKRnpiE9KFGKrfp3aCPTxRsKLp7hy+kzyg9s37tWpWk1Ts1WrwrA7Lb/PmVuv43fzYz62feb1MAEm8M8JsIDh08EE8iGBaS1bugWWKDEoqFTZr3Ls9sDYF3EYOGgQ5i1eiHYdO2Dfvn1YsGARtvyyEd179kK3jp1w/twZcu/YY2NjJC9evJDIlQqoVGr7s+cv5XVq1UDt2rWF1YWsKCWKl8Lq1atRsUpl1K/fEAlJiRj91VfC/TN/4QIcO3Fc3OuqcxHBuyRKqIYMxbeQO4pSokngnD9/HmXKlBGF5yj7iNxG9Bm90nPkChWyMjOhUsiFC4kCeum+rOxcJKenIceQK6xBj+/fSzHlZD2sXbFCmCk7yxR94OBlY07mBTmV9DUZDidffRg76uBBcz7cSp4yE2AC/yYBFjD/Jjj+GhP4bxMYVr16uadZWQMmfPddR4VaHRJWJBzBRYtCq1LC4XSKYF1ff39bxVKlX2WmpVnat2n9IjYmVpWXZ5BotVoDnE6LzWJVNm/eTOrl7eMaFBCgTUxKUc2cOdOkVKtT+/bv75KQmOhx78HDAq3btHEPCy+E9Zs2o3vPHujdtw9q1KiBo4ePCJcRpVHv3btX1JApXry4sL6QUKEeRtRNunfv3iIw+I0LidjZHHZAKgfsDni4u8KUZ0RifLwQNx5eXiLoNz0zC8FBgdiwZvXFE3v2DKwaHp5kslg8pDk5FpXaYXWaZbmjtmzJ/m/vBT+fCTCB90+ABcz7Z85PZAJvhUDnzp1l4QZz7Sbt23x9+97dkPBSxf38Q0JlGlcXVYEA/6z79+/HjBgyZE7v3n2aXTx76tyrF0nPXFUqh1JhN9ilMofSJrPLpVKFTqtV2SSSvJDQ0PDQkJByd+/du/3sZVKqUiWVKV1c3Fu0ajW8Ss3aVYeNHBG0c+9embdfAWi0GhQKD0d2ZpYQJxQrs2TJkr+7kah6L10kaCjAd+DAgUKYUHYSuZFe92jSwAEpXFx0yE5Ph5enF3IzMkXwcKFiRWE1mZCbZ0J6ajK8dG4xa5cu/cJXp7rcT683S6iNNl9MgAl80gRYwHzS28+Lz+8E9A0auMhcXAK8/P1regb41dV6eboqNJrcU2fPRuXmJl1Jz7BLVIDN4OubFxUVZflX69V37qxESopUHx1tonv7t2vnWsDLr4SLt9fn92Med1u/dUvogSOH8VnXbqhUqRIuXziHxIREIVyoxxLVgKE06NDQUOFOIqGSnp6Orl27is/ob7LCUJyMm4c75MrXlXxdNWrYzRaRLv3yxQvcun1XBBP7BQZACgdUkDmlSnnaSv3Uqklq9XOu9/KvdpI/ZwIfPwEWMB//HvMKPwEC+gYN5GpfX53DZpNb5HKzPiqKOiW+lWtM5zGaIqW8Kw//9ptIyKQBAYEB8PEPQIdOHbFo3lwkvIpHVlaWyFCipox0URAwCRN6nywuJGCoJgylR5MlhtxD5EJSaXTib6VUAqeV0qhluH/nDs6euwC7FHD38ICriwuaN2wIuUKeaXvx6syvK37s1mfBAsNbWRwPwgSYQL4lwAIm324dT5wJvD8C88aNKzruu1m3Xrx6qQ4tXAgvEpOwcOFCLJk/D1aLFUlJSSIGhqwu5DKizCISK2RxoeDc7t27C1FDLiSqG0MuJhIuFEhM1hsFxcI4HCIehgJ3Na5ukMiliItPxO2b13H5/DlM+nIMtFpNzpmdO3s8vXHjJIuY97f//CQm8CESYAHzIe4Kz4kJfEAElkZEqMo3aPBZvQ7t1lepWlWZlJ6B/fsPokqVKijg44Xnz+KEKCELTLFixUS6NLmLyPpCQobEDfVWehMXc+PGDVH1l6ww1P5AKVfAaMiDTquF2WTC6bNn4ebhCZlKiRJlSwu3ktRhx6ofl6Fd46aWsCJF8haOGlV07OrV3LjxAzonPBUm8L4JsIB538T5eUwgnxGYP3ZsgbFzZlyJe/UqpHDJEogYPhqZCanYtGUTWrZqiT379oq0bWoWSZ2q6aKmkGR58fPzE+9TMTsqeEcWGqobQ7VmyLVEReqoP5LNYhUWGbqohcCBQ4fxLC4OIQXD4O7uioKhoWjWpCmO7t+PhrVrp8t1uhc/T5/efuD338flM5w8XSbABN4SARYwbwkkD8MEPkYCJ/V6tXu18uMqNm86sXrD+tpLF65i6OARSIh5juMFFW1xAAAgAElEQVRHjuJw9DFUrFwJc+bMEb2VqB8S9Th604magnmprUDdunVFPRcK6KXUahI0VC+Gar7QRU0hSdBQ4Tx6nywz2dm5kCtlYiwSSGajCV06dYRaqYK3j3f6teiT+68cPxkxZO7crI+RPa+JCTCB/5sACxg+IUyACfxTAvrOnb2mbVp7xeiwFvIPK4TWLVvDbnLg8tmLkDqBh8+e4PDRI6LmTHh4uIh5IVFCBe9IiJAooVgYKmRHlpaXL1+KNGlqHknWGHIxicsJ4T6iDCUSPEazRbQrKFKsMKQSqchMosJ5L589Ra0aNVGpXFkodBqTLf7F/gObI0e0nzw5ibeRCTCBT4sAC5hPa795tUzgTxPYMnGiZ5vevX50LRjYoXTVKtqktHT06t4T169cx8Uz55CZlg2pRoGFixeJQnb3799H8+bNhZWFBAy5j0igPH36VMTAkCChnkxU+K569erCfUSCh4SNTCL9+7zIhbTvwEEhfgKDA9C6dWtR8Tc1OQWPH96HxOaAzWKOr1evngKwGrMfPNqxeN/BcZxa/ae3lm9kAh8FARYwH8U28iKYwNsn8NvM2U06jR62ffCYL71eJCVg7559qF+7Hq5evISJX0+A/ruZ2LFrp2jySIXqqGs1pVGTKCHrCwkYatiYkJCA9u3bi/eoMzZlIlEVXxIwkEhgtpiFgKG/n8U+FX2VlGoNlEo5zpw7K77Trk1bhBcKh8WQi907d+Wu/Gn5qgrFSt5xk0se+anc44etXPLs7RPgEZkAE/iQCbCA+ZB3h+fGBP5LBNYM/NJv4IzJ0XvPnCixZPUKHDxyGEeOHEP3zzojPKwgbl6/hctXr8BgNGLLr1uFOBk3bhyio6NFGwG66D1yLRUsWFBYZsg9dOTIEZGhRP2R3lTjlYD+B5G9lBifIGJeKlSq/Dq9WilHRmYGfvpxOVq3bIWK5cqiQ+s2xiePH60uFVZ4e4iHy0s3T88U/YYNovAeX0yACXw6BFjAfDp7zStlAn+KQOSAMV6d9ROjcmymCtVbNvW6ff+++J5KqYDd6sCjh/dRtGgxbNiwHgULFcZnn32G06dPi3RpsraQ5YXcSFTIjtxFTZs2RcmSJUXa9KFDh1C+fHnhcqJgX2GBsVmhlL9u5njtylX8/PPPcHV1Fz2UGjZuIAKDFTI5pk+Zilo1qqNx/QbYtHHDk9+3btusMVlOB6q08QvORz/k9gJ/anv5Jibw0RBgAfPRbCUvhAn85wRWDR6sqNO4ZddSLVr8pHbXuOZYLJAqFGjUsIEQKVMmT8LUqVOxe/duUVl3+fIVqFixonAR3bx5U8S5kAWFGjnS5xSwO2jQIBHPQhYWssB07Njxb9YVJZxwwu50giJgKG7mt6gdokbMH3+cFtlKRnOeEEB9e/aGRqXCrt92QKdSo3XrVshKSkpyd3HN+mPnridHftk6oUThkKd9Nm3iCr3/+THgEZhAviDAAiZfbBNPkgm8HwLrRo+r9MWkifsq1qrtv2TFCkn9xg2w47ed6NmzJzw83BAf/xJWuw3btm0TLqCYx7FCYJD4IIsLWVEo7oUsLFarVcS7dOnSRXx+584dJCcno0mTJmIxNA6975RIkJKUhMDAQDhsdpHFFB+fiAMHDsDV3QVxcXEwG4yoX7cumjRpjOsXLyH6xHFbl66d5UFFCwF2uxEWR+aZZctb1p048eb7IcVPYQJM4L9NgAXMf3sH+PlM4AMhEDlunH+r/gPXXnnyqOyM+QtCj0VHw5BjREABPxjNBpw4eQI169bG5l83C3Hi4uICV62rqKJLYob+pousL5RSTVYXEjDNmjUTr1TLhQrdkWuImjlSjAu1ErA5HHj+7JmwvLzJRjp16owQQQlJ8eLeJ48ew8PFFTlZmWjdvAUKFynssNss2Xa1VKOUyy0wWAwXN21oXmP46FsfCE6eBhNgAu+YAAuYdwyYh2cC+YXA8RUrOpZv3mxtYIniXi9fJcHd3RPDBw7GpQsX0ap1C3w/dxb2HTqAK9euoU692sLSYso1IicrWwgWioGhqruVK1cWAbxkkaFXqrpLgoeK3U2fPv3vxetI1Gh1OiQlJwnLC8XOpCQlv/5cKhP1Y9Iz00S9GIqBoVTqXVGRSc+fPl1csXx5Y2hYcBNXdxebj6ur5VH0uQnZT54kfcHBvPnluPE8mcB/TIAFzH+MkAdgAvmfwNKePd0ilv5w88Ltm241Gzb2sjqcmDdvIaqVrYCpUybj3KULeBYbgx9WLEfHzz4TsSkU02I322DKM4pA2xMnToh+R6VKlYKbm5tw/TRo0EDExTx69EhYYUjcUC8kCuqlpo/pmRnw9PBETna2sOCQGDpz5gyKFCuOgIAAuLjphDDy9faB0+6Av6/PlRpVqowMDg5O0Mpk2Sql0qmxWMychZT/zyCvgAn8VQIsYP4qMb6fCXxkBCI7d5Z5NmjQvkmvnmvqNWvudfrSRXTu0RPr1q5H9cqVcPncBaiUcnw/exaKlSqJoLBQZGZniQwjHw9PIWCoGB1V0CVRQq4fimfZtGkTIiIiULx4cbx69UqkVFPw76+//oqDBw8KlxHFzFABvPJlywmX0549e4QF5sy588LVVKNWdcTHx6NMqdLQqjVISUpIXTJv0dSXr57v3bJz58uPbCt4OUyACfwFAixg/gIsvpUJfIwEFg8fXnK0fsaR5LSU4JCSJVG7YWMcOHYEI0aMQJniJTH6ywgsmDMXpUuXhqe3Nx7FPgHkMtSpU0cUtZM4IWJg3lzUtJHcR4sWLcLevXvF25Qaff78efz000/CMkMuJbLUkJuIvutXwA+zZ83Cxo0bUaBAAZSvWElU7b3/8J4IEg4KCMTgwYMR4OsDqVyRN2XcuM6mlJQrCzZtSn6fe3Jl1SpF7DFPR5eoLvb3+Vx+FhNgAv+bAAsYPhVM4BMmQO0ClEEB4z7vN3D4523buh+MjkZGbh7OXr6IYaNG4vatW1j381oEePvCz9cbycmpeJEQj/5Dh4p06VMnjou4lRIlSogU6UaNGqFw4cL47bffRLE6avB4/fp14UKaNGmSqAVD7QUoMJcsLm9efbx9YMzLE/eSO6p4yRJISUnDnXu3ce3aNREHc/b0GRQpGIYlS5fBaczLmzlpci9nQsIf+qio9He9hecWLdLUbNFoM4JDih1bvrxPE7PjpkSvd7zr5/L4TIAJ/HMCLGD4dDCBT5jApu/0tXpNnLQFeaaCOjc3GMx2ag0NN09PZGRlIPr0H0hLSYUpNwdymQwShwQt27aBq4cHtmz9FempyXDR6kThOgrq7dq1q7CqUM0YaitAlXnJGkPBuxT3Mm/ePOEaql27tshCovgWKSQi/kXEuvj6ws3DHRarXXzulDqFhYZqwDyNicVPS3/Alo0bTMnpmWo47LZlY8e1Tk9MPKePisp9l9v4+4wZ1duPHXMAeQZVyoMn0YdWbe7fZ9PK92r9eZfr47GZQH4kwAImP+4az5kJvAUCkRMnFuk8efJ2u0JeNikpSaHVusDD2xs+3t54Gf9K/FBjRRIWmekZCA0NRfOmzaDSqHHz9i3x2cP7D1CsWDFhcenfv7/IRqJYGGrgSFdMTIxwCen1ehw+fFhYV6pUqSJiX+gnKSFRCJxiJYpi+7ZtOH/hAjb8shFZmdkIL14MzZu3xJdffomQoGBolQpkJiQiNSnROHLo4MuHDh8uBqVCMX/gkJrjt259/BaQ/MMh1kREBHuGFu2ebjK2HjRyWE1kZj3cNPf7Jn1WsoB5V8x5XCbwZwiwgPkzlPgeJvCREYiMjJR1rlhugdM/oIvExS2QxAS5d6jo3KxZs0T/Igq0pf5FL1++FJaRChUqCCsKBeSShYXcQiRUqBgduYpatmwpqu/u379fpFNnZmaKgNyoqCjhAqJXKohH2UtyuVy4kv44GS1iaWx2C1RqNTIyMmB3OnDj1h2cPnsGv/yyGS+fv8DOyCi0atIENy5dwuK5s7d/P21a8UN7dp8dMmVin+SLF379fetvI4esXm1929t0Uq+Xy0JDuxUsU2no8rXrguYsXlgQqSk3fpnyfZO+vyxPe9vP4/GYABP48wRYwPx5VnwnE/hoCJxZsqR47cEDtkOpLmexOyQkXlasWCFEBXWW3rp1q7CMZGVlidRoEi6UNUTBt5GRkSLbiGJT6IeCcRs3bixeKdNo2rRp6N69OypVqiRETMOGDbFr1y7RcoDcQlQbhjpOk3uJUqVp3OPHj6JatWpwdXUVoqhI0eKw2qyQSeSIffgY4aFhmD55Mjb9vPa+RinfEujje7NererulaqWbfTswYPvIn5c+9rk85avzRERwT2nTDr+ww+rNGanxGv85Em6y/v3Hb99aG/HAevW5bzlx/FwTIAJ/AUCLGD+Aiy+lQl8DAScTqfEfOvqKFXB0C+tcnUhhdZV1GahDCESMZTmTMG1ZDUhiwoF6FL9FrroHnIDUQAuWWdIbJD1hoJ3KeaF0qCPHz8uasK8uci9VL16dSF6nj17JoQOWWZWrlyJYcOHIzsnGxPGjRWuKKraS6LGy8sHVrMFDqsDap0GsANXov/AkD59n0jt1iVBvj5XQosG5Tidtswf9xyNf1f7cmju9w2bDxzyS5t2nVyn6b/TVa1ZQ3psy5bJzy/eXz5g3TwWMO8KPI/LBP4EARYwfwIS38IEPiYCp75fHFB3TP/foJCWh1yrtVhsaNWqlajRQg0U7969K6wvZHmhKrohISFC0JAVhYrSvamwS64gcieRyKEU61u3bgkBRKnQJFIoS4neI8sKBemePXtWiCG1Wi0sOZcuXUKDRg2RlJKCG9euIOFVvGj+OOXbqRg6ZKh4ts1sQ6GQUOg0avi4u6GAhwf27og6t2zJok0qpfKaj6dn/JaLF99JPZhdo0d7VGzVYuvVuKeVd+w55L11S6QMKmXahhnft9E9unmtS1SUhc4F1dHxLV1a0VCvN31M54TXwgQ+dAIsYD70HeL5MYG3TOC3adNqdBo/ZptVqQiDU4Z69Rr8vV4L1W0hkULihJoukoihiywrb1xKFA+jUCiEe4lECrmXyGqyfft2Ec/SokULUXyO6r60bdtWxNZQ/Mubqrzkpjp58iRq1aoFpUqF5LRUFPD2wvO4OHFvakoKnsQ8RV6uAZmZ2di14zfkGXLgptWgXIkSmD5lcoZrYIC9T8vmm4y5aftL+4Q9nH7w4FsXMQemTQtuOW7M6cjIyECbQ6bs0bc/YDDdWTttZpNBP8xKIi4UI2Mxo0izHh3nRe/YObzh9OlvfR5veft5OCbw0RBgAfPRbCUvhAn8awIHIiJUL910nw+aOWOZXSLxbNyoKb6dNFnEqVCxOWq2SG6eHj16iHgUcg+RqCF3EQXYUrAuuYJu374t3iPLClXdpU7T9F2y5JCooUDevn37insoZoZiYqgwHQkdsubQM8itZDSbcOHCBbhoNaJuDFX3pWwnqUwhFmMyWXDs2DGcO38GBUNDkJuZgYkTJ+d9FTE4b+78ed5w2pN2fDd7aOfvF+z+16v/a3f8pp9UqdM3k448evDIOzU9C7Wq1855cvnqgYM7tkaMWrYshUZbNXh0QJ9BvTaow8NKOZ7GHTt//PioOhMmsGvpr6Hmu5nAv0WABcy/hY2/xAT+fQLOyEiZpMt/p5Lr1gkTSldp1+6HwtUrN+7QtTvq1qyF0aO+xNq1a4V7h6wqVKOFehmRlYUsL9TDiDKNqMIuuYuuXLkiPqd06Zo1awoQFPfyzTffCMFCMTQ1atQQmUzUTqBDhw7CskJWHXJHUVYTCRka89ad2yJ25v7dO6hbt66w/nwzeRJ8ff0wctQoZOXkIjk5ESqVCokJr5Dw8gWuXrmIZYuWZJ87cUgZ7uYW88eOXTPbzpi//d/fkf/9zb16vbZNz57rEOL/2ZKly+Tt23VCobBw8/SRo+rpf1556c03Vo2eFNBveN+jypDA0KTLV05dOx7do9X06dlvcy48FhNgAv+YAAsYPhlM4D0QOKlf7JGlNAaGlyocWLZZsyGmJ4/3x5y/fqLMkCHP38Pjsbv/eNdMSXZJn/KlR7T6om+3ERPGK5+9fIWdO3Zgz++7haWFAmubN28uRAoVpSM3z/Pnz4XAoH5GlEFElhYK4KWLrC+UTUSCpl27dkKcHDhwQHxGriMSNSRSyBV19epVIYBIoCQnJwsBRMIoKydbZC7Vq1MbAwYMQK9evdCgYUOcPXceh48exdDhw4T4UcoV0OqUkDocyDNkQadSokWtOjPKhwTv9tdIYyZGHct6mxz3TZzo2Xro4E2zV68q365Ll+BSxYpDIlMkzh46ttyk9a+tL/rOnZVBxUu3a9S2xezw0iXC0h4+OXNi85bWXRYv/v/7KrzNSfFYTIAJ/D8EWMDwgWAC75DAhWlL3TK0xgCln2fnRj26fw4pPJ0mk1OiUdpgtF548uuhiUUH9XpncRNX9HqfuJTMUI2fV62mnTv3lwcHFD9z4aK2XtPmMFvtuH3rhgjcJXcRpUKTeCHLy9GjR4XQIEsJuXSo5gv90N8UgEtih+JjKIiX3EpkPaGU6lWrVglXFAkfKlxHoiQtLQ25ubnCxUR9kOh+uodaDtSqU1tkMknhFA0hqZIvFb5b8/M6IZzIykPiiT6XSQBLbi6UCimglGN0j25TPJyaX6ZHRb11Ebh7/HjX0m1bbzhx9Wr1PgMHBMmccNy6cOnYoe3b+0xeu1bEv8wbPty/+4BBe54mx5ep27CBxvjq5dmdS35s1WvZMrbAvMN/pnhoJvCGAAsYPgtM4B0ROLB0qSqwgHfr8h3afQ+nzdtgNvnu278fXbt3h8VogFKlSUBWXtLFnXv6Vn/16s7b6q3j1Oulx1Wqgi4FChQpWrZUD6+iRWpBpfCCUu1NqclaN3dY8mxwSIBZc74XdVgodoWsIlS2nwrYkUihdGmq2UJuJRIqJD6Cg4OFVYVeKV6FMoooXobiYwYNGiSCdem7lG799ddfi3sp+JcK11FaNn2Hgnj37dsnqNepV1dYZkaMGIYffvhBtBWYO3cuZsyYAYVcjiWLl2LosGF49eRJ3qtnTy/fuHTh97AAP9f6tet0Pr5vz+k7h45Pmnjs7VpfaF6LxozRqD09e/ccMmiii4d7IalUlvODftoAabZhz6hly8xOQLJ55uz6vcZ/dSw1OVHm4+mBR1eunTz3+x+dvliiz3xHR4qHZQJM4H8QYAHDx4EJvCMCZ378sXTtgX0P280mf5mrqywmJlakIgcHBooU4QB/P0AmM8BmN2TefzLo4e3b0TV69fqP/t/76dmzPT0CQxqUad1sCtxcvAGHNxRynclsQa4hD/7+gfh20hTop+gx+ZtJKFi4IAYMGihcRm9iXiiDiAJqyYpCwoOsMxS0S20BqBovWWHIokIupM6dOwt69Dp+/HiUK1cOq1evxsiRI4VgIQFDY9MYNNb9+/dFrM3kyZNFrI1ULhPWnFq1aoh0a2rYSG4paiuwZs0aTJ08FVUrVELjunUjQ3wDJ4aF+RmUTqfMlp0tkRsM9lnHjwtryNu+SKC0rV69yG+HjxxXaBQhEof9zjdjItrOWbnhGT1r2cixhUZOmbgN3p5VUlMSpD4+BbBv3c+bEi9fHTfobxaatz0nHo8JMIH/lwALGD4RTOAdEBDdi9u2jkSQX53rN296pGfmoGBwQRQuURp3r14WNVeGfRkBubsOTokDbkpNGnINB85E7VwYLA1/WOiLhn+5psjhsWN1HiXLNqvWvetiSOxhTrUC2VYTVAodBg0diN+idqBBzbo4sHc/rly4LIJpO3zeEbmG12KERAkF4JLoIBFB1hVyIyUkJODmzZsoX768cPOQGCEhQ00Zyf1DNWAmTJggRAkFA3/22Wci1oXaDZBbioQQjUciiCwwlGZNKda//PILGjduisuXL+KHHxaL+6iNAbUboLHp+VTAjn4aVKv6u4/WZYaHmyYu280tKyoqij55Z9eqwYMV9rCwrkNHj9koUcmkyS+eXl06f27H739a/4IeunXWghJdh3xxxe6i1TmsFqiUGtOuZcsnp997vmHgz4vfeXfsd7ZwHpgJ5CMCLGDy0WbxVPMPgQtLl7rlqBQ/ehYL7x25bz+6d+mNM3+cQdvWbRBWqBByc3OQZcqDq78PMrLSIbXZEOLnnwGrIxs5hs039x9bYTNlJFcZMuRP9ffR6/XSkMzM6v3HT9gEN9fC0OqQlJmB2UsWYumyZfiidx+0bNwYndq0g9ThRFJKmnARyZUyEcBL2UPk+qFCcm/qvJBlhFxDZJEhlxE1dVy/fr34HokV+p3cRm9iYaiIHQmh3r17C3FCQb2UpUTj63Q6/P7776LZI32fxqNqvb9F7USrVi0wbboe58+fFeJJIpOKV3InKRVqZKYkw8PTx/zqzq1T08ZPmhCsQMz0gwf/I0vVvzpJqwYP1rpUqjyvUbMW/fwLBupOHdx/acuaVT1W/34w5vuBA/0+79dvc7Ea1ZvcuHsbFcqVBzINCdt++KHHw2cxF/QbNvxl8fmv5sOfMwEm8L8JsIDhU8EE3gGBXaP1Hg2/aLszz0XX8GlSEgb0G4qGDRtjwthx+H7uHOhnfQcfHy8oJMCNa7cxf94cdGrXln5sUqUsC5BkIjtj94WDR9e6qdUxpbt0EVVf/9m1anC/EjXatF9YrlHTVrt278PwMV8jJTMTZatUxM6dOxHq5wu7xQalVApIpbDYLFAolTAZjcKqQhlG6enposYLXdnZ2X+3ylAwLcXGkEWEOlCTOJk+fbpwFY0aNUq8R9YcsipRHAtZayjriNxK5D4iwUK1X6gSLwXkUnYSvdapVRuXL1zG8xfPYLZa8cWAfmjdtg2+Hj8Or+LjRczNs9g43Llx3eSq0jzff/BACOwOa99mzRp4+/k9WBwV9c6yfZZGRLh5lSrzY/lq1bqVKl1MsePXjVf3794x3Atuj8pUKBU84JvJ0Tt/3+1WrX49hZ+nNxQmx90N3+ibfPHT/MR3cJx4SCbABP4BARYwfCyYwDsgsHvatMDmvbrvufD4SWWJTofRo8fiwP5DePjgATZu3gTPQD90aNceVcuUh1oux4v4eMydOxsZGWkYGTEcNWtUtQBOM+yOZDicj5Ou3RrvV7PmnaurV8v/p1WGKsHef/48NFsh6zth1uzxG7ZFqr+buwBlyldAYkoKzp4/BbsdkDoAufRvC3XYYYUDcoUC9C8AEhkkYMjiQinSlLZMVhOKYaH3hVVEIhEihLKUyFpDdVkosHfFqpVCzCxeuEjEsFBcCwkYci1RHA31N6KLxA0JIOp1RJYXKm43bcpUBAUEIzkpCUaLEa8SXqJbj54ILRSKSZMmiSyk0KBgBPkH2J4/fhxbtWxZl0unTiUXqlDBZ/rgLxrqN0fFAHC+g+2DvvNwl5LNKs7q1KPHELlSpjx+eN+97/UzppYqGvYgYviYhTkOR2hMfELx9l0/l6ohx4sL1y5uX/Fj43GbNhnezCdSr1d20ev/T+H5LubOYzKBT4UAC5hPZad5ne+VwKF58ypVbdZ0XY5SUX7XoUPISM9C9+49sXTxEoQWLgSFRo0tv27FN2PHi/L7BfwLwGyz4NDRI9i2basos9+oXl2ULV7CKZEgGyZrCmRSCXKN+59cuXH65q3rj7IyM5VmyAoVKV2yV9M2rZtm5Ro0PoEB4r/oK5avwoDBgwCpRLiGJE5AqXpd3fbO7dv4csxo0XGaUpbpIoFCQoYCbSlriIQLCZg3WUgkWOg9ssTQ56IQHZxwQoI8Yx6exsTAbDTBz88PIUHBIliX3EX0fEqj3rt/n4iHycs1onz5sujRracI5qXidwqlHNk5uVAoZCJDiSxGWrUGaqUcs2d8ZyxbovjOBYsWVIVCUaC0j/eBqC2b3Qv4eDl/3bbzc8oIehcbSzVeXIsX6dtnyJDvfAICCuzdsydv6rdT93m4uew5efbsD6tX/GTv1qtnAZ27K7KTU/Ag+kLklT2/Dxq1ZYtwba3X6/379e299eLe/R1qjBr1Tt1d72L9PCYTyA8EWMDkh13iOeY7Aqu/+qpY+fp1t1Vp1Kii1EWLnb/tgiHbILJ0DEajqH/y6MljdOr4OTp16oTPunyG0qXLwGS3ICMrE6tXrsD1K1dRs0YN1K5ejTJxnDo3VxPsMAizid1hhlymgESqslnt7iQ8pDIplDI5Jk+Zgm8nTRKuIhIcWp1O8COhMWbMGJHdQ2KErCXR0dFC4ND1JtWZxAqJF7rI6kJ/0zhkmSGhQyIjMzMTWhcdFCoV5HKFqNNCAuZpTKy4nzKaAoICxev6jRtEc8dqVath2LARWLJ4MQw5uRg7diyKl3zd6ZpaGZClRy6lmBwLlHI54uPiUL9WzfgCnp5L3eXyvRXLl63WqHbdFlkpiSdevEzY/eXatcmSd2SBWRoRobK4Kod+PXXaTLNT4pqbmwerzZFboIBP9oIFC6ShgQH+3Xp2R3ZuFlJevLCd+m3viOe3k7fqo37KJW47flxU+rN+/felXL65+fmjB7OrDBmSl+8OMU+YCXzgBFjAfOAbxNPLnwS+69Yt5Juli3ZJfXwqL/5hCYYPG4mbN25g5fKfRHzJl1+NEU0QTxw9gf37DkLjokOrNq3Rtl0bseAnMU+QmZ6BObNmo3rVytBptJDKgCqVq8G3gDdCwwpBqlQgN9sAtVYD/dRpmD13DkKDQ/DTyhVo1KAhZAq5ECVU8ZbK+Ldt3w6XL11C7z59hMgg8fLw/gMhTEg8vLGuUKYQBe8GBQWJPkdvxAxlKZFbhwQPWWHo9xxDrgjQpXs0KjWMhjwhjrQuGiF2rHYbdu/bKwQMWWRexr3Elk2bMX7sOMFh34H9GDhwoIi3IRcUVe3t2rkLCoWFwWk2o2eXzo+f3r27vGhIyCG1zWbwcnNzaOTy3HcdxPvz+PGuviUKrWzdrXuP59pswHkAACAASURBVMkpKBgWDrvdSW4256BBAxKWLlpYwMVVJzeYDDBn5iQf2b6zV/exY4+RoNLr9fJ6hQu3atil40a8SDx7ZNeurs3Hjfu7ayl/nmieNRP48AiwgPnw9oRn9BEQ+KZn51Kz1m/4Iyklxcc/pCDat22LSxcvYvvmrZDJJab4+PiMtLQ0fy83H0mHDp2wYPEi6FxcYHPa8BUVgKOsILMZly9fxoVz50Un50NHDotg2UZNmiAwOAh+Af6iVxGlHQf4+aN5yxZ48ugxmjZvhhXLf/p7DAuV6i8UXghSmUxYe3ZERUGlVuPWrVsoVqSoECOU4kzNFknE0A/FqlDdF0qRpmwiinshYUKWFxJFJHjexMK8sdCQ9YQCgl9nEkE0akzNSEdCYqIQSd9MnIhD+w/g4vkL+H3XLsyZMwcOp1OIqa++Giu+o1Koce/eHWiVKlStWAFjxnxtfHjx4u3xI0cO2nPnzq33dTQ2R0S4lWzdZFNI6TLtNJ5eMBkt8PT2waqVq57euHnj1ZKFC6pqdRoV9WYKCAhO2/njmpafjR5xmea3dozeq1nvdntCShatAqfkBuYtqPW2ihS+r/Xzc5hAfiDAAiY/7BLPMV8RWK/Xq602y5BB306a36N/P8V3c+agcFgRWAw5ufNmzTl3+eKFs1aTyerm4dGpQ8fPyyhVGrWrhzv8AwNE/x8Kdh0xYqRwjjhsdpHRQ0GvNqcD9RrUh9ligaePN6rXrIE+vXri7t27UFN9Fnd3OO12XLp0SWT81KxREzGxMShapIjoL3Tv3j1Rwp9SmCnjqGGDhoh58gQPHz4U1hDqIk3Pocq4lCJNYmXJkiWoVKkSKlasKKwxJGLIEkOig9xLTrtDBP+SBYWECwX/KlRKEW9jJ7eS1SIEUp4xFyOGDYebzgWbNv6CxJevRPCvxs0FHTt1Qu3adYV4MxlMcHHR4uiRIzh7MtqmdiJ20tdj3UZ279lp+fHj59/XQYjUD3cpUbPVyhyZrGf1hg0RE/sMRrM1p0mTJteWLV2Kbp0/r3Pk8EFZs2bNYc3MeXFk+85WbYYNvEPzWzFRX3Do5K+OQoaCMJvTbx84UqJcz54Z72vu/Bwm8KkQYAHzqew0r/O9EVg3fHiIrlih1TJv7xa/HzmMESMjcPvGTbRq1uzBgB592hZwdc1Oy83VFCkU1v1+7LNaQ0eMbHTzzm1dwfBCCAwJxtFjJ0QGz+edOsPFVSeEzOWrV3Hq1Cm46NyQmZ2F0EIF4YAdkyZ+g/T0VOGOongTcuVcv35duI1E1pCHhxAf9N7y5ctFbyKlQgmb3SbSoV8+fyGsOhR8O3z4cJEGTe6m1q1biyaNJEhIUFFRuqZNm4qU6Hr16gl3EH1GNWVIoJCFRVTzVamgVKtgMOZCrlJCJpeLQnhqjRIxDx5h4Bf90bd3L9StUUu0MDh/5RLmLVoIqVQGnwI+Io27T58+aFCvPhwWs1Umk2NMrz6r7Rk5a5YdPnzzfW0iFbJr1O3zVQ9TEtu36NTZKzbuObZsi0yYO3fOy71798rq1qpdYsXyH7XUydtpMD3bu2lb0/YjBj6h+V3Ysbtc1eaNzjtg18pVyrhL239rHxcTc58zkt7X7vFzPhUCLGA+lZ3mdb43AhvHjm3i9PFaoyrgXTA9Lw/evr7o2LYtJo0ZP8qYnh5lM5myVTabPdNud69St677yT+iJw4aObxNYmpKgZKlS2Hztu0IDSkoUpCrVashehRplCoRlxJ94g9hMaEg4O3bf8XDJ4+hVMpFxVwSFxcuXBCumdYtW6Js2bIi0+fGjRtYvXKVEC/k9qHmjfRDBevoOyQ8OnbsKCwoJIBIkFAlXBIs1H2aehqR+KGMISp0d+jQIVHjhSrq2s2W17EuVqsYR6lWi/YAmdkZcPP0gEKuxA1qGHn2DFo2a4alixbndmzdOqtM8RLWvXv3Pi9UophruUoVvcwWm0PjqtbY7Q7L3Pnzs1evXOmWlpxkkTocfj3bd1qiNOZt2nDq4uP3tokADi5f2qlMg3oz/cLDS508cw6r1vycdenS5dRVq1eaG9StG/zdjO8Us76fpYHFkbpizrzqw/XfxK7VL/IaENH/BNx1hSCFGyzWlNPbt7axP315q6FezwXu3ucG8rM+egIsYD76LeYFvk8CkWPGaErUqDE/0WwclGwyKYPDCyHu5Qv06d0ne3ivnu2kJtud5bt2pb2Z0zd9+ngXrF07++yhfbNq1K3Xz8PP16dE6dL4bs5c9O0/QGT81K5RGyq5HHarHYkJCaLk/p7f96Jm7Rp4/jIO9x8+xJ7ff0fpsmUhk0hEcC3FvdDr8aPHRNZRt27dhMXkh8VLEBIWCrvVJmJUqCcTBdiS+CC3EIkR6ig9b948YQ0hKw61EKAS/ySI6O+lS5eKWi/U76hihYow5uYK15JMoUBWTrYYh6xDFrtN/K5RKjAqIgLVK1Z62LJxY9ezx09uvnzuwiFPLy+np6+Xh1KlLKTRaTNVLloPmVzh1bRZ4yYKFxePEuGF5j+IiV0Ckznhy06ff7b0SLRw0byva+PkyUE+RUJX1G3VrnlSVpZy4+YtOH7sZM7ps6dVcc+e2g4cOKAdNmQoZBJZ3rHfds86e+nMmiZ1mwyp3ar5JIvDok5NS0Sgr+/LvWs29HJNTr7IAuZ97Rw/51MhwALmU9lpXud7IbC+n17dtHf9nSaVouX6HZEoVqa0sGz069U744sevSopFYqM1VFRWf9zMvoGDeR1evb0fpqSuO7HdT+36tSjOz7v1RMPnsSITKDU1HQ0qFsPWoUKFy9cQEZaOi6dv4Rp+imYMHkSFixaiIrlK4BcUInxCaK2C1lX1q1bh0ULFmLo0KHicWSZUchkqFGrFn7fuRNVq1dHh04dRRYRiZuNGzeK2BcK0o2IiMDKlStFrExYWJgIFCYxRZYXGodETteuXfHtpMlC9LwpfEfWF3I55eYZoNPqkJWdAa1GBVueCYvnzd+bm5w63V2hiP1mxYp/GBNC6cvp3t72Yh66Ur4+nlVO/XHm9oyli7e//OP0pvM/b/q+S1TUeysMF9m5s0xRt1ZExQYNvpXqdN4zZs9BqVJl0H/gAGd6ZqaE+E7+5hvYTBa4aFxtkMAIJ3QPHt6VFilVQqSDWzIzY88dODzOFhd3qK1ez6nU7+WfQn7Ip0KABcynstO8zvdCYH2/0R66wr7r67Vt3SEmIQFSpQo16teHNT394ddjRndSpaTELThy5H+l1A6uXFkxetq0uYHFinRv0La1f61GDYWIodQcyhwqXbKMsK4M+mIA4HAgLCQUdRs2hEwmRVBIMGrUqCEaJZJVhK5uXbti6pSpmDJliqiYu3/vXlFQrnr16iIepn379iheqpS412K1YPHixdi+fbsQO23atBEBu9u2bRNxN/R8Ei1UHZfiU6g3EsXbUB0Z6q7t7uYOm9UqgnlNltdF8CiFm+JiFDI5EuJfIsDXF2mvXl3dsXFTn8T4+Gf61av/1H/MKSC6IGBrMG2aXSKhcnzv9zq6bFnzorWqLcq1o9Tx06dBHZoo28vNyxPbIrdjVMQoWIxGKBwyKDUq3LlzF+QGTEpLhlIuhc1geHHr1Ck9EpK3cyr1+907ftrHT4AFzMe/x7zC90hgTUREcI0mTX89ff1GncSMTBQuUQx9evXGvt93XTy+f1+3vMePX62+evUfNmic0KSJe6mq1af2GTVizMBRoyR3nz3B6fPn0bdfP2zdsh1169XByGHDcev6DcycPuN1M8Vhw0X9FAq8pUBc+n3BggVo27Ytdu7ahcy0NMydO1fEwlDTRaq+u2XrFmRlZkGj02Hfvn3iP8QUmEvihYJ/qfruo0ePRPNFqghMlpaZM2eKAF8SJ9ROYMSIEejQoYN4LsXmUPo0Vee1Wu1/C/xViSr/VNyOKuqKfgYyWe7P8xe0SH327M7E1av/HyvUe9yiv/SoAzNnFq7cqsVPniFhzW4+vI+Nm7agcvUa6NGvD/QzpmPy5G+gVCjgtDhEKnp2jkHU9CEW1LrBTaVIOLV730xpXNyWVtOnc0Xev0Sfb2YC/zcBFjB8QpjAWyQwr1+/CkPGjd3etF3HYq06fgYfX18MHjwY169cPvPzih+7BKanp+ijo23/7JERDRoEuweHzGnasWPP1Zt/QZ2G9TE0YhQkEhlq1qyOBfPn4+Sx45g8daqoWqtSa1C4cGHhxqGYlVOnT6FY0WJ48PAhTp44gWPHjgnhkp6aiuzcXPy8Zg0KhoejKZX1N5mweu0aITjIekKvb1oJnDx5Eq1atcK4ceNE8C9ZU8gCQ5lD06ZNE4KF4mzmzJsr4ly6d+0mBFRQUMjf+ikBRqMZGrVKWIyMWVnQaDXIfPly329btvQdqNenv0Xs72yo9f36qcu1aDG0UqNG3567cc372PFoePr5YdiXEVixZjVKlCiGBvXriyrLJPKaNm8pKil3+ewzRG3bhm5dP7cf2bp92v/H3ltAVZW+bePXSboRQURUwMJAsBADu50x0LGxa8yxHcdjd4yt2D12t4iJ3YoKonSISNc5h/P/rseX9/+9+f1mRmd03HstlofD3s/e+96HxeV9X6FPTV3ZWooU+GzPSVr426yABGC+zecu3fVnqAD/2BmKF//Ro3bNKfWat7YJvXUbmTm5aNSgIWKjIh8sWji/m0VGRvzCY8cy/6fTkw8TEhn1Q1lPz2UVfLzsV65dhykaDT6kp8PKxlo47R4+egRPnjwSZN5mTZoL5RA9XpgKTf4J/VwotZ43b54AGgRQpUu5ivEOvVievwjDg3v3oVSrxOioZ8+egt9ChRKBEEdE5Liwk0NgQ48Yjoy2bt0q0qdJ5KWyqX79+sLzhX4uo0aMFAZ4oddvCtM9ZiTRObiw0IC8nGzotfmwtLLkvOrd5bOnRz28cz949Ny5SZ/hMXzyJY/PmuWhtbJcdOvJ02YlSpc1ffIyDGs2b0JMQjz27N6JCT+NRcP6/qhVxxc9+gSKOvhUqYZrIZfQvFEjPL5+bVPUgwdjvps48X987p/8oqUFpQp8AxWQAMw38JClW/xrKhA0oFeZut8FrH4WF9vqRVQs7j16iqDNW1CsmC3OnTx1d/PmoB8qWlvHabZu/R/ltAEBAYrssFedktLSF37ftYurTG2EPQf2oUq1qijr7i5AyLv3KQJAlC1bGrbWdiL4kBvHQVQPmVtaiO8pgSYnxsTUVMQYdOvRHS+ehwmfFiOVGvfv3xemdZRA8zWl1QRBlG+z00K1Ef1f+vbtK2TU5NgQwBw8eFAQk+fMmYNbd24Lz5pffp4mwM/pk2dEF6dxk2YwMVGBuU35+VqoFHLk52ZDLZdBYWycO2vy1GYWWu2zMcuXp/01T+ePn4Wp0ga1uk9KQf4kuZFJ2XOXL2Pdtq2wcbBFvz690aN7d8ycMRszZ89CiVKuCH8ZgZaNm+L65RDU9K4OeV7uqVNbtnSQfGD++DOQjpQq8N9VQAIw0udCqsAnqsDCgICGHYYPWff6fWqFUxdDEHLtOi6HXBUqH21BXmS7Fk372lkpwkpZlzQs3rPn/X8OIhw0aJCqMCGhZOK7d8OfhL3qq5k9x5b8l0vXromRkIF//FVKnL94Dnk6LYzVRsj5P2Mhpj+/efNGdD7o1bJk2VKRKUQiLs3oJkyahPCXL6EtKICllRXkSiXOnz0LH28f5ObkiG5LUlIS7O3tRceGnBZyYujmSxIwOy8ENJRcnz59WnR2Bg4cKNKlZ87UCAn2siXLYW5hgUvBDIfUo3mLJsjP10NXyAgCGQq0eSjUaQGDHtY21oh8FX7p0NYtk10jou522b9f/4kewWdb5tDcueU8/fzWPXwWVkdmamSitrZCm3ZtcfbMKUS/jRJKsSZNm8KmmAOyMjJQws4Rka9ewsfbC6ZWlu93/Pqra28pD+mzPR9p4W+zAhKA+Tafu3TXn7gC23v1MlOVKBGYb2U5tXzt2k5X79zDyDFjERb2UnBUTIyVyMnMiHlwK/TZrcshwQmJEUGOagdDXkFBfnJ2tjInM9Peqri9T2LK+wpZWTndtfrCSioTU8FL8ShfDpAr0bN3L5HcvGPnTgwY2E9Y/Feu5CmM5zjm2b9/Py4EXxQEXOYXkbPy9u1bzJk3D/PmzEF6RgZq16qFBv7+mD1zpuC1nDx+QqiNfH19xTqUTPMYgp/Zs2cLl14CGo6mmKRNQHPgwAFBBmYXaN26NSK6YN6c+WINY2NTMYoyMTVGTm4eFEo19NBDZtCLzoxBr0NWdgasLa0KNvz661y8S9hm9zou5ksHMXTmrde2/fTQh4+aNmzXuvbmfXvRb/BAOBcrhsMHDiIxMRm+9fzgWtZN1Kucqzsiwl/C3sYaxZwcs46sXl2lw5gxbz/xx05aTqrAN10BCcB8049fuvlPVYEtgYGOnQcNOdRz9JiagyeMU7b6/nvMmD1HcFOmTZuKypUrQa8rAK3xYYAOhYAI/1EocvS5eRFXr13OTfuQ5pCn1zrcvH3LzsjUBC6lXQUxVqFWISc7D4nx8WhQrz5qePtg3Zo1GDlqJIo7OsG7ho9QHdWoUUOMetgRYXwAHXNpYPfoyWOsWbUaP3TvhvjYOPqYCNJtaGioAC80qqPfC8m4RcnU7OisXLkS6enpIKGXa5HU2759e4wbN050aJiTxLHRhAkTcPbsWeHeSzk3QVB2di6oelYoVMgryIWFmblQLLHDk5OTJRyAZYZC/ZRhQwY7mBpdGrNsbeSnehafa51DwyfbmVQsNedRbHTHdn16FVuxZjXWrViBsCePcf16qMiO6tt/oFB1DRw8SIzj8jIyqAzLP7dtc0D62YunvnSg9rlqJ60rVeBzVEACMJ+jqtKa31wFdgwa7m1a0nHpzdeRdRdu2qx68vQpDh4+hK5dA0RAoqWlOczMTdCxQ2fY2dpCZlCKGtERlxuBAL9o/Ea1UKnSLsjOzYFcpRR2/PxFDX8djoiwcLx++QqjxowVx9WqVRPVfbyFpJl5SH369IGFhYXweSGwoNSaYyUmS2s0GgQHB4vxD71h1qxZI4i4BCX840uwxa4OwRBBEBVMTKy+du0aevXqJbou5LvQ4TckJEQAle7du8PLy0ucj6Mo/pz8GJKCKckmwZjAqCgAkl0YdmhINC5T2gXQ5UdNHzVqerWSZc91mjo14Uv/4OyYpHGPz8te1GFQv3a7Dx1QlCrhhB5duyAp6Z0YtY0a8xOOnzyBH3r0QEJiApLjYuFdrVrO8/MX10Tevr2gnUaT8qXfo3R9UgW+lgpIAOZreVLSdX6xFbik0SgbaTS6kkDyi+joYq/iE6GVycTIpVGjhiI0sXTpUjhw6KBIgi7Iy0dt7zoivyjx/Tvk5+eKNOeaNWrCoNOJP/Dc2KShyofAhuRdI7WRADI5WdmCZ+Hg5ISC/HycOnNaEG85OipSFW3YsEF0U2hCN2nSJNExoacLOTG8BgIJdkuaN28uOjH0gLl48aLo3HBsRRBCXkypUqVE1ECLFi1w584dcTzBDUFLvXr1hB8Mf04XX4IcAhZ2WQhY+JqjJ5KEi8IemevE7/kzrTYftrbmyP+Q/vzkjj3L1Fk5xzpqNMlf7IMGsDRgjImHn3vPe28i+06c+Ytvm3atMXbsWDRt2hyz583Fd+07wNmllOAs+fs3wJFDB/Bd8+aQy/DwxLqgZu3GjZMAzJf8gKVr+6oqIAGYr+pxSRf7JVZgZadOFaJzcvq7VK8WOGLqNPtbjx6juk8NzNDMQssWzVCvXl0MHzEM0bExQu2TlJCILp27ClfcfkMGCdnynFmzhK9LubJuqFvHV/yRp39LfEISSpUpJYjAcQnxAlwQOBAAFHVt2Dlhp4XdFHZ76KhLwELSLTslVBcRIBFQcd1GjRoJhRIBCgEMAxopjWbeEUdFHA2xC0P3XQIdHkc59bNnz0SwIzs8HDmR9Mt1mUzN8RKDJNnB4TkIYghauC43vuYa5NnQDI8AiXlJCrUC5kYq5CanPDy7Z/8S63zt6aZTpvx7VtSX+LxX9O1bzMSpdGDDdi3HPYsMd0h4/w4+tWrj6LETwvuG3KEbN26gadPGCD53Hu6lXVCqVMn3u+Yv9uo5Y0bsl3hP0jVJFfgaKyABmK/xqUnX/MVUgHk5eje3+jdfPFu5bOOmyl0G9Efjlq1ha2OPc2fOY8P6tXByKo70zDTRCTly7CiePXkqOik6vQF3Ht2DuZUlFAYgPioGeVm5OH/2HE4eOYFWrVrBobgTnr18hsjoKIybMF50dH7RTIeNjZX4n7+FmaXgqXDUQ2BAzgzBDYFOREQEunTpImoVGBgoQAPBC31KCE7IWTl06JBw2O3UqRNGjx4tOit0kaUcm2MndkwIcIo2uvJydER+x9SpUwVxl2Dm6NGjYnzFY48fPy66MgRYgrhrMIhrtLa2FnEG9JShm29ichLUpkbIz8uBk30xaFNS7p/etW++XX7+mXpfuGfKmn5Dy5erW2tJkx7d2yxZsgB+jRsjJj4BTx4/Q+/egXAv64oHd+6juo8Xjhzax8yp7NCjhwdlRsYelSIFvphfX+lCvvIKSADmK3+A0uX/vRVYP6ibfY7a5mefRv6jKteuA+969QClCqt+XYM2rZpj2aKl4o97fFI8HEsUF5b+5JI0qF8fZd3LwLNGdaH4gb4QRnI1itsUE/lBdpb2ImfIo1w5lHApiXKe5bFtx3asXb8Gd+/chQ46NG/SFKNGjBb8F24cSRFwkHMyePBg0WW5d++eADpUJZH3QmXSrl27ROeEYIXghP+eOnVKOOuyg0Kvl7CwMAGIOM5iOCRBCoEI36O8muokrtmvXz8BmMj/YOfh/PnzostCYMTjCJLYkSF4EhlJCoUYQXFd+tHkFRRAqZIjOyMdTrZ2QFbOg/OHDs4pjEs8/yVb71OVZOfo3Liyf8MFb96/q3b/xUt069UDJ06dg6WZOfp0644XYc9RoXJFhD17JPg+xkrF7ZNb97RsO2zYfxtk+fd+kqWzSxX4+iogAZiv75lJV/wFVWBxt24VInNz9rTpGuBVuXZNbN+3H6/CX2PGzzOxY+s2zJ0xC+3at8HMubPQt38/bNoUhKioKCQlxqNvv35CYnz99g3cu30fI4YOR/Vq3uge0A0TJ0yFXC3H6/BIqIyN8PT5EzDJkBLkNm3aCPkyxzRpqekiu4jdE3Y7OOYhkZbdF5J3aTq3dOlSARjYLdm4caMwr+PPqAriMQQnlEeXLl1auOpy3MONXRx2UQg6+JrJ2Oy6MJmaIIWjJgY/8lwEM6NGjRJAiICKXRZeE48j0ZcghuMkno/vcQxF6bdSqRb7ZmZnQK2SwcrMDJnJSXcvHT48Lyc57Wa3GTPiv6DH/R8uZX3AICt7L49hVRo1GLFq+zanVh3a401UHIwVKkS+eIVZs2fi2bPHqFTNE3cf3kHN6l5pJzdvq992wNCnX+o9SdclVeBrqoAEYL6mpyVd6xdVAf4vPAdoc/3Vy1UjJ010rt+iGfYePIhuXX5AUmIKkhOSUb1aVQzsNxCDhw5CuYrlAFkhlEo5mvg3QmZWetqSFUtMPD09jTIzsuHiXArB5y+hQ4dOMBTKsHLNWriWLo2nz5+hQ4fvkJqehscP7ws1UUxUtHDiHTduggAc4eHhYuRE8uyOHTuEooiE3pYtW4owR4IT8lr4Pjsu7NCQ4EtfGXJtuDFLiaMedku4P/1guHEcxJBIkn4HDBggAA29YDgSK/qe4yFGFpAHQ0BF4MR12V2ixJryboIodmvYyeE5UCgD9BAApsCghY5+MXI9LI1NoMvKDDuwceM8kwKc6vgFc2JW9R3uXa1F48UvkuLq7jl6xGjnrj1idHhZjA/XAyoZ0nLSoJXr4GRrk/vs8jXNh+cRQfWlLswX9bssXczXWQEJwHydz0266i+gAqdGjLCs36v3gdkbgmoaTNXWA4YPx9FTp7FkyRIsX7wMNb28Ub2ylwAXw0YOg69fHfz00xj06NENV4KD81Lff0iytDaJHjBggKObm5uHm0d5lCtXEZZWNnjyLAy16/qhZp3auHLtqogJoNOunaUlYmNiEB8XA19fP6hVauRrCwSIqVKlivB9YYeG3Q52XF6+fCkUSuS9zJw5UxBvKY+miy5l1+ymELRwY0eHAIMb1UXsFBF8UB4dGRkpAAkl2IwUIPDhfTKPieMiSqupUuK5CaAYAunn5yfGWARL7PDQP4ZgiGMrAh5dgR4yHURXJldXgMycTJhYmkIu00Mlk0Gen/vq+G+/LTTLyrrQZtzPUV/AI/8vl7A6YJi53NUm0MPXe/qKTRvt23bojCaNG+P6uRBcv3oN6zauw5OIMLhVKYfc7HTYKYzu3tlzqGOtfv1ivsT7ka5JqsDXVAEJwHxNT0u61i+qAlcnTbKp2Lr9/oVbttaYt2KpVW3/+ihfyRPFihXD24i3OLRvP2r71Bby5TexbzFp8gTUqlUDxsYmaN+iSVZaasqj5OTEyyWKF8+pXcfPv3zFiuW9fGq5eNbwQX5+AaJiY7A2aCMaNm4kOhhmxiYo6eiEap5V4FuzBip7eSEy8g1atWktQJLoZPwfGTPVRDS1CwgIENJoAhUCHBrTUXnETgzdYjt06CBGQiTWUu5MLxjKodlhYTeG+5D0S/DEpGVyaH755RdB1OVrAh8CFZ6DnR6CHXZXyLPhNfA1x0qUaBNEDR06VJyTnSKOoHKz82BhbC64O1b2tjAxN0J0XDwsLMxQaCiAjZk5FAb9u+M7d86TpWSeuJeT81qj0VBd/kVt074P8KnWtNEKhZ1V3dGTProfnz10CnNmzcbOvTtRqnxZPHj1FKVcSsBObZQfeuhITd+AHk9ldPqTNqkCUgX+cAUkAPOHSycd+K1X4FSrVkZ3TK3bKp2cVk+ZPaN4nyEDUbteXRQaDBg5YhQK9QZcDb4q/mB/H9BBgJeRptdkoQAAIABJREFUo0bASK5AUz/ftwnRUTvsLKwPO7s6ZsRGxZaITUz2sLC2HOzr71/Lx9cXvfr3hUGmwOlz5wQX5cP7NAzq1x/+9eqjb8/esLG3Q626vrC0thJ8EkqoSaZl14VGcVQkUYXE7gdHOwQqJO9SWs1MI3ZPOMrheIihjXTfZQeHUm92ZghiqFbimuTLsAtDLgt5NAQ5lGrzOHJcOD568uSJADQk6XIjcCPhl3JxgqbevXsLeTE7MyT4svNSUKBDfm4erK2tkJmdLdY3NTVGQUEedPoCWJiYQFWoz70XfDkoIfzlLkV6zosvjdy77PtAa3lZh7Flfar+eODUKRvGPmzduBU7Nm5FVFwUJk2firfv4qBQylCmuKMeeQW7Iw4e+9GjZ8+Mb/13SLp/qQJ/pgISgPkz1ZOO/eYrsHPs1Dpla9Xe7tuysce8xQswZuJ4zJk/D4sWLcLmoM3oEvADLKxtkJufhW7dumHHls2wsTBDCTu7YAulcnYVjwqhW0NC8jSA/LWfX8kCRWGrc1dCR+YC5StXq6io598I8xcvBAwykDby7NEznDtzBlcuXkJJ11KwsrNFgU6LESNGiC4KAQoBBXko5KgwJoBmdAQhHOfQnbdoVFSkMuLoifvTE4adFgILjpAY2khQRJ4LU605OmJ3adWqVWKcRW8aqo7Y9SFYIVBiLtKVK1cEiKGDLwELlUhjxowRoyuOsQiMGjduLK6bhF6dtlAETdIHh2tyxGRmZgJTM2MROyDGTRkZeakx0bfPHTw2z85geNpqhiZOhi+ngzG6RVtvI5fim+zLlvbavnsPThw4jvzcApw6dQKjJo5DnkyHl6/DUL5UKRhDnnZv2x6HGoMHa7/5XyCpAFIF/kQFJADzJ4onHSpVYF6n7mXda9TZdv7m1Xrrd25GVGIcIt6+wcWLl7B12w5hUieTqfAk7Dl+/XUZVi1fglWLF+HXBfPWe5ZxXXbm8cuX/3cVe/v6OjuVLWmbnpe/dOfBY/UMchhb2VmhQ6fOGPPTOJRyLgWVsSnmzZwjgES5SuWRnpmB8uXLC8BBci2BCJVIBCIELSTrcmTD0QYBAvkxBCLcyE/hmIjf09uFrsEcE1GOTTdfAps5c+YI0EN+C43seF6OjwhSGE3Abgo7QFQisYPDczFKgBJudnroM0NARGBC7g3BD032OnbqhMy8nI9RA2npsDAxQ0Eu86IUYvyUkZ0h1pHJDTA3NqKbLUMXws9u3bYR2bkhGRkZEV00mtQv4VM4vWPHklUb+W/MNTFqce/pMzjZl8BPo8fgwb374h5r+ftBpgDi3kbCvUzZtNdXb3Z09/e/9CVcu3QNUgW+1gpIAOZrfXLSdX8RFdg+ZJxDkk6rMbO3Gbpx3w6k5mTgTUIcZsyciRkzZyM5JQ1Tf/5F8Fii30aignsZ1KpWFQ1reC+v7Oqx6si9e6//84309/W1NXGwaVmuUqWxzyNelb3/9InN29gEpGXlYdjw4ajs6YWGDRuJw27euYmX4S+E0ohyafJeKGUmeKGPDDknTKlmZ4TSZRrRkWRL0MCODcdblEczt4gkXYIZjp6Yk8TxErkzRe67HAFRAUVQRJUROTcEMwRFBDhUHDGkkXwXvmanhfwW8mHYaSEQIj+GAIkjsdJly6B77x4CrOjzC1CQp4WiUC4ADLs6JuZmyMzOgk5XADNTY+jycmFraUXWrzbi1q3gyJcv9uBDxpX07Oy4LhrNR/bx37RpWgTYooTpZM+GDUe8z802evY4DPX9GqB2jZqAQg6FiQolnJ0QEfESHi6u+br0jLPRl6/2duvS5SODWtqkCkgV+N0VkADM7y6ZdIBUgf+/Ajt7jLCMlxuGBP22fXZqQabqXU4Gzl8JgVPJkvBr6I+RY8YhoEsXzJ47D4MG9MfBXTuwZtlSuNjanmjXsP7E9acvPv/v6qnx9zeOU+hK1fNvtPZReLjV47AXVT5k5arffUhHYtJ7uJevINxyXVxLokKFcmI8Q+4LRzMECAQ0tPgnT4VdFFr9UwVEzxaOhNgxIRihb4ybm5vY78GDB8IjhllJBB804CMXhuAkISFBEICpYqI8m6Z3PI6mdwQyBDs8H4/lawIZjq7If+FaJAvzXOzaEJywu3PtxlX0H9Rf7FfapbQg9ZqYmAnFVKEe0BsK/21tnZCfK2BAXlYmrEzNYGRhifzU5Ngnj++fz3yfdDQ9OvGpS0RMdI0NG/6WsczqgADziPycwQ06dZqZr1aa3r37AHKDHD26dBfSdgt7a1T0rAB9oRbJ8fFwKVHi1bOzwc0qt28fLf0+SRWQKvDHKiABmD9WN+koqQKiAvsCNOrQ1EcdO/btvjxHZSh+6fYNTJo+Daam5ti8bSuGDBqCjLx8VKhYEbdu3sD6FSsw65dpaODt86SUjfVED4cSFzX79/+P3YPhjeu65hTKq5ja2Q4OfxNTMT4lpayVvYPsYVgYsnPz0LFzB8FrKZJKM6aAIxoSdZkQzXEOLf43b94sXvOPKUEJ5cwcCXFj14WdG46QyJthKCO5L1wjKChIdE84BiJYIa9l586dIh+JQIXcG8YCcF12a9h5IWghiZgEXgIWjrCYeE0iMPdnh4UjqFGjRuAXzTRBHjYYZEIWXqjTIzMzG2bm5v+WYM1U6yyYmBqJEEyVUi6ADAwGWNhYA7ICAoLwN0+ehOa8S9mnTc56nO7iEt+lS5ePiZh/0bYlMNA4RSUf1m/yxCWb9+2Dh3sFPH/+As2bthAA0NzaAmXcSov8p3u3b6Omd/W4iAtXAjxatQr9iy5ROo1UgX9cBSQA8497pNIN/ZUVYBbSBwf3nm37/LC8RtNG1pv370bDJk1hKNDhxPHj6NHtB+Giu/fgfjGuSU99j2YNG2FU/8G5j27fWuRRxjFo4+mQ/zXgT+Pvr0wuLHSCiVGXhs2bjQy5fcvm4ZsIixdv3+IDPVy0wJAff0S3rj/A3MQcSoVCjIQIBho0qCeAyevIcMyeNRdLli3FsGE/ol///kJ9FBcbLZxzJ04cL0zu+vfrJ8AGOyaLFy8WpeRIKSYmHnm5uXBwdBKghCMmdlY6d+4oPGBEl8HCQvyMydV8r0jZxHEV9yWQIvelb9++oiNEcNSx4/eCt/PyZbgAPOTkUIlEgMNjsrNzhSKJa/B9gjALc1PxL0dP5JVQwSTT6/Sxb16/iXsVcT0zKeWgLi3r8Z2srJi/Sna9vl070+ySxYd71q83UW9kbJer1SM3T4dLwZexcesm3Lx1W8QKmJqb4e6ta3A0tYhzgHyT+YtXM2V/Mdj6K38/pHNJFficFZAAzOesrrT2P74CBDARcvPeEVlpcxwrejiVqlQBSrUxalXxwmzNdPTu3g2Lli7CpRuX0bhJEwFqYiPfIjUmSf9Dh++vBPYNWJkTmXhu8blzH2Ob/5dtUpt6NhmZ8orO5d3HV67v27x6vbqmz8Mj0bJVO3GUpaUVdAVaAV5GDB+JxYsXYu/u3cL5t9/AAQJA5ebkY8rP01C7lq9QBM2bNxuBfXpj85YtqFGjuiACcyT0889ThJFdQkKSGPnI5SrU9fXFm6hooUiKfP0WDRrWw8iRP4pxVJGyif8SGHGURNIwpdUk+VLCzVEWs6CokqJnzIoVKwRoolSb+UwcUVHuzWBJjqBI+iVPh3weAiN2bsidKer28DpVRkoxcjJWG8HS0hz6vJz8iOfPIxNfRVzVZmQe075Pu916ypT/P43y/1XkP/hzTUCAOiM344eaTZrOV1lZO1nY2UNrAHbu2Ishw4ehQaMGuHHrJjwqlUN+Rgbev45KqOTkGHzv4eOBdbt0yf2Dp5UOkyrwTVdAAjDf9OOXbv7PVmCfRqO2NC82Itmgm2LnXtq2QK3EmfPnsGXNeuzftQeOdnao37gBcgvz0aFjR3QN+AG6nDz0DugBa2vTjH4/dNqa8urluh33n4b9q9cyvW1AqYjkqKrDJ437xbdFs5owMcHtqzcwcMgQPA97hYkTJ8DVtYzIXSIQePr0seCneHvXQJs27WBjV0yMbGhQN3uGBu2/a4sjR49AqVBi1qwZYl92N9gNeRMdBUsrKxw7dkIY0t2+fVd0RtatXy8iCZo1bSzAC7sjHCEV5SgR5BDAsFNCQzyCFwIRKpMIRqhK4jE8F0EKOTw8hrLvu3fvCuk1jyFYIXDhuIprkTDMkRavjz/ja5VKAYVcDrVCDlMTE8j1hXgfF5cfHxX5KjspZV9KTNwxS632VSON5qNBzWfYNBqNXBEe1lpnbr7UvWo1j7IVKiI9Owchl66htFtZ4ZNz79E9VK/hjTcRr5ATn5xVqYTz4TdXrgyv0L9/5me4JGlJqQL/+ApIAOYf/4ilG/ycFTiu0ZiqrYtN+3nZkuF7Tx63iE//gPr1GiBo3QbItVoM/3EoPCtWwqwFc6A0McK2rTvgXLwE5k+bgQWzZ+DI3h2H/Gv5LjNRKm//b1yY/3wPmoAA87zMTPvYvKzSPQMDJ7bo+kPLy6fPoEOnAHTp3h1VvarhQ3oaroXeEH/469Wrh5lz52Li2PFYsnw5KpSrhMGDh+JF2DNs2rQJOoMWBw8cFLLo2bNnwsbWDkuWLcEoBjJqtbgRekuMiOhFQwO8+IQEATwWLpgnOCxFAIbAgiCGYIcjIXJiqHIiiGEWEnkw7Kw8evRIACRyd+jzwhERR0r0oalfv76QX5Onw/EV1yRQIQDivXAd/suNMmumdxfqCoQhnpFSBUtrC0ChBPLy8CEp8cOlM6cvxj1/GeRoZva4y6JFiZ/r8zChfYtGb1LTl42aNq3a2/gEuHtURE52niBAd+/ZA89ePIPCSA1bKzMkhr/VVi3lcuL6ufN96kkA5nM9Emndf3gFJADzD3/A0u193gpcGqYxj7MuHHzw4oUpA8aOsg25cwtm5pZoUKcuvm/dFj5e1RB6/w7GT5yImfPnolq16pg6cRKSohMQ2L07yrg6JQz74Yctqa9jdq++c/3Z771aTWCgsTYlxS4hOdl+057d+2Bt7TZq6LDUp69eFZOrVSjmWBxl3dxER8Mgk+H2rbvYu/8AYuLi0KF9J/TrHygAzJ49exAd/RbnLpwX3YJZc+aI3CPGBuQV5OPWrY8A5m10lBgHqVUfRzsnTxzD3r17BZAgyKB/DPkr5MBwHXrOcKRFEzwSfymrpjcOuyx8zU4MTfBI+iUwoTFez549hekfuzXVq1f/9xRrdmHYvSGg4bkJoLIzs0TJlJBBboDo1BjkMqiNjWBkagSDQQ+VUqU/te+3m7cuBO+o5OB4qbiRUWQjjUb3e2v9/9p/TJsW9V8kJc+r7lev+pBRo03PXQiGW2k3ITsfNnQodIVa3Hn0AHV9a+LRtVvw8q5+NmTrts6Nhg//eBPSJlVAqsDvqoAEYH5XuaSdpQr8xwpc0miUhVY2P5+5fq3X1sOHyibn5uDsqZPoGdDdoDDAIIdMnqPLh9LEGPEpyVi5ei20Wj1u3biFw4cOYc6kcTiwffu91v7+O9TZ2qOaM0c+RkD/zo2y69TcQpf4zBT3mPjEzjBS18nW5pdQm5lYdO3eTSFXqRGXlIxla9dhx6YtGDNuItIzszBh/DgRzEh+DCMC3kZFYv7ChXj48CGsbW2ExJkdBEq0CRoSkhIFoPBwL48zZ84g7cN70TnhuIdcGYIYdmAIJGimx+6Lt7e3GDs9fvxYABCOnF6/fi1AEXksdOmlJJtcGm4cbdFzJjAwUHjY0LumaGNeU5GDMIERuy9KuRwKGdVJMhjkCsjkcmhRiIJCPRQqueAAWajVSImOjti1eu1hG7nyuLXW7EmH5Zq031nm/3X3yQEdGq7bf3jdnKWLXMpXrWZ26vRZ9OjWE+mpH+DfqBHyc7Nx4twZtGnTCpFPn6Gic4nTlw9v7NJouEYCMJ/yQUhrfTMVkADMN/OopRv9XBVY2SOwilFx27mRyUlN5q1apS5mYxsNAzIdbR3Mk1KTbKpV81befnTf4sjJU/CoXBntO3TEqBGjhapncN9A2JkZGwJ7drtqyM46ZJVb8Jvm1Kk/M+aQfVeiRMm4pBRvnVzWVqswVNHKDI6u7u7FCpVq03VbtsC9cjX07zsAW3ZsEyW5cf0G6vjWxruU98I/hn4xCoVMjD3OnT2HN2/fiG4Jt/CXr0Q3hZ0ZcmAY1sjoAAIXyqkJLlJTU8VIiACDoIc/4/cc+3Ak1KxZM0G8pSeNMLHT64XhHt/j2IjRBhwhcf22bdsK4z3+nPuys0MQxGMEUNJrkZ2RiUKdQfBjlCoj5BZooSV4MVKjwKCHvjAfxgoFLNQqvI+KTg5a9us1NyfHTVa5BQ+/W7gw/lN8Ljb162ehcnGpNnrGjH1nrl82Upia2W7dvhM9unZHSkISWjZtBj30ePj8qcjEuhEcbKhbter1E4fWtmg3WJPzKa5BWkOqwLdWAQnAfGtPXLrfT16BLYGB1rWbNF1Z0cen/oJlSy//duDQc1O1SUpKaorB2Miodr4BPsnZ6eUGDh9uOmf5UkXb775Hp4BuYoyycskSrFu1EtOmTtRPm/hTaErEmxXG2sLTmv37//T/ytvaOJVKy/1QLj0vr0kO4Gthb+Men5bufPvxE5R0L4cG/g0RevO2iB44ffokdLpCwUEZ+uNw2FpbCs8WAgWqgphozS7MqRMnBd+FhnfktxBcnPu3sMkingq7LzS8I3gh34X7Uz1EgEHiLf1pmNlEgMPRE5VIHDsxeJJjJnrSEJxwNMVzcCNo4WuOjRib8JFzA+RkZ8Kg0wtSskKhQiHkKNDqoTUYwOyB3II8qI2UgF4Hmb4Azo5OyExKypry09j7VV1cV1tn5lzpsmbNnwGM4vqOT53qbOxeesDgceMn7D52xDQ8JhbvPqRBaVDA2tQcjRs0FHLw5LQU1KpdA6HBl1GrYsXzhw9v7NhF6sB88t9JacFvowISgPk2nrN0l5+xAnc1GlOfxk1XJ7x/r1+zdvWc9zk5abmxsbml374tCHevbZ5UkFBVZmreL1uOBtsPHHCLjI9D6+87CTIsuRv2NpaQK2QwVskxZfiwc8qM9F8LImLOaUJCPglPo5WtrWWuLr+uTmnUJ0Wn9YnLyPR4kxgHayZCq40FuKA5HbsdR44cQ25+nvCUITihOkitUKJ0mVIw6AsREnxJjHp8fX0FP8XY1ESQcYvGRhwJ0SiP/zJAkhlL5Lewe0LQwY3Ko6ZNmwouDIELzx8XF4f+/fuLLg3fp7keuzwnT54UoyiCFv5L4ENQRRl2Xl4OKpT3EOCKvByFUi1yp/ILCsSYjqMq7stgSBkKAYMe+TnZsLQwJajJG9il63P/8hUmy1Oz73ffsCHlz3xELq1e7f409u16i5KlGuvUSshNTJCSno7o11FQFAJD+/UThGWZkQL3792BqUJlyE15t+/dwyf9W4wf//+U0P+Za5OOlSrwT62ABGD+qU9Wuq+/tAL0g7EydjVusWPxf/ljJJKm69atVKBWt+01dGj/slU83SNj41GlWnW8eh4GL6+qsLC2hLmpCtXcyrxvU6f+Vntt4dqR27b9l5ykP3NTNYGaFi7O/SKSkup/0Os99x0/imYtWwlZNTkqzFAimFi3IQhjx45FyRIl0LJlK1QsVx579+xCnTp1cOliMHJyc9DEvxGqennBw8MDGzdvEoRbghYChho1aohREEELOSuMJODGjgxHTOTVkHdTFEfA98mBIdeG6qQlS5YIZRMJvTS5W758uejaiFRqnQ73798XTsGsm1aXj4CAzjA3s0BeAQ3wMqFSGqFQrxf8GH2BHsZGKphamiMlMR5WNpZIz8mEhZU5MpMSs6f2H3ivVoXK0xTp2bf7bt36h2TWZ8ctMlNWsBpayrPyhJuPHxUr4eaGyLg43H/yCLbWdrAyMsXwQQORn5sDSzsrRL99Awu1SWbYzZurEuNuz+oydpnkA/NnPtjSsd9sBSQA880+eunG/+oKjG3btlqTgIA1liUcfSPiE2RytRFuXw8VnYU+AwLxLjkeHs6l0aBqxYjujVos0CYlHRm8Z8+f6gz853vs6Oxc8r1e382jRo3melNjn8o+3jajfhqHxk2biMDHoUOHooF/YwE8RIp1bq4wvFuzarVw0D16+Igg8Y788UeEvXwpAIyzS0kBeIo2joVoZkdFEsdD7KpwPwIWcmnKlCkjeC7s4HCsRLBCkOPq6io6KxxjsRvE0dT06dMFIJo2bZrIeSLYIaghcbhu3TqiM5RXkAfPSpXhV9cPOn2hyFSioZ9Bq4OdrQMSY6KEgsrM3gZZmR+Qpy+AzEgFK2M1HoWEZO4JCjpZ2bXsL30XrQj/vZ8J+r+0Ke3u+yQ+eonKyrJGxSpVFN5+dTF15kwxQlIplajg5oGRQ4fi8b27qOrjhXexsSjm6Jy8fMKEFmOWL3/4e88p7S9VQKrAxwpIAEb6JEgV+IsqsKBfPwv3ypVGGawsBoU+fuIyd+ESHDpwEN17dMebuCg4ORSDTKdDq7r1c1vWqHVSkZq5YOzBvXc/9eWNq1rVLA7K+luPHjr2y4J5yeFxMc5btmxB23bfwbNqFRgZG6N+/YYwMjFGm9ZtUJCfL4Ijt2/fjpioaNGlIV+Fo6DklHci+4gxARzvsENCNRK7LwQyHC2xu8Okazry8jXfp7SYsQIcKxHYkBtD0EQHX46tSARmR4fcF77m+1Q0kTTMTKbjx4/j+vWrqFWnpuDS0DU4OTkFLVu2RC2fGjAzNoFMV4i8nHyYmhiJEuphgNxIhfScDChMjGCiUsHEYMCpfftib4aELKlk77yv2+8k9V5Ys6Zs7WbNNi7fsN77dVSU1ZYduxAcfAlhUW9hXcwOrOuvixfjfVwCqlYqD2uHYmBS5cNLVw4/DL40tu/8+X9IdfapPxPSelIFvsYKSADma3xq0jV/tRVYN3KkR8T7dz/Va9FycEp2JuQyNfoOGogpUyeJjsX4MaMR8zIcp/bseZD0OnLajP37T8nA9MJPuy1q3tzsnVxecsHOXXdHjB6VfevO7eJnz1/AjFkzER0bAx1kGDt+HGRQoGEjf9GdWb16Ne7cuYOwsDABTJYuXSrCHUmupbKIQZAEJOyqUDLNcRG/+B6BTVHcANVKVCX98MMPotPC1xwdMUaAJF3ux+MotebYqnTp0ti2bZtIzGY+EwnCTLam7JveKlQ2Eew8uHcfZUqXxoABA0XFtHnZUBmZQpuXB5WJCdI/pMLI1AQqtRrxiQmwsrCEKV189Xps2xJ03yi/cNmHN9FHhq9Z8y8RqC9t0Rg7uzZYalzCqf26TUHOc+YvwtPbd7F9xy70HDwQh44dReWqVdDQry5uBF9GmxZNoTQzBXTatHF9+nV3VSqvj9y166N2XNqkCkgV+N0VkADM7y6ZdIBUgT9egaUBY0zSVEkN2vfquTpDp3WbOXseZs+bC/9mTYT6ZvfuXchNTcPuzZvSdqxZt9bX03PR/JMnP/zxM/7PR2r8A41j8l9X3Xhw36VJUyYXbNu5y/ru/Xt48OQJlq5Yiere3ujQpQsSk5ORmJwkZM6UWBNosWNCdRKBBTsv3DhGIr+FadZz584VAKfImbcIyHC/Ikl10ZUxH4nAheolEoTZcSH5l+djPhJ5NRyz+fn5CRk1R1kkxC5YtBD2dg7itZWlJbyqVcWVSxfFGIpeK+wUOZdygYNjcRQaZOK8aanpsLGyFaTpnMxMAXxUKhneRr3BtvXrjrhbWS/o+fOMm/9KvYN3bKrWqHuPs6G37hYn0Hr68BHWLVkJjUaDhPQ0rFi3Bkt/XY6zp0+iiV89PHvwAEYqJcqVLnV91/KVPX5cvTrqXzmPtI9UAakC/30FJAAjfTKkCvzFFTik0VSu5Oe3Qmekqu5Z18/a3MwMOfkFuHIlRFj+z501E4/u3IVSp3uRnZQwopJ7hUfz9u//LIGEYwICTDI/fCjdsWPHLQ8eP63667o1Jhs2boZHxUrYve834alSt2F9mJiZYf/BAxg/cYIIZCQg4UjoxfMwEdjYpk0bkbs0fvx4MR66ceOG6MIUZSMRyBQ56BKo8H1+X/S6yDeGgKIo64jvcePoiEojgpd+/fqJvCQSfN+lpCIxMVkolpo18cfmDZsweMgArF65EoN+HIJCQyHyDXoRouhV3QfmxhYoyM2HXAcYQyHWLlTIkJWfDRMrE/y2a1tS9L0H652gXjPw11+T/rePxba5mnK9x405X6A0KqU1yLF72w5YGZmgU8v2ohN0Kvg8evbvi+j4aJgYGSMh8g2y01LRo3u3jGljfurholKdHbxhw0dZlrRJFZAq8IcqIAGYP1Q26SCpAn+8AjtHjLBs1KbNrw8iIxybd+zcslaD+igAsDZoA/zq1xME1XuhoYh/G5Wm0BUcrl216mZLhfblyJVbPguIGeTjo1KrzSoY2VqObtWufb/ZCxeifrNm6NW/H+4/fYqHT5/Ap3YdFMIgUqP3/LYXsbGxKE9ZsFyOW6E3RaeESiTKnakSWrJosfBhIVAhIOFWNELia3ZH+EUAU+Ssy05OUep0UdYR96E3zNq1awWQ4cboA46lPD2rwMTUHE2aNMHyJUtx6cJ57Nm9ExeCzyMzJxsJyQmwK+6IwcOGISMrA9mZOShZ3Bl5GTkwVxpBrlRCW6hDoVwGhbECGenJWDx18lkf1zIjOk+Y9j8Seg9qNGU7/jxhU4Fc5h8ZHYtz5y6gX6++MFeosWzeQqGmGjl+LHTyQphZWcKgLcC21WsxuE9vJERHnb508nTg0MWLPzoDSptUAakCf7gCEoD5w6WTDpQq8McrsHvQIPubz56Zjvxl9m9udWrXMbIyh4mdNY6cPoGaPt4IPnkGNy6HwMJEHRP+8vkNI6XsaJ2qnqF9J38+0ueYatU8X79737p7/35TDpw9Yx2VnIReAwbAliMYuQIOTo64d/8+0jLSMXv2bKSmpsGpeAnIFQpM+/lKCj6LAAAgAElEQVRn0YWRQyYiBtRKOaJiYrB67RoxupEpIICMuamZIPnCYBDjG5rOcTz0/fffC7+YBw8ewNPTUyRZkxx88OBBtG/fXvycaijGCxDckJMzbNgwyOVKjB49WgRHXr4ULIjAVCxZWFkiMzMdUTGxGDp8OMaMHoOw588EoKpUoaIg9+ryCwSo4pcOBVAY9LhzNSQm+NChQbYOLlcGa/6rQ+6+6dNLBUycfNFgrCz19l2SWlEoh7ODI8JfhKN/n96iGzRz7hzEJscjNikO1byqYPbUaRjUtXu+s5Xlw/VLV3QeuXJl7B//5EhHShWQKlBUAQnASJ8FqQJ/UwU0/v7Kt+8z3aevXL2ldM2qdWSW5qhWuwYuXboEM8ihVqiAQi048wi9ee3uywcPDrqZmW9q0G/kZ+nEsAwjKld2i0lN9fdr1WpkclZG+fthL4zsnZ3RsUsXeFbzEgnXx06ewIe0NKxasxZqlRp16tTD7VuhohMydvQY3LoRCkcnBxEemZ2bI8i9BDBCXl2jpogcyMnOFh2YpOQUId0mb4ZAghuTq4siAyZPnix8YCZMmCCUTvSXIYhp3bq1yEhiZhJl3eTc8DjuR3k2QRKVT+TkkBxMkETAw05RZGSkMOKjMV+htlAAKQPo7GuALjsTqxcvHGSerT84YNmy1P/7o3Fr+/YytToFnIeRunhGoc48PSsTkc/DsWfbDiREx2LGzOnw8vHG5WuXkZafhXLl3TFz+nT06NAxp22T5glbFyxpZfbyZWSX/fv1f9NHTjqtVIF/VAUkAPOPepzSzXxtFZjg52fxKDbJY9Vvu7eXrFrJUyuX48iRI6hZxQtP7t6FrY0Vrl2/jOmzp+P0wQMv3cysLjwKvj6+y7LPZ342wt292MsPGX5OZV2HWToW9ymQy2wvXr2O7wIC0KtvH1SrVRMrVqzEkeMnMGvmHKEUSnn3Di4uLsI8juqili2bC7WSQvUxC4nqJkNhIcxMTQQIqVSxouiG5OYVCMLuihUrBHBjsCOPo7Edv9h9oYSakQRUHzGHKTMzU/jKUO1EFRQ7N4xDOHz4sCABExi9ePFCGN+Rr0PfGUq16RBMrxm6/xLscN1idg4fgZPcIHKVlCo54sJf3Vk4a1o/zxLlYlycnYW5nXu5ck09GjReBYXc5dCRQwpYmCH40mVsX78Ri+bMw8AB/cRHb9PmzcjT5qFFmxZYvnwphg0cmFnetdTrDb8u76qKf/9G4r18bb+h0vV+yRWQAMyX/HSka/smKvCjn1+JmOw8/xV7dgQdv3jBND4xCQUZ2ahV3UdY5bu6usDSxhxXLpzDsytXFhm/z1rUb8vn4cMUFXxC+fIW0TpdlfS8vMGVvH0aZOq1pd/Ex+NtXDwm/DwVfQcPxL2Hj7Bm7XqojUzQNzBQpE7Hx8YJkm1Wdgbq+vlhwIABAqBQms2gyNjoqI/S6gIdvL29YGFpLdRG5LRwRESQcuzYMfz222/iPcYLUE5NZc+cOXMEyZkmeJcvX8aiRYvQvXt3QSbmyIkbgQpHWAyCnDhxIlatWiVk2OTmsAPEayMAateunSAaywxK+NWrg9y8fMiVMqhUChRqC/Do9p3zp48cWejv16BsvYaNusHEtCYgM9scFIRr9+6iopeXkI6XL+MGE2MVtm/ZhqjoNwLENW7sjxMnjqFtm9aZpUqWjNixcm2nyOzsGI1G80miIb6JXwrpJqUK/AsVkADMv1AkaRepAp+zAnRzfXPyZEWb8uXmOrq7tbd3dIaTvSNyM7MxU6PB/EVzUadubVwNvgBTvfbc/YvnR07cuf/l57wmrh2AAIWV232v9EI0tnQs3s2+ZMnqV+7eQXJGBjyre2HOgoWoXN0bYS/CRO5RkUMugx7ZEaG5HLsvHTp1FN+zE7JuzVrBayEHhmGMzC+iTJp/+JkNVbduXdHB4VgoODhYdFIITtidWbZsmRgfMZmaYyduNNPjSKgosoAkYMq8p06d+u9eNTVr1hQght0XSr3Jp5k/f77ozqSmpAtA4+jkBLWxAvk6LVRKFeLjopH6LiW5WuUq1pArCpNj4o0ZvuldqzYcnZ1gkAOvX0dh766duH/nLuyLO2D8+J9Ep0iOQtTx9dU9vHrtyJO7d4dHZmenaDSaws/9vKT1pQp8axWQAMy39sSl+/0iKzC9divLGymvulmXKTOuz6DB7iWdXPHddx2E30q+Ng9bdm5GHZ/qiLh7/1bwvn1DZx079uCvupEB7u4lM7LzPU2divcI6NOrl1alRmxyMp5Hvobc2BjNWrVGq1atkJWTLbosVAmxS2JpbSWAA8HFrVu3hJpo6uQpApiM+2kMCpmv+G++MOSssFNDIEN5NYMc2ZlhFAGVTxz7MHKAIybGEdALhg68/DljC6iAInggD4eAhB41BEoEPz179hTqJvJgCHjIqVm/fj2SE5Nw7/Y9oWYimLEpZg0teTEyCKIwa08uDsm+cpkMFuZmNNHFb7v3Cifg16/Dxf1516yB9t+3Q/mKFYRZXvjzZ4WXTp6ZpjYyWjdWo/kPPJq/6plJ55Eq8C1UQAIw38JTlu7xq6jAKD+/8ual3SdVrFGzY/WadSwr1fLBrF9mwMreFrX8aqJ8WVec3Xfgdsihw4PWX7r06K+8KY2np/qdUukRnZpe1bF0qR6etWrViYiJtVNbW+N1TBTMLMyxeNlSOJUoKUDJ+QvnRVdmz549Inl60YKFIrWa8msa3D18eB8LFiyEQvGRI0M+DEdLHEMRTHBsRH4LrfiZgURgxPERgQxHQ3T/ZXeGSiWuS+kywQozj5hMTfBDUEN+Drkypqam4hyMLyC5d+/evdi8cRN8qnnj3OkzwlemcrWqKOlaCpB/rGy+9iOY4fXRsO9dfCIsTIxRwskJ5cq4oYafr+gkfcj4AAs7G8ggQ3RUJHLTMyL3BG1qOnvVqjd/5TOSziVV4FurgARgvrUnLt3vF1sBTUCA2rl4yR4d+vZdMHbi1GIrgjYiS5uPpIwP2LZ7K35dtAjr5s+7c+f02YGbr137SwFMUdGGeXqa5ytNPOJTUhq+fpc0sri7WxmGF76KfI2Ll4KxfNVq4WXjWbkKDDDgbWSk4MGw20EgQ94JOydLlizChg0bcPz4STFCKjKtK0qrJjhhcCNDHknGpRqJ6zA24KeffhJkXhJxSfLlOImcmCLXXnZoeDw7M+S9sLvDsRK7LwQx7Mi8fPkS8+bMRZsWLTHsxxG4dyMUDx8/EUZ5eoMMSiMldAbAIAPkSiA2LhEGnRbmJqb4kJiI7IxM0aWpXd8PUCuRoyvAu9R3KOlQHBdPnwo/uHFbww2HDiV8sR826cKkCvwDKiABmH/AQ5Ru4Z9TgXkt2ru7e3v/XL5WrWYjJk8pEfL0AdKyMtG15w84c/QwzuzYFXpk/fZ+G0JDXvyddz2ooo9Tukxf786biNnjpv9crmw5D9RpUE8AGL2hEK5l3ATnpHHDRtDrCxEXG4sF8+YjLS1V/OG/efuWAB1LliwRQEZ4whQUCIBBcztuBDPswBCEUC5Nl1+CGEqgSfCl+mjKlCmCX7Njxw48fPhQvEeFEom9jCfgflyH2Ukk+HIdjqoY+khA89PY0Zg7azYSY+JQr14DRL2JhimjEVQKxMfRCM9BSMev3wzF6RPHcebkCShhgExfKMZdxZydUcq9LMZOnYBitg7QG/IR+zIiMe7py2kvnj3bO1yj+Zdylf7OZymdW6rA11oBCcB8rU9Ouu5/ZAUMgOxn38Y1a7VqMc27caOGE+fNthj580ThLTJq2DDcO3n28o65ywLXPbz5t6cYD6hcu3hk9od2P82ctuTh8+eW3fv2xubtOwShlV0McmIsjM1Ro0YN1K5REyq1EqE3bojRzrYd20FSLEc35Lb8+OOPAsAQdHAjZ4XbiRMnsH//fjHyIbeGEmkqkxgCefr0aRHoSIURk7L5mmMmAgu6+pIIzHXIvyFBmLwaghgSeOPj4zFnzixs2bZZAJ9aPrWQFBuPyT9PR15GluDhpGVmCCdflbEC8xctFunX798l4XboLRSzsRJqKf58qmYGfju4F2uCNiCwZy+YQKZFgSHj9PbtXq0HDpRM6/6Rv6nSTX0JFZAAzJfwFKRrkCrwf1VgX0CA4tLT1zWt3Mp2ti9ftlPLLh1KPnj2SNmzc2dsWbR8e9Kdp9MnnznytwMYXvLYFm2r/Tjz5ytVatex9KruhQUrfsXgYUMR0LUb7IrZIz0l7WOUgL5Q5BkFBHQSWUnJKe8wZNhQvA6PEIRaAg0GRbL7wv3JWyEAIcgZMmSIeI/cF5J2CVRoYkcyLr1fOH569eqV+L5z585iDXZ02I3huQhg5s2bJ7ouCxcuFPwaGuFVqFQe3wd0wLARw2FtZokObb9HdS8vmJlZIu39e1jb2QEyIDM7C7n5+TA2NeK3SEpKwOEDBwWAqVy5KlatXof03Cw0auIPSwsz7N+5C442xTOSnzxdfvnYsTldNBomRUibVAGpAp+4AhKA+cQFlZaTKvCpKjDep65bkkzXsXzN6k3adPyuarUqVRXLJk+bUBATc2TShQvpn+o8f2ad5b0HVPXt0PZE5+7dXY5fOItyVSrDxc0N8xcuRnpmBpJiE2FrY4NidvYCfBgbqzFpymTBg+FopnIlTzE2GjFiBFavXi2ACjkx7LSQ3/LLL78Ie352XOiyu2bNGly8eFGQc0naZceFzruUWHfp0kWAG39/f9GBIUeGkQNUCjVo0AAhISFCocSoAjr0hr9+hU49uqB+gwY4eeIE1DIFvm/7vXAJViuNhKrJybmEGImdPHNS+M741a8rogoIkHKysjF10jRBNr77kKIwOcaMG4VXT57g/PFTehgMN0LXrGtRd+zY3D9TY+lYqQJSBf77CkgARvpkSBX4giswr14bG629qqyNk33VShUq1n156968Ybt3R34plxw0YEAZr+YtN8xcuqihp7e3yqNqZSSkvMezl69gY2cLG3NrZKSnw9WlFEo6lcD7tPc4cOggFi9eDPdyHgi+cFGAmaIwSMqjaTLHLgoN6Tje+fXXXwW59rvvvsOgQYMEYGFgJBVJdOul4oiybTr4UqJN5RNBTmpqKlq0aCHW4PcERgQ+5NTQMM/BsTiu3bwu1FMcMSXGxaN9u3aQy+RCiETAU7VyFcHZufF/ODBUPF25fk1cl5m5OX5dvhxKgwLHjp1A0KYNOHz0KFRKBebNnYVKbu7o2LFj1oMjJ8p6d+ny2aIfvpTPgXQdUgX+jgpIAObvqLp0TqkCv7MCK1q1MuIhI0+fzv+dh37W3VcHDDOXuZoOOnkxeFJ576rFugX2Rf3mTZCXp8PAIUNQzLYYdFotsjIy4VjMAW7l3ESaNVVCp8+eQRnX0nj06JEYI5HMyzERx0ezZs0S3ZLhw4cL7supU6eEjwz9XQhUaIpHngr35X7kvZATw30JhshzoZkdwQ7XIu+GYZPsvDBugHJr+tQQAHXr3g0Rb16LkZOPj48YZxXq9UiIjcPxo8dw7epV0JyP1zz2p59QpVpVMT46evQ4jh8+DoVSjpmzZgop9+q1qxBy6SJu37iBSWPGZkRcudHSo1Wr0M/6EKTFpQp8oxWQAMw3+uCl25Yq8Kkq8EtAt2Z3nj9btWjtinKefn5QKFWQqdUflT6uZaFWqWBE87uoaNg52InOB71gqvt4Y8umzWIcQ7k0eSp01aXhHEdF7MIwXoDSa3ZQCDAYKcDEam70f+HIiLwXjoU4NmI3hsCFQIfdGpKEqXSiDwxHTOy+cLRE4i8zkCZPmiwAVr62AKfOnUXLVs1hYmyK9Iw04Q+zfs1amKqMxFiKICYoaBMmT50ChUqF4OAQ2FhaCRk3R18NGtYTo6a8vBxsCtqA6b9ocmJv3ZqV9OzFkhqDB2s/Vb2ldaQKSBX4WAEJwEifBKkCUgX+VAVmd+/uqjM2njZtwYL+x0Mu4vuAH6A0NoKFhRU6d+gIpUIBpVwGS3NzPAsLQ+OmTYS/yviJE1HTxwdXL18RYxqa1c2ePVsAFXZIaFZHHgq7Mh07dhReMDTCY0QBgQhHRMw2IpDh6+nTpwtQQr7LwIEDBRhiSCQ9Y9RKFXr27gWlXAHIZSKJOiAgAA3r1xcdlzydFvce3EfjJo2hLchH9Ju32LRuA86fPoPM9DTEJCZi767dSP3wAXq9AS1atMLWHdsFeXjK1KmoVNUTc+fNB1CIMWNGYfu2LRjcu0/Gu/CXp+9eCR3UeuTIjD9VZOlgqQJSBf5LBSQAI30opApIFfhTFVjUq5dZYk5OvcXbtp45cv4cevYbAHfXMnj08CGat2gB5xKOMDZSiXPQAO59egZatGuDchUr4eShQ9i2ZavwaSFgKRoVkdTLCIKIiAgR7Ehbf/JmCBgohSbJlyMkEmrJZ6GCiZ4va1atFlJsfrHzwnXZjbEwM4OusBCFOh28vL2xKSgIDx8/RkZmGoyMjRF697YwzqtTsw7kukLcDLmMscNHQJefh4SkBJjb2mDcpImIT0iCt5cPmjdtgY0bN8O5jCsehT3D+KmTIVPJ4FmhPM6cPomo1xGoXqGSPis5+eSVQ0eH9ZkzJ+5PFVk6WKqAVAEJwEifAakCUgU+bQUYRlk2X1+zfufvD5mUcCzhVsETaoVa8F5cSjmjYcP6gEEPtVqJ2KhYYcxXoaoXPCqUR8lixfA28g12794tZNDsoIwaNQozZszA9evXBaeF3BKOaUJDQ4W0mgCG+124cEE485IbwxEOx0Xs5tCJl9+fPHkSjRo2FEDH2dlZcGU4SiJhly69I0aNglaXD2MzY6wN2ohePXvC0sQCuanpuB0cgqH9+0OlUCAtK6PAzN5GPeKnMYh4/RYNGzaCvaUtrl4PhZ1TcZwKPo+g7VthbmaCPr17oqKHO6ZP+xnJ0TF6bVZ68P1rlwe0Hzw6+tNWXVpNqoBUAakDI30GpApIFfjTFdg7YrxbSb+a28xLufidvBSCqVOnoZxHOURFv0FAp45IeZ8sCLfktRRotUh4lypAyYF9e9GqRUsRzkiPFo6ImEZNUi8BCw3qbGxsMHLkSNGNoUKJ7rwEMAxr5D5z584V+3Ntpl0zffrs2bMC2FSqVElwYziK4kjp9JnTMDYyFkCIXRwCmIjXr5GdXwDPihWhkimgzchGr06d8fzhQ2RlZGSZWVpkmNpbm3boGmAtVxujRo1aiAyPxNUr11GvUUM8ePYEy1YsE0Dp3q2buBJ8Udejaxdl2fIe2rvBFw48v3R9RJ95897/6SJLC0gVkCrwHyogARjpAyFVQKrAn67AlsDR1o6Vy8x2rFa5a+W6de1NLa1QrlwFvHuXBC8vL1SsWB4hl4NF0KKbuztiYuLQrVs3AU4OHTok8okop2bKc7NmzcRryp83b94sCL/nzp0T5FsGPRJ4EMDQTZcjInJeCIYotR7/0zjcuXNHvB8YGCj2Y2fm7Lmz6BvY99/5M/SXoUKJ7r+MNahT1xemxiYiHvv8keNYNnsu8jLS38XERMdAqUiqXqemW7N2bcpZ2NnCu0YdzJ8zH7Gx8ZgwZTIuXQ7GkMGD4VTcAWOGDbtZqqRzZCUPD882AZ0qAPq3h4NW+HX8cYoEYP70p0xaQKrAf6yABGCkT4RUAakCn6QCSwN6VCnvXz+o9YABtUNCLqFFm7bwreWL6Oi3qO9fX3BMrl6/IjohDer64f37D+jRqxdSUt+L7kXJkiWxdu1a4ZJLzxWa0xHQUEpNJRIlzzS9I4Ah8KAXDHONSOrt06ePAEq2trYCzDAfiUTgnTt3insjmCFIYueFAKeINBz15i3s7R1gbmmGO7fuwsHKBlvXrcfGVavyjWTy26YmRkdy9Xnpfv4Nu7pXrVK/U7cfjKEwwuq16/D48WPMX7AAG4LWYeHsuXAoXjyhR6s2A4xN1A8b+Pk18qtTu4979areYZfOd0x6EHajkUaj+ySFlhaRKiBVQFRAAjDSB0GqgFSBT1KBLYGB1qrizpPVJZz6d+oXaDdw2Ahs37EDpV1Ko4ZvTWHFr9XrkJH2AR+S3gkuinuFikIddOTIEXTo0EHwX+i4S8BCOTRt//k6KChIyKUZDVDUdeH4iN4vNKdjp4WEXiqZuDHAsWgjKOL4iqCF4IWEYGYr0R9m3LgJgvxL8rCXZxW8evocfbp2RccWre7cunFtlamJeYi9vY2VRTGroVq1osXilavKJqSmYtTosfi+Qyf0HdAX/QJ7Y+/WHTBTG+X/PGpCeesCkxSlnU5VycOjUvPe3fe8Pndh8auQKxtar1z5RXn4fJKHLi0iVeBvrIAEYP7G4kunlirwT6vAxAZNq3QdOfTo9bCwMoPHjBVGdmpjU/g3awRza3MU6HSwt7XGh4RkPLr/AAQDAwYNFL4s4eHhYlxEDgu7Nbt27cKcOXOEDJqBjvSV4SiJHRbGDhDgzJ41Gw/u38fAwYPw5MkTUU5LS0uRX5Sfl4cdO3eKrCQeR+n1vn37hGvvhfPncf7CBTRp3ASnTpwVpN/vWrdCvZp10LtLZ+3WtWsXl7SyW7f/+b3oXnXrOtg7OA6ydioe8OOECVW3/fYbzoWEYOHSZcjX5uGXKZNx6tAxhN28ffrCgfM/jFw5Q0immWkFT08rE2TK22mWpPzTnrV0P1IF/u4KSADm734C0vmlCvyDKrCiVUCxu0lvAgdMmTJNb2JskRD/Dv2HDELTli1gbGYKl7KlkJ+XA1sjM7x4/hTWDk4ohEHwXkjKZTgj3XDpmsvwR4IajoEIQjg6IoghaZdf9IVJSX4nRk/s7FBh5ODgILgtBw8fEhlFlFj7+flhwIABojtDMzp2YzjGSk9LR15eAc6ePQ/fWrUxfdIkqAsNeRVcXZ89unWrb0FETvjWtyF5I9xbGZlVVPrZlHQZN2HW7FZnQ4Kx98hRrN+yCcFXLiE/KxPftf6ucOeCZT0/JMUcGil1Wv5Bn2jpVr7kCkgA5kt+OtK1SRX4Ciswvlkzr/kbg84G7fnNYfCosWjctCkePHmMuv4NEJMYi3p1aqNiaTfhD3Pk+Gn41Kwh+CrsvjCgccyYMbCyshLvMSKAYIahjVQU0XmXfjEcP7FrQiffIUOHwNLKSoyGmL9EIzyCHiZWb9uxQ4CehLg4YXhXt46vUCwxFsDZpSR+27tfdH9uXb2O0JAQTB49JmXahAlNjIzk4ftDQ/89hFHTIsDWoaxTN6dyHsPf5+dWDI+NR4fuXbFh8zrhKZP8/NXF/Tt3df1RUht9hZ9Y6ZK/1gpIAOZrfXLSdUsV+EIrsL5bN3uli8vIuJyczo1bt67o6l4e5apUwdJVK/D+Qwpu37yFHl0C0KhBQzg5u2DOvLn/H3vvAV5Vta1/v6vumt4TQuhdpFdRpIqIIApYwAKIHAQVsACiBgEFbIiigg2lKERAeg2EXqR3CJBKSE9236t/31ycc597z//ce/QYmsz9PDwB9t5zjfkbM3u9e8wxxzBnMmHCBDPPhfwhRezIVg/JVfnqq6/Mqrlk+4ecOCLNGknSL0nu/XXFSlPslFdWXKPBMubzZAyO5ZB7Jd8saDfs/28SSfohPT9suCmUSKG8X375BYJFhM1ixaKvv8Po55/H0q+/H6sFKhd/tmHD/9OAcXL3h+oevnj+8Xt79fqbEeJMqJT8gABMmThR/2rGrEeTsnLXDExL025Rt1CzKIG/HAEqYP5yLqUTogRuPoGXO3VqeslV8XZS/fp9p300m+/SqxceG/Q43nzrTUydNhXRYaGmQOne4wFTUJAaLq+88opZ54VUzj148KCZ/0LyXYggMbUJy5odpckJJHLMmhzBjo+NQ1FxEUJI3ovHA4ZjzfeWVVSYkRueZc0TSe9Pf8/ssfT4wEFY8tNP2LJ5s5kgXKNGDSxZ9CPaN22BlJjYwxuXL+31r8QLuf6AAQM4y4kzvf0Wy4QhL41ut2j5MmbuF3OQvm799qsnzgx8df58mudy85ceteAOIkAFzB3kbDpVSuBGEfh4wADb5bKyzmF1as4Z+NzQOt8tWoyde/dh165dGP/aq9BVxawDM27cq5g0aZJZpI78JM0bSb0XkqdCehuRlgDkQYQLeZA8GXJaqWfPnmZ9F/IB1q1rN7Rq09osVvfjooWIiopCUUmJWcBu0oQJZqPHPr0fQrs2bbFjxw6s/vVX7N+/H5063oPNmzeC13W8MOTZso+mTekT5vcf++S/bR39M69hde+691Th1XdW7dnRecHPi9knBz5W+c3sT55mfcFNqWlp8o3iS69DCVAC9Bg1XQOUACVwnQik9u5dK6FF0++a39f5PndQwvsffGxuB305bx4yL10whUz6lm1m7Ra3220m5m7fvt1sAUDyXMipIpLzQqIzJLGXHIEmwobUcvnHY+IbE8z3kw7R5GFz2M3oTEpKihm9IWNlbN+OHRk70LF9B2zeuBErl68wt682b9qAULsNzz/zNN59feIL0RYh7cvdu/++F/WvoUzv0btJw3vumS5WS3g4KSUZ21av3ukvLBz61tKll64TRjosJUAJ/C8EaASGLg1KgBK4LgTmjehjP5BZ8djzr742tWHzltXrN2iMJ554CnGJCbiYn4OgEoQckNGkUWOzbsvkyZNBKuSSqAvJdSGJu+RBjlQTAXPmzBkzUfcfjRzvu+8+dL2/ixm1Ibkv7du3x85dO/FQnz5m40eyhUROHw15ajCuXilAgLQPMIC87BysW7MWKUmJGP7MELw3+c0fWJ/+dqKgFqRmZPyfxeYWP/lC3f4vjfxu6c70jg882It5Y9jw1+6uXu27cWlp5dcFIh2UEqAE/lcCVMDQxUEJUALXjcCEx/vVeGb0mG9DoxLuX7t+E/Py+LHo+/AjsEeFQ9Y1lJWUQJFkdOrUyRQdNWvWNEUH6X1E6rmQaAqJwJDmiySxl/ybHJsmW0Bki4kUsyN9j0hCL6nMazDA3j178UvSE1YAACAASURBVNbbb5kiqFuXrmahOiJcRJ7Hlk2bMev9Gahbuw4mjB+Hrz76cFv26ZMv1g8JyU7NyAj+OxDLRr0W33fYk99tOnq0fZ9HHgl5+7nhrc9Z2BNpNHn336Gjz1MCVU6ACpgqR0oHpAQogX8QWDZggPibojT624QJP8UlV28Qn5QMGRoee2IwGIHBlbx88+h0hw4d0LVrV7M+C+k2TSrvksjKtGnTzAhMrVq1zK0isq1EkndJXRgStSHbSSRnplevXubR6s+/mGs2gGzVqhVatGiBA/v2mz2SODBI+3kpPnx/JhrVq4v3p07DyqVLd+3csPHl0ITo8/PXrPH/Xq+tnfBWyweGPv0ZFxEZ9+lLozu88tNPRb/3vfR1lAAlUHUEqICpOpZ0JEqAEvgXBEiLgRPFxe1S53z6fanHG9+weXOyMYRJb76JnXt2mwXn3pmSakZMSGSFHG9evXaVmXA7ZMgQ89RRTEyU+TPg85sRFV2/diFO4M2aLx63z8yPqZ6cbL7OAMw2A2TMrl264PjhQ5gy6S0wkoQF8+cj6+y53374+utRRoj1zB8RL+Sa21NTnZ37DdiWd+rM0v2rls2mR6fpsqcEbg4BKmBuDnd6VUrgjiIw7aGHkpCQMPnV6dNGbtm1G/0fHYiuXbth2LBhWLthvRlNycnLRb9+/cwoy8yZ7+Pb77/Dq+PHAwyD8PBrx6Qf6dvPjMT88MMPkCQFa9evQ1xCAlo3b4XZn36K8+fOmYnCY8e9ig8/nGF2l96ZkYH5n83F0QMHsPT7BYgLDz81bcKkwVFGwvnUjAX/dtvof3OUYVpmaiX6oAQogZtAgAqYmwCdXpISuNMIkK2k1fmXqqc0bfXtm7Nm3PvpF/MwcdJEPDvkGQwfOtTsbWSx2XD8+HHM+fwz87g1iaj8unoVtm/bZhalIzVbunXrho0bN5pRm++++w4TJr1hip/laSvw+eefY9euPWa+DHk/efy0eAlOHTuK3/bswYwpU5AYHnHqw6nTB9cMtV0Yl5b2X5V27zR/0PlSAn8FAlTA/BW8SOdACdwGBL4dOjRk0+nTrTr36fPN3yZOqBWfmABXWaVZSZf0Kxo9erS5ZfTy2LFmzsvuvXuwcOFClJWXmXEO0lqARGFIXgzpg0QK240d/woOHDiAiW9MMiM3X345z0zsTYiLx6ZNG6AEglizcgXaNm/uf+SBB7Pfe/PtgTXVxIsvbaCdoW+DJUNNpAT+TwJUwNAFQglQAjeMwJdDhsQWKVq/bo8Pertjz+5JVpsdYDjzaPTY8ePM4nNb0tMxatQoOENDzJwYUpGXJPKS3kck0XfNmjVmQTvSpXrcuHGwWAR8+umnZmG7xwc+gccGDMC506eRm52F3Rk7EOFwBAb265/9zcezB0PynqIF526Yu+mFKIHrSoAKmOuKlw5OCVAC/0zg4wGD62R5K+6d8/PPn5EW0mF2hylOGt3VxDxO3aBRQ3y3YIHZQoD0Krr77rtRXl5uRlzIEev+/fub1XhJQ8YaNVLQt+/DZvuBIUOegSorMDQFRw8fwblTJ5GVedG4q379s5dPnB5n05U9L37xhZd6hBKgBP4aBKiA+Wv4kc6CEritCEzs+mA9Izbi6fe//PLNy/l5pkhRdM3sGB0bH4dVa9ahb9++ZrXeOXPm4I03JprzI/ku27ZtM7eWHn98IH5Y8B0WLVqCZct+NnsbvfHGBGSkpyPU5sDSJYtxX/v2l4py8mfnZl1ckvrtt7TY3G21SqixlMD/TYAKGLpCKIE7hMDR778P91RW2mzR0aHRCbENa9Sp0wkREdVQXnGp9EreliP7D111eb2VMWFhQVlVRUOWOUYUNdEwWHtcnFI9JoZVvV5NCAuT4vbtCzCpqX8/zPzHAX7/7Cvhxyqy2lZv1GRFx+7d7Dt27jRzW9rf0xENGzdCQkISfly0COnbt2HPHpILsxgZGRlmDkx6eroZfRk37hXkZGVj9qcfIxgM4qOPP8aFM2fh9biwcc06xEVGZrOauik3O/fVVBp5+eNOou+gBG5xAlTA3OIOouZRAn+GgJGayp+tWy2pZqPmT1kb1LsPYJqC4xmADYWuB8Gy5DNAhapZwbDl8PqOXDh1KkiUiRQMqqLNjobt23QAAw6koSLLC1AkHwKBIz6XKzfnbOam7IvnyuxWa2W41Vq5KifHnfo7hM2cp54KPe9ytc5ze97t3rt3h873328ef5733bcYMOAxxMcnIiwiwmwR0K5dO2zcuBmzZ882t5FIXgw5tbRkySI8PXgI+jzcG8eOHzcTe9O3bgZUDTkXs/x2lt2alZk5PvWLLy7+GYb0vZQAJXBrEqAC5tb0C7WKEvjTBIxlyzjUSnkO9RtMhMhFqIGgjXeGWjVZhaEy4O1WuCvKzehFwOtDSnJ1gGWhK4rK2u3qrq1bre06tDc4UZACUlDnBVG1iAIHjnND0yI0TWE4QQwgENAhWArgl3KWfvXFDwKHgkqXS4oOD5e1QIAJBgJSiN2uJYTF6rnlpTZ3MGi56iuLupCTW+/wqTMv1axTt25ycjIeGzQQmzdvxsFDv6Fu/YZmQm9xaYnZE8nt9uL11183u1KT49NlZWU4d+4Mvv/uW1gsInbv2WN2nd6/bw9OHj0GIyid9hQWvxwdDO58Yf585U/DpANQApTALUeACphbziXUIEqgaggcTf0kPKltg9mj3n2rU9qunVF+fyDMHhIJTTNgBHVTBJDuzaR0f6MGDUwRU1RYaPYcIqX6SVTj1NkzqN+wAWrWrWN2iv7u+2/MKMjIkSMRGhaG6LhYPPZIP/hd7vKrOTmuOg0bR8LQDShKEUQ+EYAOg/HBUGxg2ALIgVKwjMXjc9v2HTxsv79T17qXL2fj7uZ3Y+q06RgzZgwmTX4Th48eNRN6j588gbi4OMyaNcts9jhv3jzz7+QEEmk/ULtWDTzxxBMYOGiQ2Rtp44Z1JHEXiTExGYcydg2fNn8+7RJdNcuJjkIJ3HIEqIC55VxCDaIEqobA+jFjQst5fvBHixdM/S3zQuThs+eRsWsvHu7TH0d/O4IFCxZg3YZ1qKioxOWLl9C6eXP8snSZmShL+g39umY13p85A96AH9Pfew+fff4ZOt9/n3mEmWzhkCPN8775Gj9+/z1ioqPgrXSh1d3NUaN6CuxOmxlBqV2/tlnTRZFl5cE+vT0sz4cGg0HVarNZy8rLEW4LBceL2LRxI7ZlbMfMDz4w69vyHIeJb06C2+02Wwq88sorZo0Y0sixWbNmZrSlbdu2GPDYo7h8+ZL5HvJceVkZfK5KnDx0ZH326TMvjp0xI7tqaNJRKAFK4FYjQAXMreYRag8lUIUElowe3c9ZO+WVtbt33vf2zA+x88BBvP7GRLRu1R5L05bh7SmpyM6+jLffnIyG9evh0P7f0LFDB3z77bfo98gj2LR1C77+9hscOXYYhmHg2WefNY88k6hNiMOJk4cP48LZc+ZziqaCxbXa+g6bHZ6A36zvohoGuvbohvoN62Hr1q2wiCI5PY2Z789CrZRayMrKQmJiormV5XK50KhJEzOh96NPPjYbOrZq0xoDHxtg1n8hURcijEjVXdK0cee27Th46BDatGuLgOQHx7AoyM3BhVOnVp06dHTM+OnT86oQJx2KEqAEbiECVMDcQs6gplACVU3g13Hjkts92PPTX7ZuabR+z676z7/8CnROgMcXwMXLl8wicT8v+QknjhxGq5Yt0a9PX4x+YaR5rPn5ESPgC/hxOfuSWcK/osKF+++/z6yYS8r8fzRzJvZt32kWmbPabbCHhiAv7wpIAnDvXg8gIiIKi5csgQID/Qc+hu49eyA+Ph4RYeF4YdgIUwgRoUK2ikg13hEjR5p9jmbP+dRM2B0/fjzad+yAGTNmYNOGjXj//fchSZK5lUUaOAqCgBrVkjFh0iSougbRYoGmysjLuoxTh4+scl/Ne2vwuAknq5opHY8SoARuDQJUwNwafqBWUALXjcCyl1+uP2DMqPS0TRuED+Z9Ebs2Ywd69nkIf/vb39Cl/T2YMX06fvl5KfKycxASGYFXhj+PCxcumGKiXr16GDZ8ONauXeufOn0K8/X8r+H1ehm71abu371bqpGYxF3IvBhcu2WDKINhNIYh2z5s0CuLLMNwrVq1ESo9buZMZqYpcEjUpHpiEpre1RwnDh3GxLcnIzQywrzOtPemmyeRSIPH2NhoVLgqsWLFCrNFwDvvvIUePXrgwrnzuHjxormltHPnblPArFy9Gi63y8zJMaCBhYFje/afcuXn/Vh8ruLLgakv0uJ112110YEpgZtHgAqYm8eeXpkSuCEE5o0YIZQXFqZM+PrLPYuWLrY+99LrofuO7MGSJUtQlJOPVctXYfvmTWh97z0YP+x5/LRoiSRwkEMcIeUcx5aEhjov9n7oIQM6pJSU6klFxSUVpaXF5Q6r1cIBgdycrGC5zwefLrNWq1PzB4MWu8URrkhqSN169as/1PfhpJCoqDBF0/lPZs/mdmzfiZdfHI3X33oLYAzs2b8XU6ZOxZb0rZBlGfn5+WhQrz6+nDsXQ4cPh8NmQ0K1BPTp0wefz52LDz/8EC+/PNbM1Rk6dKhZ6I4kHaelpaGsrMRsQwBJkvdu3rIgUFr2abehQ8/cEND0IpQAJXBDCVABc0Nx04tRAjeHwJxevSyFuh45/buvdlzIvMCNnTgxbuToF7mPZ36ktWvdxt+9S1fl4P69no1r17l87srzdt5yQZGDx0IFW15EREQJyVmJjLGpgmbTdIZRZZ9PFliW9wqVhqecI2kv5qMIRQjTohlF8PF6wGLneT4JFr4aK4i1W3fs0KL7A73vTk5Jif7wo4/EOnXrhhsM0KpDO6xYtxanz53FY48NxDNDnsY9Ldtg+6496NGuve/wsaMBxdDlvv0fcToiI0PnfT0fumFg1ao1eGRAX3zzzTe4t31HcCyLTRu3mBEcXuRIJMazfMGC8XYm+OuDQ18quTnk6VUpAUrgehGgAuZ6kaXjUgK3GIFlAwZwBUBSQoN6z1+6kmfnHU6DMRDjqqzM+e3AbwWJsbEVrsqSy/BK+Y6wMPfCEyd8VTWFIU2bOgyHI8Hv84WqLFu7dZs2/Vu1aZNUr1H9KN5mFce8/lrUtp27nAFJYzgGrCQr2raVq06NePrZDdHRsapkyGEVXk/9jl26JO4/fKTBuQsXRVbgEZsUg0DQh9QJb+GF4c8jNDQc3/6wAN17PYDE+FgILJO79ae0ERWZmdsHpqbKVTUfOg4lQAncfAJUwNx8H1ALKIEbSiC1c2cegLXMZmNFnhc9BQWk0Jt//uHDN6zg29iePSNZjguxhobGNG3eqnH3B3uMsYeHh6/4deWJoKziqUFP3N3nwQe6JSUleQuys3m7ESIX+wvjI2LiO3FOW896TZo1nPXZ7PoXcy+hUf0GGPr0UDjtdnww6yPIhoYtO9LxQI8e0KUARE29eG5LRv+G/frRhN4butLoxSiB60uACpjry5eOTglQAv+GQOqAAaLDmiJYwiW7bBhRiqY5pEDgNMrK2NQ1awJ/P5ltjjKgZcswZ1RU4/0nTvVjnPZ7j5893ZacSurV4wGIgoilacvR88FegMCh0lMOQdMQYbNXotKz6eB337/YdtKkMuoQSoAS+GsQoALmr+FHOgtK4I4i8OT9PVoev3RuUEqDBv3XbdxU+2/Pj8TX334NMKxZeC8IBRzHYOyY0fhm7hdAuevKzh8Xtb9v/HhaF+aOWil0sn9lAlTA/JW9S+dGCfxFCTzbr1+4wbKNvar6qcvra7ll01a8N306Jk95B8NHvoDPv5gLcmyqtLgASZGRgGYUb/7sy3Y9X3st6y+KhE6LErjjCFABc8e5nE6YErj9CaSmprKBgoIOvR7pv/CTL75KfueddzhSXI/0bQqJCMfZi+cQHh4KK0MygoNgZPXYz+9/8MgTtLXA7e98OgNK4O8EqIChS4ESoARuOwJjxvSy+HPFHn2eGvLepby8JqS549SpU/FQnz7YunUTvl+0EEOefBJFV/OQGBoe2LFq9crLh49NGPrxx3QL6bbzNjWYEvjXBKiAoSuDEqAEbjsCowYMiA+Nini+W79HX5k85d3IRx99FOPGjUV0XAwqSkuh6xqOHz2Mg7t2o0H16mczjxyZphWVpr0wf/4NO2l120GlBlMCtxkBKmBuM4dRcymBO53AK/36hZ+7fDlu6Etjvj16PrPjrE9mQ1EkpK1YjkGPPYZfV65Ar+7dMHLoMGVQ//45vpLCDRdOX3hn4pdfVtzp7Oj8KYG/EgEqYP5K3qRzoQT+4gTGDhhgO3XxRMQPi9I2fjz3y7pzvppvLfO4zBYEUZGReOvNSXh28FMYO3KUr2Pr1ocEXVvjvpT1beqvv1b+xdHQ6VECdxwBKmDuOJfTCVMCtyeBUQM6O/MvueM7P9z7neeGjXjq5XHjmR+WLMGiJUsw5Jmn8e6Ud1AvJQU//fBjRcMaNXfpHv8yu+Rfmbpmjf/2nDG1mhKgBP4vAlTA0PVBCVACtzyBMb16xVwoKgrr9dijMwc98Xi/YyfOsPfccw8ioyJhwMAXn3+OhLgYbFq95mq1qOhDZbm5qY7y8jOpGRnBW35y1EBKgBL4jwhQAfMfYaNvogQogRtBILVPH/vF0tJExWHr1Preewd37dmrWVDVIps3bwmH3YbE6BjMnDENe/fuRdNGjfIFXT+7O33b499u2lR+I+yj16AEKIGbR4AKmJvHnl6ZEqAE/g8CE7t2jcqs8LRPvrtxl47du/YUHI46LVq0EXUNqFOnLl4bOxa9u3XBnI8/0GPjYvOSExI2XjxzZtx8umVE1xUlcEcQoALmjnAznSQlcHsReLlt1zg93NEqtEa1l3o/MfB+vyIJderWx6lTZzBwwOOYNm0axr40Bve2aG40a9Io09D0n9TK8i++2ry5+PaaKbWWEqAE/lMCVMD8p+To+ygBSuC6EBjSsWX1Qxdyu49+9dWRTz71TKut27ajTp06uJh1GYOHDMGGjevQqVMntGnWzHjswQePFlzMXMiq1sWfbUgruS4G0UEpAUrgliRABcwt6RZqFCVwZxLo37JlQparuPXXi5dOad6iTbO3Jk7Ggz0eRGRkJJq3uht7du1CSkoyenTvis4d7zl8+eSxuTVCI9Z/mp5edGcSo7OmBO5cAlTA3Lm+pzOnBG4pAqNat44/4yqrs/3smTWKpIQ3a9EGH878EHVq18ZdTRpj7+7dgKHhtfHj9Ad79Di5e9vW2YmideMXGRmFt9REqDGUACVwQwhQAXNDMNOLUAKUwP9FgJw2Onb2ZJuVp0+tzMvNCW/QtBmOHT8NHgwaNWqEtCU/o1XL5nisX1882rfv8SMHD34QZbVu/XT1ahp5oUuLErhDCVABc4c6nk6bEriVCAxp0qTha9OnflmjRfP74mrWwPlLWZBkFY3q1ceoUaMwZfJkvPTiKIiGft6Qg+9zvuC6+RkZpbfSHKgtlAAlcGMJUAFzY3nTq1EClMA/ESDRF020Pf7a9KkzWna5L2buN18jJj4BbVq3g8jzqCgrxZ5dO1CUm5+3bsUv74Wz/PLPNmygCbt0JVECdzgBKmDu8AVAp08J3EwCqQMGiKfPnat/V8dOHwcYo2Wn7l0jej78MHheBMuwUDUFF0+dwYljh4t+2737R4svMGfK4sX5N9Nmem1KgBK4NQhQAXNr+IFaQQnckQSeadmyNheX+GZCzZRHwmJjw+/tej/6D3gM5WWVOHfmFFJSauLxfn39gx7ru3vr+rUvfpG2+uIdCYpOmhKgBP4fAlTA0EVBCVACN4XAOwMGVI9r0GhqRLXk3rlXr0RFJSaidt066NOnD6LDw5CVnYsl336DajExhxcu/HaIi7dfSEtL026KsfSilAAlcMsRoALmlnMJNYgS+GsTWDZgAHfeiuovT3t3kWRY7poy9T1H2urVbH5hAU6ePIlWLZojY/NWhFgs6ntvpx5qVK/ml1cLin6hLQL+2uuCzo4S+KMEqID5o8To6ykBSuBPEfh+9Ii7Bk1+Y5kQE1Vz5NDRltDQSEybNQPllZV4avATqJ6QBM3jxfGDv2U+1LXrEr/bPf/z1asL/tRF6ZspAUrgL0eACpi/nEvphCiBW5fAnKeeCo2sV7vX32a9m5px8GCDo3uPYvBTT6Npi2YoLC3C+HHjYEgS9mxJ91sVLS3J4Uj9KiMj+9adEbWMEqAEbhYBKmBuFnl6XUrgDiTwwaBBTRx1arwSd3fT55q0aslmnjiLvv0egcVpg9vjBQtg8huvY+2SpTnVwsOfr2axZMw/fFi5A1HRKVMClMC/IUAFDF0ilAAlcEMIfDxggK04EHh40qezvxr28tjwe7t3x+gXx2DG9Hfx5pR3sDF9E+7teA8yT53G4nnzdxVezhm2YMuWzBtiHL0IJUAJ3HYEqIC57VxGDaYEbk8CU3v0qemoX2Nig9ZtB733wezQdZs2Yviw59CqbSts27sLGbsy4PN6wTEsVn3z3eZDW9JHTktLy7o9Z0utpgQogetNgAqY602Yjk8JUAImgVd79Gj7wODBn61KT2/comUH+7MvjMC8zz7FvgO7sXVnBgqKSrE8bQkeeaQ/ik+eXv3jx7OffG3hQh/FRwlQApTAvyJABQxdF5QAJXDdCRgAM6xj245vfPDhL4OeHx63beduREREIy4sDJ/O+QTPPDfMtOH88SOo0bCBa37qtIYvvPfe1etuGL0AJUAJ3LYEqIC5bV1HDacEbh8CqZ0785U8f0/T7p0/ulRU1OLd92agQYMGKCkoxE8LF+Lxxx/HM089WfLpt98IC2bOGptz8vSS1LQ0+faZIbWUEqAEbjQBKmBuNHF6PUrgDiQwr2VLoSAhpi3CI17u9+QTjxqcyKxes86IjYoJ7t6VkXfq1CmjR9f7917Jzv2hfv36B1IXLAjegZjolCkBSuAPEKAC5g/Aoi+lBCiB/5zAJz37JyQ2rjEirlbt+85nXuI2p6frBcVF5zgWJ51W65nIatWO1+N5T2pGhvqfX4W+kxKgBO4UAlTA3CmepvOkBG4BAl/07h3h8qlRWYUFNp8/oDEOoYK3WAK+unU9tM/RLeAgagIlcBsRoALmNnIWNZUSoAQoAUqAEqAErhGgAoauBEqAEqAEKAFKgBK47QhQAXPbuYwaTAlQApQAJUAJUAJUwNA1QAlQApQAJUAJUAK3HQEqYG47l1GDKQFKgBKgBCgBSoAKGLoGKAFKgBKgBCgBSuC2I0AFzG3nMmowJUAJUAKUACVACVABQ9cAJUAJUAKUACVACdx2BKiAue1cRg2mBCgBSoASoAQoASpg6BqgBCgBSoASoAQogduOABUwt53LqMGUACVACVAClAAlQAUMXQOUACVACVAClAAlcNsRoALmtnMZNZgSoAQoAUqAEqAEqICha+CmEFj2xhthVsEZKWuaxa/IPKysJus6J0NmtYBm2CwMz2m6oasMr7Os4ff7oRkyZ7XbWYG3QQkE4A8GtZAwO0ueZxToHPlpCLrBqhqvcQb56QwJkXVONWRAD6iK5hR4hlUFRlFVhlNVhvx/iMMh6JBYnrMbqizrFpuNC3g8qktRlNBIq8r5wWsMw4oA65UkXldVg3XwjLcywEWEhxu6JLGyLIPleUZVFJHlOCbg8+mMYei20FBDVxTTRp5hWJ7YyLIKz3GGrmmGyNtsOsAaNljNn4AqqghaOU4xFEUVRRE+QBcAlvyU/X7F6nRqVgDEDo1hVJ7nGcYweAvHcbJh8FBVTuE0RpcMVpXloAawDM9zIgBWVRlV4xlekVlV0xheEFTVwvAAnABEzTAYzTCChmzIjG4EyZxYllMsdk4jC8UCC1heY4idkqZp8aGhhsowuiJKsq9c0cKqV4ekqqxaHhQjRdGQmIDksFr5gCQxhqryCvGKrrOllYWs1WKFzRJq8gxomsECOscwejAQgCgIhjkfSeIVSeI9Hg/xN6NpGiOwLGsNsfAiZ+N87mBQBiBYGJazWg07wGq6zlg4zvyjGIbsDwQYZ2iopsrQddVv+AIBxhcMcmFxERZW45yyFnSHMU5JDbp1i92uCZzDYJy85g4EdIZhRMJM13iDDQR1zmLRNUU1YLv2ayMFDRvDaxxUOCQDFsAg5hk6Z6iMYujQ9KBdEMzXalqQl1WV5UTWsAoCK+man1cZhy5A4hRIvMUieTweJSQkREhJTNQys7N9kQ4H62YCrOQz9FBRZBjGxgNBBAOAVRQ4g5UlwAZCFv5rNvF26P/4pfa73Rx0kQtqqlXRA4zpc03jFYURoCmCFgiqgt0BzdAZltMZXhQ1AWIQFkbzVQaY0JBQxVVcKkXFJ8nBinLG4BihVJZYXtQYu9XKqeXlclgw6Hp682bfTfkgoRe9owlQAXNHu//mTN4oLt4BmzUSghgNsAp0nQELGQIrkBsAYCjQoMPQhGv9Rg0DDASwjA6D1aFpDFjWAjA6mL9/WBscYJC/s+Qt7LUxDfJWFeS/OYPcvwGDVci9H4ougmNlMDq5eUswYIc3oMFmZaDKCiwWBoyhwGAEMho0iNB1PziWA2saZTHHkxUVgshAUTUIggJZ5iAKIlQyPseAgQTdtIO8mgHLsTAMAwaIICD2W8GYT5K7HItAAOB48m8ZYAxIQQ4WkfxRwMAPhrPCYCTIigSOD4GhBsAwDHTdAMuyYAwORMSw5q82A7ABGBDM6+sGocVc+2kQRgYYlvzkoSuEO7ENYBgNDBEsjA5eMKCqOnheh64Z4MDDMBgInAZN0cDxLGTZD7tNBwseuqGDE1RojAU6OJCZkudFLhSMLoHRGRjgTb+Ra2kGsVGFpmsQReJDA3JAAzgG0HhwRNYYMOfGceTahLkBTQEYjoPGGmAYgCBjNEBRrj2vEPMZA1YbA11TwPACFF2DoSsQWA7QFVgtvKekbYwczAAAIABJREFU1BISFaWj0idDtGqmf9xuBqEOIvsUMIwAXSNoiL1k3RmmDcQ8hmGJXoBhkLVggaGzpgYl1yVr0VAVKBpZBzw4RjX9Do2sK5WsRAAqJIWFaDUQCEjg+SAYVgDPswgE3XDaLdAZDbJsQBB1aCrg9XPkwgBZ77oOUYAiSRKjauCtAlmpCPi9KmAwVrud9/l8hs4wvGHorKHrrK6pjK6onKaqrK6oBKpssViZCleZzltEFtAgSbIeFhahq4qu+dw+JSQk1PAH/C6L1cYoisJKhsonJMU7Ap5yTfD6Ndbvu5T+68rxjy5enH9zPlHoVe9UAlTA3Kmev4nzNryeUxC5anJAChMdYVA1oifIPevafYrRVLCSCt5qITcvA5oqwSA3ApYJyBLDcRxEqx2K1wvBarsmDgz+7z/Zv/8kNx0N5AMeqkw+7EEiHqxAhAm5N5Ibuoqgz637PV624moxNEVHcWkJCktLEdAUGDxrhIaEM4Yiw8Jwuq4qGjQdKqsbkqay9rAQnhUtqF27NqonVVPtDoeuBCVGEEXOvLmxppgiN7Nrv2dkLqrGQNOu3ZQBw1NZaT7nDV7TIe6KSvPFkvfa12mXxwOZMVDicpk8BNEKj9sNKyeY9tts5L6pgzDRNA1OpxOqqiIkNNT8t2izmjqO3GqJ7uLId3NVg66o5uuKi0pAoke+gB+BQACSJEFWFfO9hkZezJp/t4oW8i0dLM8gKMvgBN7QVEUWWUaKiIyER1c1xioSkUGiUSyvMryFhG80XQ8LC+MyL10yImMiGEWRWYfNbvrYKogQBAuZt6QpqsRznMwwJMiisKpmICj5STSFI+PJumawDMMQeUCEGc9xnChYuWBQYnSW4SSorKYpsPICwp0OhIgOcy0FFRWypEAOyAj4/IiNjobL74bMAtlX8rSYmBguMiwcCGowgjIsnAAS7RGddrj8XjhCnKbuYAwdAomksAyI/JMZQ+INRqsWFmkILMeR8B1ZVzr5A6L5VCiKYr6ntLQEbrcbBsuA4RkoukL4IcRmB6dypq9DwsNgc9jN34PYuHiouobLly8Tj5m+ZRkGclCCheUNiyBoPCsw4eHhmjvoF4mPicqWpAA0WQOBRB7EBoM1JEVTOUVRTG7kD3GVJiumfWQdEv8SHaqoKniBhQYDXl8AgiDCZnWAFUQosoZq1ZMRlCW4fG6ohg6LocKhSnKnJk3OHdq148X+8+fvvokfK/TSdyABKmDuQKff7CkbLtceWISaOoMEjRHBsBxIAOVayMCA5PGhPP9KINIRkuUIC/OAMQRwTCRE0Qlds0NTeHCiIZWX+30+XwAGIxsaVCJ1DM0wDF1ndEM1DNYwVJUEXKDbBd7we/3gGZ4vKa+wyoYaceXKlbDomAhYWBZaQEFsVKyug2H9qopyvwflPg80zYCnohxWg0W43V4iS0FVtIpipd/lcPm9rMVq11VVrWDBVlg4LshxnE4sYBlG14mAAdnlIV/jiTAzYBBhoGqmVAN01koeFqugGJqNZVmHJisOjhNY8h3eGRoCnySxflXmY6tVg1eRUFHpRmREBBJi48hXfzO4QAJGhqqZAkTkBfh8PlitVkgK2VwBdMaAruum4CE3LUWSdVWSWU1VoQbMGxkRXnogGNSDsmQQwaAoKqOqKqfruqbKCmu3WFlJVcAIPHxSAJxFNK8bFxau+aUgw4XY2Yz9e+AMD0ebVq2Reeoc7KIVNkE0bT14+CAiidDxEHfqCHh9EDkWFRUVRDQpZWVlCAYCBmMY5n2eEwUipEjEg1F1TSd2MAxD2Jo6kCwVwQzPENnHskFGFQhRIlDq1KiFmonV4HCEgOEEREVFw1PpQWx0jMmIFQU0a9ca+WXFOHz0CJISEiFXehBhD4ESCJo2qUR1ijwq3S4Eg37N53KrgYCfKS4rZSpc5UyZxwVdUmDTGeJMEvhgNOhmdISEWIjw083wicYKJBDFcJAN6dq4JFRl4SGyAuIjYtGqeUu4fV5Imgq704EVG9ZAYEWMfWW8aQsRL6ok49TxE8jPykFEaJjKcxx8fr8hOJ2yMzSE5TmGM1SNsQsW1m6zwOVyBQsK8knUTlWhM7quM5Kq8NB0ThRFJiwsDOEhobzP62Vq1ajJxiXEc3a7FbwomOIEDAfBYoUvEIQ3KKFuvUY4cuwYlixfjLEvjTPtCrMLRMBIHRs3Prbm55+efv/gwQs3+7OFXv/OIkAFzJ3l71titns/XmYzEvFRh969hsFiFa9FKhjyjRuaFER+5mVjx9oNKwQd68rzr+wLBCRFN9R7mrVr2eHupk1jNV3V/W4f6/d65d8OHzrEAJWaBr9uGDLUa1tKBmuGbjTdMMqMYNAdcLkMneeVkqsVAUWTkuNrVG+s82x0aUVJVIP6DSwdW7apVVZWoXE2G5NztSi012OPNE2sXzd01tTpqCwtuZR57OR+pyjstTBMoE6dWg3DY6NiyQ3W63IXFRcVn5RKvcdkn3o1LM7OqyzLsSSq4PGoVoeDYex23qKqjKBZGfASUTXgAY7EWHxer8AKghUqE6JrSkx0bEyUZhhhoiDY7WEhap1GTRoxVmtS1tWC2KTqyXd37d7dzLfJunQ5cOzQoUKfq7I4KiyUjQyPMGIjo8CC070uN0MiORWVLlS6y+SgoiiegMftCwbKZDnoI7tsvCAwIstbHYLFyeoMIzC8TqICvCCSHQwrwFsNaBYLL7BBf0AQOdEpaXKYxW6P0HneEhoXHRA5PhBi8MWZmZkqH+aI6TOgf4342nVQlJsLKyNgx5Z0VJSU+MnNt0aNFEa0W3RGM9hLmee1mMgo/fDh37Sgrvo0RXb7vf4KljU8Fo4nW2ssbxGtqqFxVpsjYDBEBbAax3IKw7Iad21HjmfBCDZG4HUWFp8adEqqZLMIgiUqLIKPCo8RrRabYHU4w4lkCHWGixzHB4PBoHo5L9e/IWOr5bufFoU5YqLw1KBBaJRSG+dPnq5MjI4lURMLw7G8oqscx3HZIKE3SWItIi+SCBJ4NiDrSoDnhEC4zRbQFI1TSBRRVa75lufBc7zBgmHsFoutZs2aXHJScggncHZJUcLBMqKqa5osKb6igiIUXi3mWEFkrCEOa0rd2kJySg1TfDbrcA9WLFqEXTt2IikuXm/bopXPxouVUiColJaU6gXFV9m84kI+KzdHKSsu0h02Gx8VGsZZBF6y8KzHYhUq/cFAKSsIBseynKppdlVV7TarTYyLj7fFRUfbQi1W1lXh1vbt3eN1ed3lthAH2SlzOMLCI/2KwobHxLLR8XGhGiM4P/58tnPr5q04eHA/Tp06BdXv00R/8JhdkdM5rzz7vcO7rt4SHzDUiDuGABUwd4yrb62JLkxNbTF4wsRt4JgwEh1geM78Zk5iMO6c3Etp878fqwU8x1+YMyd33ogRgqAo4UGGCbFZrX5ZVVWbKIawwaAia5oUtEqqwYQrGscpFkn6rwTGq4mJRmpqKsk3+K9HamoqG3vhQpjEslaXJDlEm40lKTCMLuiM3S4HfT6nS9er9+zb943OD/To/Pbkt3KSExMPnzlwcHYEx100DEN22GxOm4O3eAIB3cpAtnAO9ysLFriYa3kNf+oxp9cYC+fUBMQAmsvFqlYrX6H4UsorfNVdUnDYwhUr+kBW5TYtW25u16LlJtnvynHyFlUPaiVR4Q5W8skBp9XqkAIKCU9o3qCksLyhGbwhcxxHNg0kniQ6cDJrGFYzRONUFF0meUU8zxoKz6qCKjDBIK+oql1TVcPvV3i7lQt3+4IxKsskF1W6IzWBY1VVlUnCsRk0cYg1Xxj9Yt+Hn346Zm96OnIvZOGrz+ZeEIHzDqtVUTRVV3VVc9rswYDHF7TbhAAM3ctwTLau65Us1KJQq9PnsNsVM3ZlIVEMQJGhcFbGUBnWYEVeEwGVJ/nAhkFyjAXZFbQIoigEDUP0q0GHpikOXVLDYbDRYASHR1JiRbvDbrVYGa8vKDNAMCwmPMSvabGpH73XsXHbNlGrf12BRfO+P5x34eJ5GydeCXU4UO5yGwyrW+1Wy35dlRRWUmWHjWN1VWUFUQyyIuMXBasEXddYnWNlVtMZhSRVkyQuATqr8SQDB2a2i2HlBfMRKut6rM/vZ3WR5ewWh63c5Qk1wIoKYzgUIDoiJiZk5ebNncnW55wZM3Fw3/6zZ0+fybXywmUrLxTIgWC5TbBYOY4VBZYVfYqSpxpake7zcWSr1CZYpfDwEL+F5fysbnid9pCAziucrqqcyiq8JCtiMBDkZUnnSUZwiNVqVfwS2V2ttNoFf1hIiOwCRG8gwIVGRNgLXa7qbp/U9NLV/PbffPNtu76PP+mYPeM9/Lpypa8gO6cgkhO2JDvDFzepl3wwNSPjf/yu/alfBPpmSuB3EKAC5ndAoi+pegI7581L6PTMM2dgqOGGleTXMjAMjQQHALfn7K/f/DBEOXDg2MC0NPP0y416pKam8kJ+RVSfIf2X3NWmVZdv5s07okvKmvKcnEVSbOzl1NTU/xJIN8omcp1ZI0bUdgcCnafO/XwuVIOb8OKLbyLo32SrqDifmpERvFG2TGzQJsptU5yVMhyCwIuazrgcTrvDpQbbvfL665Pb9OqZsvmXX7Bzc3remRMndhTlF540NM0fGRGmC1arFB7qrFADwUKe4crt1pDKWN3jRkiIXJU3v9QaNaweMcppiJJN551caTBYg+VFZzAoKaGh1qt+DVEqp8fMmf/FJ3ENGyTOnf2RwfjUQzs2bZ3rKiw6Zrc7ZF60VQS9xTYrF10eEQH//MOHzb3IP/NI7dzZanGo5vmlwlJFZESR9RlGSElpaWIAWhRrs9cIKJJzS8aOVD4sAuNGjkR5SemGC+fO7QwVbAf8/mBZfESkHyTCZxiqTk5l6QFftN3umn/4MAnomRnvf8bGf/Fepk+jRo1gDx3Wo1fPx0ePfzXhnQlv4MDeff78y5d3wyt/XSMsJn2dK7eiiq9Lh6ME/i0BKmD+LSL6gutB4NgPPyTdPWjAXnBsdYMXSL6AeWCIbCCUZWWd3b9x60slR47sfm7Bgut6cyaCJbKsjIsvLDTONG6sR0tSmGCz1WnVqdOU5m1b9/xy7hc7HFbL2uwTF1YnMEr+iPnzA1URafkjTFOffdYqWiy1Sisq7v9owY+fw++rXLN0+fIj+3bOSF206OIfGauqXvvxgAG2KyVBBwuNLw14ImGztX5q2HPvdH3skZo7167Drq3b8lb/smJhtdjE5c4Qm9ciWkjyq9Vq42TOaq0IxMeXz58//0+Lgt8zn1GdOztFzRJiCQsVfJKk2skeWURo+ymffvAFbGL0V59/Xpp54vSmwuz8+eG8NUtXIbkkWeejxMDC63w8+I0B3cK0oC0yv7Q0IagrCazT0eiXX3991+eXsGrlr9i6efPPJw8fWxQRYr8cF53sMWSJE6wWngejWnRIqqeorCrE1f/GcUyvXhZZNlrUvfuuSQbH3vPq2++Ef/PJbCxb+rOaff7iegfHz68VEnFkRWkO3T76PYuRvqZKCVABU6U46WC/l8CBH36IavPEo7+BEWoaHBEw1056sAaDzEOHsrxXSg6d/W3PC0/NmHHdvtn9+OqrDt7hqG3w1tiQ8DCh0uNlBKc9ft+JY7axr73xtxp16zTOy84uO33q5N5D+/Z9lxASUWKz8oqVtRhK0CMLqlr56OTJOb93zn/kdevHzLEYCd4UNjIyqtBdUS2/qDQ+Oiqqz8hRL3aH3e5ZvuDHZccO7pvOu1xXRKczLDoiIgI6Z2c4K8foJJkUsPGCHAyUFg/9/POrVS265g0ekeAycJdfkiPLfH67R5eb9hv06NN9n3giIuvMWWxeu/7CpjVrv+JU9UB0dJzoDHPGtmjVvK6kSM7S4vKLPnfFSbvVXua/cDKnKqMv/8yYbMnlhbqrMTxquNze2HBnmJnmrRha/Mdfzp0Jh2ifOXVqpZ3lT586dHRBiMNZCUUnebeQPN6iUEY4mxnKFaddp0jg3FGjkosqPY0klmlcUF4eAYGr+ePyX56CbGB5Whrmfvb5XMnrPRTpDMuOiYxgk6slJYSFhFcjeVCKFHCVFhSeMpRgObzI/+zABvcfWWP/7rXk8Nq8F8Y0PZ51qcfgES+M7NCzRy0IAtb99DM+/ehj3VVcnBFjcx5tkFA9PcrhODgpfWXZvxuTPk8JVCUBKmCqkiYd63cTOP7jj46mj/a+DM4ZC040BQw5YcKxLI5l7PDViIw+vXPVukf6Tnmj4HcP+gdf+PPMqQ0HDR+9DA5nMjmtAU2zQOBVsAyph8aZ5zdILRPoGivyfnI6FopOjhIFzXosbnfBlgVLevZ4Y0yV25iz5Jc+1fs88BGpswdRcOiqGsJa7JC9Xoi8BevXr9+yZfP69xJDIrRGDRp06tqty+PWpGpxJMxx7SAMJMgSfLn55zet+uUdTZZ/G5iaeu1YUhU8Cn7eODyhQ7upsNlk2es2vLoaHZkc7yC0rmbn4f0pU/eePnYi7a769dU3J01Kjaldi+wOyhBZGxjGBlWrcF++nL993ZqPXNkFO5756pMrVWDW/zPED2+92/yhwU+sCY9PJFt/dsUv69BV3hIWyZDtS1hFeMqKEeIMdSOoaZBkkoWrQVUlj8sV3L89/czeDVtSU9cuPXI97CtZtTskunPzY3rAZ/EEA2pxZWVKUkoN2O1O5OfkokObtruqxSVc6Hr//fzwZ4d2TWncxAGOkSEFyWEmpiI3r3RfRkbe+ZMn17ivFmxNXbP8XFXZuSk1NbbHk8+sR7WkmscP7ots0qIFqYhI8l+wdd0GdG7X3tsoqbq7cd16zMqvPuvVf95nx6vq2nQcSuD3EKAC5vdQoq+pcgLHN/3oaNql31Eo1rogNU1IaVdNNk/BHNiy1WjbpOnxNT8u6//wW2OyqvziAA4tWRLd8qEHl0KwtQXHO2TJD9FhhypJ4FnOAw0F4HkGvmAQDms1QOfBwgqDFLQj3005IBisAG9cPJi2vFfbZ56p0m+fxvEzX6JOjW7u0pLYIIfQ8OgYuF1ekn6LgoIClJeVnfO5XWd693m4GaDFgGHt5LxtSUkJKjxu2O12uVp8gkJKxYLnL+1fsmR4+6FDq+QmbKSmsnh6dDYprJNbUpJUrWFdgQ0RcSk71zwmTeq8rF2xIicxJi530JNP3gWe5SFLziMnj8vllRUiOcIbERbur1Ozpg0M8ov2Htyxc/O6NwfOnJlblb7enppq7TzqpUxEhkmBoFx74cKFYCVdLrqS772ad9Wdn5dzpchVZrv33k4NCnPyKvJy8kuaN29e7b7OnaPsYSFMrRopiLY7PJlHjmw6vHHLSy8sml+l2ySnU1PFRs8+/xsiQjlnWEjSug0bwyMTEnA5OwuRkdGQgwo2r15nNGnYqHjI8OdC4AuKp0+cKPvm+2/E0rKyYJ+H+4TFxcVxtaonS2xAKi3IzDx0dPv2d15YML9KRIxry7YnQ9u3/fhqbk5ocqNGtiFDn0OtmnXQskULxIZHwpVfgKM7d5QmO0Mv1ouJ3dzi1dHvVKX/6FiUwL8jQAXMvyNEn78uBA5tWRbWssuDJxEUkkGK9HOArClmHZM96VuUju06ZK/6dl7XfuPH510PA0wBM6DfORh8lKGo0C28Wajt12XLcPbwsVUdm7X67fzx04uq10qJLSotTxzy4vCXLWHOThcuXTbL2tvAIS4iAlHV4nJKjxyeFNPhviVVbWfZwYPzShl9YFyd2uG8YEFFhQtSQMbF8xfQsWMnOCwidCVoKIpUsmb9+qvVa9eJTkhJTiIF70hh14qSYiREhiMpoZobFa4t59evfa7BsGGeqrDzzPe/9GvYr8+crAvnkzfs3AGfriA6IQ6qrqB6QhJ6dusKxeuHwAuY/9VX6ovjXw5OfuctZ8Mmjc2ibjk5ORAMA707d3a3vOtu/9Wjpxac37dryv2pqVWW83Tm+yXdGz7+6I+w8LHjJ0xiT5w4gWoRcagWHe0ZPWKknHXpcplPCQiJSfHRkSERIXFJyUhLW4Yp06ehe6+eSEiIw90NGuDuGrXO7Prl1+EDP5y6ryrY/fcxinbs+KHEQMNyr6d1+s5duLttK4g2OyrLXbiSl49XR48Fa+FRmV+E5k3vKgwqMjiRY6ZOn+Y8cPCgo9+AR1GUX4DEiDDEiNYLrMe7NXvXiQl9v5v1p/2854MPYqt3aPuhZLXel1lUWH3W7NkYNPAJiDwPd2k52ICEy8dPVCQ7Q7aGqfqk4Yu+vSn5WFXtEzre7UOACpjbx1d/KUsz168PrdOl/THo1poaacUj8tBYEuXXsWfHdvf9bToUrvxhYSehqMiriJItlgu3WA3D12rCBFdVgMjdvDkxucs9J4ygGsXYbTAYg5xOxszUKQe7tGp/KvPQ4dSh06eb4mn9nDkxJ3Nymr0+493V4AVrVnYWouyh4HUNlSVXzyvFxfNTuj74CUNKyFfhY/+SJXFtB/Y7JGtKNU1ncPVKIbIuZiE+Ng6NmzSFHgxiy5rVx5b8tOjd+NgaB1SL1vHFl1+eVKNOrWbFRaWwijx8FRXQPZ5gct16Fy6uXt2p7uDBVZInsSn1g9izFaUNXnzj9R17jh7B5SvZiE1MgMtVgerJybin/T24dOIUPvnwA0/a8l/KWYvIPTLosWpjxr6MS1mX4fV6UVZajJOHDqHHPZ2u9ul4//mdKzY/3u3NV4qqCqFn0/apzvvaj0nfkS6u25Zha9ywES4dO4PhTz6F4wcOndmzc8dSlddLwbBSWEjYXQ8+9NDf2nbqJM79eh4KK8pQp24tsIqMTs2a5V09fuaz9s8P+7Cqc4nWzJtnT0hM+LRlh/bDV23cCJ3nkJiUjKtXChBiD0Ht5JooyM3B4MefPBQdG7k8xBlSaXfakgY89cSwuKTEhFPnMtGofj3IFRWIFMVgpyZNz637+qcuD31ZNbljWz9/LyrxrvZf12ne7JGjZ05j6dI01K9VB1aWR4Tdjs8+/OhwnM02sU6ThrtSr3PCfVWtCzrOX4cAFTB/HV/eVjPJ27gxslr3e/ZDt9SVSIsdy7WTSCoU7NqR4e/UonXW6oU/97KwrBQfGda1fa9uL6K4pCz7txMv13ziiew/O9mC9PSUhE5tDoC1xJGWPwp0+DxubF2zflv28TMPv/bhh/+jOd3iadNSmnbr/Evtpo1a+QMSgm4vkmJjkX/5fKZaUvZ5jZ0HPmeq+Ii1uc123yOXIIpxOTm58PuDyMvOQ+3qNRAZEUaiRfn7dmQMqluzpp/lbMHohChHQVlFp4nvTpkJFuLVvHyEWSwQSYl4Vd1ZcfHiw5Hdu1eJACT8F06eWn/wpIlHt27eaMspvIJ6Detd20ISrVj09XewC7y/ekLSyaVLf/ouLjGhTqXfVzcyMa7unC/nNj5++hQqKyvhKitF3vkLeOWZoXsKT56Z03LEiGV/1rf/eH/Fxs1Twjt1GP3ejPciWbvDrMKru4N45YWReG3US7OczpCVVqstOzYlWr+alxd+Ma+g7qqMjLUb1q/DpvStqFuvNsKddrS9q8mVrAOHfzayst/p+U/roipsXfrRzPsHvvC3zStWruQzs7PQ64HeZqXb4oKrZlXqI/sO5l4+c26qyDEHwpJiilXFqBk0lJ6zZn+SunjpL2hUtz4MvxchOtC4WtK+IxvWPvDgZ59ViVAl88vbvfODuMYNx2Tm5Vrmz/saTRs1NiMwdzdsjO/nf50WwQhvztmyNrMqWNAxKIE/QoAKmD9Ci762yghkrdweXqN3uwPghXoy6SFISuIbKiyiiG3b06W76jcuPHHk2BReR2jnLl3GcA4xBobmQ1n5ucsZux+pPXDgn7oRX92+vUb8Pe0PgOFiSS8hRmCRnXUZJ/cdWFqRlTv+mcmT/0dS6aq5c+vUadF0YaN2bdt5vF4UFhShZmIiirIvXy7PzZl112/Hvq5qAVO4aVNsXKeOuwyeq+fzSbiUlYOKijLUqp6MM0eOFO7YvPmlCIbZF6tWK31uQWpwSWpqdECwth46ftxXEIXqhXn5iI9LhF5aQlo0r7t8YPdTf5bbf18AWz75pGG3kaN3b0vfGpmZm412HToiKysL6Rs2oUv7DoiyOs+9O+GNUY0aNc50lbsiZUOqrTosndPWrX0pfe8u5F3JR6CyEmcOHMJLzw07Unjq7Jeaq3TB/f9UfPA/XXSX0lY8VOuhHl+G25y2jZs2RSWnpODMidOwiXzhisU/f+xgxRXTlv5wiYw/a9So+GKvv8sH8+cvPnX6NBYsWIBWrVrB5/OgWYP6ZZ4rBb+4T558re+sP78188/zydy4cXidzp1mLf/114irV4vQuPFd8Hm8CHp84FUZb7362uKmtep8Uq1a3IVZq1d7XhowpDpj49u/9tZbc5b9vDw2wuFAQngE/CXFaFy92t7cY5kPdp9ZNZFKYmvx7p2TYlq2eHvH/r2W9PRtSEmsjoqCInN7bcOq1b9wQe/rH65Zc11y1f5T39P33RkEqIC5M/x8y80yf+vWqKT77tnnDQTrOkLCzObEfr8fNrsVpWWliI6I1hiGDxiyxjMiZ3VLJJdW9KrlpVsu/3b0xUYPPPCnEiqLtu6qFXtf6z1QjHjSBTkgB+AuL8OZ346syj92/qWnp0z4Hwmlyz/8POXeh7r96kiIbeaVZMiyitjwcFQU5F0sPH9+5vmA/P3AgQOrtOhe8fbt8TEd2+8J+IO1XG4/rhReBUeE1sVMMIHAiRN79z2rx8ef/Ee14WUDlnFy6yvtnnrpxSWSrlUvr6xAQmgkIAVJl+aM8wf2Ptygb98/nRvxj8W0d+7cOu2HPr9vzbq10VeKitGk6V1mA8LK4lK0bdKs4tURI19tXbfppgq9pKwGavx/7d13QFTnui7wd3phZhh676ggKs3eSzSSxKixJPaSGKPRGI3RmLiTMSbW7NgLxEjEDgr+2RVxAAAgAElEQVQoKF1BegcB6b33AYbp5d7hHrOTnNx9SFhOPNkv/7Lme9f3W8PMw1pfgU5SxwgZgzLbN+jm96GxUdDc2gJkuQIaikthxRsLC2pznx5lKUW3iQowj48etZ753nvhyXFx8sqqWkt9I0NK2IPwgl0f79Q/feTYx76R4WnPF377fqfA0NHF+vzClSvejo6Ph+iIaBg1aiR0i4QwbszoblJ3z72akpIdqw8cIOzOxnPHlscJ75pNnXDibmgINzsrH8Z6jgWJWAymBgbA1KiEl8+cfZdPp6SejIoaeM8LVrxvrDbjvrpv/z++O3DgW9Pxnt5kUWc7GDIZ4G7vkJsQnTRz9RnizrMuMvpDm6kTTsalJlPv338AnmPcQd7dB6b6+pCRmHiT0SXeJXgY1PLSfcjgCf3tBTDA/O0v8cvZwf8KMIkqlcZVod36jqQBOoOh3Z4QVColUNRkIGl3vqPRtVOCQQUKoFBA0VRa8qSrtHrV6IULhzRWojUuzsl06uQkIFHNgUoFsUQE5cXPoK+xJamtvHz1kt27f7W+S+z5y47OXqNv2I11n9DS3g5KpRqsTEygobykvLW47GA1wA2iA0xrbKyZ6bSpKRoNOFbX1oGwVwRypQxaG+tAIuxJqszJW7n//PlfDXK+f9bPbcGWDdHdkn5L7a6IHDIN6NpdpXt74yviHi0kagyM9l2V5Rtg671uRWpKUpJlSUUlaAfoZmVlwahhwyA6JDS2saRqv9RCP+v5GiqCZatGvrJk8ddT5r/6RnBcNKOlrRUk3UJoLCmDhXPm5XZVVh02ICtDiAowgQIBvam2ybNJ2DOyTyw2LauoalFR1I2jXd1lIO/JPxPxr3VTfD8RGI/3mX7XY+aM6RmpaRAYeAdsbKygXyKCKePGCmn94pjGrOxNy48eHdKdv9/7a2yIjX3DasbUm1evXuWUlVWBk+MwUCpk4GBjDVS5ovTKhXNv+cfFPXv+2qMbN3LVXP68T77Yd3Hvga/17e3tadq7MDSFAmZ4eOYlPQybSeR5tj95stPAzeXo/fhHtMzMHHCwtoW2hiaY4u0NqdGPb4KwdcfnQUHtL+cnDZ7V31kAA8zf+eq+xH0bGAMzZ1o8kJmjB6YlU0mgUsqBRCGDWNQP2clpVa7DXUXFBYVkW1tba4cxrnxQSGWdjfVpLTlFa0ctXz6kKbd1cXFONtMnJ2pUJAttgNLOik5LSgR1jyhHVNO87I2dW6t+yRd15geHcbOn3jRwsJ/Q1tsNErEMjPn60FJRVt5eU3OC1t1zaezmzYSuLDvwCGn6tCSgMxwqyyuo7Z2d0NMnBEcHO0h/nPBd7dPC078NMI9/uGY9c+2SSCkN3OqbGsHWxBwYGg2I6xvuVmbkbBqzahVhCwNm+Pubj1u+oiQyKkq/trEJPL3cITw8HKaNGy+LC3twRt4uPHkiPOjnR3Ffr1jntmD50uPDvTymBT+K4XT1CIHHYEBV4TOYNNq9oLum9qAlk0ZYgNFeP3+BgNlVW2tSUdZiJaNqSEbGhh0yskJmD9btu4JOSJ5f4+M7do+Z/dqrx0dPnDAvt7AQrl+7CTa2VgODkl+dM71P1SWMq07N3LDh5Ekh0X9WFeHh7zjNnf3j1evX2XV1TWBmZgZSsQSGOdgDj0rLCr56Zfl3QUE/P6I5vmaNnuvYiVteX7t698r1a0SGZsbcSd7jODwqTTLB1aUm9KeASZsJXOW4PjJ6h4XXmOMPk5/QUpJTwdbaDrpb22GylxekPUq4Kmvp3i0IudpGtAu2hwL/kwAGmP9JCH//QgT+3yDeGU8kQokbi28A2k2S6WwGqDVqSE9O7o4IDTumEEqilGIx09VlxJKNn32yA0jK3ubCvPS2ispNHsvXDWnhs5qEBAe7KRNSgUQzAxIZevt7ICUxCXgUWrmwtmn56+9vyPtlxx+cPWvns3T5PZI+z72rVwg9PX0Dd2AKs9Irxc3NF/qEvWdf++gjGZFYTY8fG1tMnpSnkitNa+obaJW1NUCmksDLcwzEhoUnND19tnHniRO/ClqRvr4Wr25cHSdTK1375VIw5OiDStgj6qqqeVxVXL56IkGzkLT9HFhNeenyovSMbLP8Z0/B1tYWMpKT4dXZs3qLMjIO1GdlXRaEhv78hf/D1o9dV27a4KdgMUYGR0cbNrW1gIWRMdRVVKime40t66qq+aqrvSWUyC9f7UagHH1TeyaHP7FPKrUgs1n9SlCK5WJxq0IhE6skEpqRiamDqbXVsHkL31yv4bKNG1pa4dA33wxMo25uboR3li4Wyts7HgsLSzcQeWfj+XulMixsleP0aZcePIplPklIAmtrWxD3iWCclzsw1eqcmOBgH8HVfwWExwIB1WyYy0XXhW++4mZvfUfPgJ9iyOXqv7No0eJJY9wZ5XmRixcI/LR7IxHy0xQd/bnJmJFfB0VFUfKfFsBIV9eBxQpHOjprcpPTLmraer4UhN3sIKQYNoICf0AAA8wfwMJDiRP4rzswSUCiu6okMqCwGKDSKLXPkqC1rr4lIihkadXTiioeG8Rjx3iNnPPWgnMSYXt1R2NdUmVyzpmhPmaofhxhbz9tTlp/t8hMz8gAKqoroaAgHwzZ3JL6kpL3GebmKb98JBTj66v/yvJ34oHF9CgsegZyiRzYDCr0trVU9zU0nKtvbj63gcA1TLTSzQ8fmpjPmZ0ISrVdcXkFs6auFqhMGnh7uUPao0eZVempa7f/8+yvFi3LOOdvPm7NoiRgUFVqhZxDZjA40Cuq662tzynPzHmPyLtEWb6++t7rNxZHRkZb1NbXgL2tDdy+fk316fZtXYkREd8Lm1vP7b18+ecxNzfe22E2f/WSQH0rSxO/m9epDc0tdGMDfbmkW9i4+NXXIO9J0jcrvj8WR9y7DCDi2+Nj5i5cfInCNzJ7mpPVweTpGbE5HCmXxSaXPStqsbYw52iXl9U3NOKI1Apr0xHDaCH37kFGWjpQSBooflYIH2zc0EkRiVI6C0vWvIgAUxJ8b+OIGVMOx6WmmN4JDgUjIxNgUCkwcbw3gFiUlhEVt3R/QMCvAnvc/oNOs96cf+FqSPD1rLy8hyqJREJhschzx3tPfPPAN9FEGlaGhn7mMGXC4eCoaEhKTQU3NzfobmkHZ2sbRU5i0mmqVHxIEBTURWRNbAsFBiOAAWYwSngM4QLVj0P49lPnJ0mFIjemgSGARgUytRy0m/5VF5e0J0XFflBVWBj/1Y8/dl/fvp3bL5NJtP+ZBwYuoyxfPvQdqiuiomyc5sxOAw3VUiGXQ1NnC6Skp8Dr831ED+6GTpR2dvaacDgSkkqlkilpep3iTttNuz8JAZXGNCkhEdRy7b5NCuDQadWNJc9OiGtqLi0/8a9HEkSADQSYGTMSNCqNVX5hEa+5rRWARoJJE8ZCyqO4lMLk5I17T10o/WUt7eqzpiNGbOtWyppZLBafqlTJKGooaW9tLZy1cyehjz/STp/mTXj/g7qHkdHc+oZasrmpCYQF31Hs2f5hV1pM3MXOouLTu37zxfbo6yNuDqNHHk7OyQwV9onJPT1d9XnJyYUeo8ar6Xqk3k+vXv3V9PWhOMYeOmQ0Z+2mCDDgOZ/86mtxe0+PEdCpzIaGuu7osIgGGlnTaWdh2SSTSUQ8viGPb2E2IulprtO2XR/z7O3sIC87B3Iy0uU7P9zaZaLHKirLSHh73eFzhK64rO1f/u3b68bMmX0yOS+XH3DlGtDpTDAxNgSvMaOASVIn5scnvbXbz++/3eHQPvnUvp7otWl+a14fFfOVtbeH4Ob9UMgrKAB7G9uBRfZmTpwkjb0XdpalkB3GADOUdyq+9s8KYID5s3L4uiEJVMbE6DtOm5QKFIarSioDEosOJDJ5YBxMR31jX1J49MmirLSzv7x1PqSCv3nxs8hIC9dX5mQpRTJLKlMPKuqrICktGVauegdoJIqsqbY60crU3FgjlctITIYK6HQ7jVxm/jS/kKJdDbehph5qy0thrOeo8pLs7P1SsfjeR2fOEPoIqTzwoYnzgtkJbc3NpvX1TUZN7a3A43PB1WUYJMZGR5RlZn78+bkfyn7rotFoSNmbN1P7LC0pkk5DzWtniH209bze4xMn+DO3bquMiInlV1dXkg24HAgLvqv4/OOPhGnRUedlTW1ntgUE/Lcv/MBlAnq/Xg15/U8/yV7kl2/R9VsLRy5aeOGLPbuNZDIlfe58H6iuq4Vr165J7gcFQWt9fcfFU2eiFFKpyN3Dc3RDZxvn4PmzEwqfFUBsbCxUlZdBakKias/OHY0uVpY16VFxyzedOjWkweO/9x4uCrq7eeTs6d9XNjezDwgOAofDG1jnZ4K3J/DolCfxQSGL/8qAUH7//pfOs2YeCAy+A/HxCeDl5TUwzdve3EKSEhXjyxYqDwqi8A4MkZ9P2NbgBDDADM4JjyJYICssjO396pw8kCqHAYsNKpJ6YACvQi6FlsoaVd3T4vj0B1GbPr166YWsL1EaFmY83Gd+LsjU1kCiQW1LPSQkJ8Co0W59Xu4eXFAqAFRqlUoqp1DodAAyGSqKi6G0tBzUCiXoMdhwIyCgcqynW2FdScnnh4OCfp4lQhRVRUCwqdMSn/jqykrj9o4uE+20Y0MTQxjt5gIPQ4N+qntacHDfhcu/GgNDVO3BtBP5/feGr27ZWvzw0WPTZ88Kwc7KHG7+dEV+dP/+ztiQu2d7Wqsu7LvxgLBBw4M5p+fHZPn60oycHC/ZT5m0yGXUKN7Bg9+Cnh4Xwh48gAneY2HJa6/DIh+fayY8/iO5RFxlaGDME4pFVjcjwy+QGDQ4ePAgiPv74OypsxDo/2O1BZ9XmxYXsWr72cuEb9wZf8l/64xlCw8XlpXzDn17DORSGTg42sHk8WNVNJUsqyAh5fXPfycI/hGPoRxbGBp62G3unM+CQ0MgJSUVnJ2Gg6ivB6xNzTTZ8UkXaB3iLw/jTtRDIcbX/kkBDDB/Eg5fNjSB8mvXeM5LFyWDmjxKOz9aTtaAdtovKFTQXFkFzYUleUlhD97dc82fkA0If3u2OQ8DTTznLsgFOdlKuxdTwbOn0NTa0n/lin+ZIZeTOGvaNI2sv9+co6fnopTKrQyNjIzlKiXY2TkMLIPvf8m/KenJo8eWJkYB7tbWmUceEP9FPTBIdvmKxJKCAvO6hkaDnr5ecHB2gNGuI+Be4PXz5el5R/b7+7+QvaIGc3UDDx0yWfbpp6Xh0VEGxcVFYGNmBoFXrykP7dvX8eju3VPt5ZV+gqiov2RsRJavL1t/uGOAyUiXORaOTvxTJ04P7B+1b+9n8MF7m4AsldVe8fM9QCVDGldpUN8rarLqUcp5t6MjonrlEoOTJ08OhOkLp8/BoX98UTJx9KjO4szEpRuOnyd0vROBQECebmu/f8biN74qrasj7/1kH5SVlMPMmdNh2uTxYG9hWhgbFLxQcOPGXxZU8++FXhgzc/oH4dEx8CA8YmAMjFTSD/aWVrK0mNgfScLuA99FR+MspMH80eAxhApggCGUExsbrEDKpUuGk9auzgWl2lapfY7AYACJRAKSSg11z0qgrbyy4sn9++vtxb1py4OGPublt+eVHBBgOnnl8hxFn8KKxuVAY3Wt8s6dO82WZia9ZJWqaOmmjW8f373blEVhuEj6JfNJFPIMHp/vFhkbR25sbe5t6+poMTHgRzlb28XamBrmHA0KInx9kMf+/vyZK1alJyUkWAh7ernaPvCN+DDCyQGSoiKvlWfm7Nt76VLDYM2JPu7e0aOWb+7YkR8SHWVcWV4KRnx9iAt/qNm6fm1HzM2g03SZ7MLnISGEjxkZTD8eCwQc88njL7vMmOZDYnI5t2/dBHtbBzh25Ahsffd9jaSz69mVHy/tZrLpOVejo9s2Tp3lvmT1moOes6dP1jczNtr16W6wMjOFIwcPwf5dH1dO9PBofhIRtVhwk9jZNtpZUlZeHode37Bht1KtgTnTX4Hc7Bx4443XYMrEsTDC0a4s5m7QmmNBoRmD6TfRx2hnPGkcHXynL3xzY2p2Flw8exGmT5sGzc3N4OnmJgq7fesaua/va7/ExCEtLEn0eWN7/xkCGGD+M67zS9fLJ76+FtPWrEwEKt1JrlYBhcECFagB5EqoyHsKwrq6itSYqA1cgHQip9U+hygKDDQcuej1YlCSTVUqElSUlUNqSlL3KBfXttyMjCPSlvqbz8e07F68xrS7s9WlpLJi/yhvL3eRVEIn0Wmd+vrcOrpSHq+vVt8RvIBHSGHffWf8xofbU2IfPXIQi6VUsVgEVlYWMGXCOIi7fy84PiJ626Fr1/6yL45zX+yy2fr10YLw6Bj9upoqkIj6IT8tHT7fsaP32rnzJ3ubms6eSUz8SxY4izp+XM/SbcSVEdOm+NB5RuyrV36C2TNmw/q16+DDTZtVwyyt677ct3ebWsNMp9oZCsk1bV4nzp34UcZiDFcyKIxDhw6BpZk5hN64CVvee7fO1tykLSc2foEgiNgVZwN37mRxx4z6bpLP/K3a5QRmTpwBOXm5sOrtFeDoYAMTPN2qE+/de/fAjcD4Fzle6P/3AaE9P/44z4NzF731SWxCPFw8cwF85s+H+vp6cLa3k6bFxt7urGn7/FZuMuGP1l66Dy08oZdOAAPMS3dJ/jNOKPDkyRHLtm0JByA5yxQKIDGZAEAGqhqgNCcPumtr89IT4jbryWS5LyLA5N+9az3mDZ8UINNsgEyFkvynEBcd0zNvxqyOrJSUvR01ZeG/HJS7zHuKrb2D/ZFjF86uAB4HejvagGdsBCCR9NemZ0RH3b27erMfcWtvaN8FgceOmS/bti3lfkyMg0KmBKlUCjZWZuA9ehQkR0WG5KVnbdt79uxf9sVxcu9e2x2Hv8m+fivQWPuFpr0DE30vHPZu3y4OvRJwXlzbcvJE6qMhrdfzZ/8akvbs4epPmew3ctb01/QtLHiBNwPBfbQHrF69GgRf/AMMmay6T3ft+IpE0mSwqVSpkYH5mL2ff/a14zjP0dnFhXDuwkUY7uQIh/d/CetXrKhZv2pFf3TonRWf+f1U8GfP6fde9+PGjVzu2LFHF65bvaWhpR1mTZ4Ffd1CmDVrBoz1dodXpk9uve57cQ25pT3pRGrqzwvvEXkO/66tSzt3GhqMGXls4Tsr3k1MSoEfzvuBt6fXwEtsLS00d29dDeMr1TsuxscPeYNVXfUJ6/x9BDDA/H2u5f+anmin35YrpHPf3rbVl0alGymVAEoqBahkMpDVAAVpGVBTUpSaHZ+4kyIVlb+IGRjVISF8e595pRqgmPaKZVBSWAA15ZVKWwvz6qc5ue+1NNXlWCiVsuYyS43MpNagsatp1IoVK/3mL1virFYrgMzjQF9bG5RmZEqdTc2yHgYEvLnqwgXCBqyGCQTsiv7+4R9/eyjKNyDAlKwhg7mZCZgY88HV3h5yEp9cjrhz7YvjQQ8JHZMx2DeRv2A9s01sMGbPoSMJQaH3mSXPisGQbwC5aWmwavFbMt8T3/uZAuPUmZRHA5sl6vpH+wjJftL4APspk15h6Rtwf/D7EVav3wif7PwYXJ2dYYKHh2zdqjW3Lc3M79JpVIa4q8fx3Q82b1+27QOr4spS+HD7Dpg5dQoc/uoAJERFiVMTE3JLsrO+5NGYmdoNFYnqz+F167wNRo7YufHjHatUQAEDJh+szSzBwVG74zgXfM+cgAN7P/HhiaQpB36x9QFR9f9dO9rHRxnt7TOWvr/pO5thTh5hDyMg6OotmD51GrS1tQ1sKhoWHJik7ujcdLeg4FfrEeni/LAGCmCAwfeATgU0gYEUcHD5CEbY7FNy2SZU7faHZDrItDtCk8mgliqhJC8P2mtrqmrLSq4Od7Q2yc+I3ffRmeuEb6KnkYkrgUKzUKhJrIaaaoiLiVW9Ome29Gle/snykmd3VCoVRdLXxzUwMHKbP2/uaid394mgUUNNTRW0CjshPzMTKrJyW9cvXpIXdevW4l1BQYT9h1xxPdDbabHPdWCxLW/fD+M2aZeYNzUdmOnjPmIYtFZVZF0++s836RRKnyAoSKTTiwgA8X5+42asfScAKHSn23eDaenpmeDs6ARlz4phiqeX3IzNzgu7ceMQuYf06FgycV/4g+1n4LJlFPeV75wc/rrPOywWm3Pm9Dnm+o0boLSiHDxGu4NCoYDIO3dFRgb8dg6TrbIztTRnW1pw5BQ19KpkMGvuPPAY5QbBP10Hf7+LsmULF9K+//aQX0dV1WVmX1+5ID5+yGvqxO3caTV7965QDY/r1g8klh6HB3QSHbg0Nrwydw7k5WZCYV4WfLpl05eGCs0/BWFhhK2uOxjH6tu399i/5vORXK20ouhxoLKyGr78bD9M8BoLSqUc9Bh0cLSx6CjLzPiiu7T8zl81YHswfcFj/p4CGGD+ntf1pe2V5vRDBrw9IQsMWGZK0JhopAqg6XFBrlQClU4DspoE4m4hsBk0ALVKBnJpe2Hkw5uj12zYQ2SnHvv7M2cueP066BtMAg1JT9YvYpSVljK0Y0wMtQvr0Wj9QCaRQUNSgVpFB4WCAgCUqrIykMikUFFTDU+zs1QuFlappG7haU1ZWTBRg41bjh/XM1uy7A6Ym84FGoXS0tUNiU+SB6auatfJocjlMG/y5HqrYc70tJu3TmSG3Dv5UUQEoWvQ/DvrIoGAPnLtymiwtvCqLq3gHvjmEFhaWg7s32NhbA4ebiNh4mgPCVdfv/vuqdNzCrmMMoFAoCby+g2mrXtffWX55ub3st56+21xTGKKaXl5OZvKpGuu3rhOZdMYsHnLFlB0dwONywOQKEEbToHPgaeF+fDZF/uBp8eGruYWsDI2Vo1wHqaaO3WK0vuVudKA3fuWsrrbnwz1erdfvSIw9nl9L7CZTGAyoL6mDtxd3EEiF4PnaHeoq65SHPlWQFu9+T1hddjD+xGBdz78UEdhVbsR5rItW7OByxquUijpFO0aP6H34dI5v4GtBPhcDigkYs3cmZPV3sNdKm+cOrmnurTigSA+XjmYa4PHoAARAhhgiFDENv6QgKa1NQu4epZAIfEGdlEkkUmgkJOBSSeBhiQDtZoFGo0U2tpbgcuj592+fcbz/fe/+0NFBnFw+enTDOeN7yYCnWYASpUaqBRjAGgDlUoBKhVDIeqV0yjaVAUg7OxUdnR0sCgaoDW3tCgqKiokHDq9W9bRckzW2Bqz4aefpIMoOahDyr86zXNePC8wOiaKeSkkkO02fhzPysHeqrOzg85k0OhquUw50sG5iSyVlc+dNF7//qlzsxf+Ysn+QRUZwkFZAgHbe9XKlKjwe5BbVsHiGhlZUqgUGqg0JJKapASVsq+mpLjAydw6adH8ea43fS+s02XA+mXXUk+c+GLi0uUfudhYJ45wHyPcsnuXR59YTL7/ILxeKZMWjvfwYrXX1RXwuPqU9NSsXBqTwZm3wGd3Vna2cV1DPUelUqhlEommqqxCwmPQyq9f9HXhkalVoWFhG4Z6x638+PEFzivevpWclEh6a8UqskIDGvnASDDQkAHkFAAakwSVxhy9yGunzthlJSZu2+jvr5NB0drZUYsWvXXadNqktfKeXpKhtQ2TAiBXAaipAOrxnt6a3s52TXtdXd0/v/5HF49EyakIDft0c3Y2oRuaDuFtii/9DxDAAPMfcJFfti52R0TY8x2d9pWUFNfUtTT1UxgslR6PpwKyRimWy2VUMplGJ5H1SFI5A0SitImbNye9yD4UBYd9RKFRmkT9slyVvE+tIZNZFDrdSqZQ0DRyuVgskfPF4j5QyFVckCv0OzuEz/R5HMf+ts5I/Z6W5qH+J/57fSs5/oODikv5TAgKmoRMNiQz6XyZQsFishgUskoNLDqtpyAz86w1R784NT6+Qtf/+SYdPDjCcaTLwfyKKhKJzaKL+nrJLBqD29ndLervFfVQ1MoGklwexaBSC6tKSrp0fX7PTR9u387Q0HnmfSq5UV1HM3SIRFSxWkZjcwwUQFb00MQqKZvBkDY2N5PYdLpa2q+hCiWdbL6hIaupsU2PyqKadHa06bc1Nqttrczaxo5wo5uZmKRuvXFjyOOdUnbuZI2aNy+gsa/PKCQ8vFOmVlI7+nqEhoZGbBqVwuns7OhztrVjmfF4jW0VNUc/vHGjTpczke7t2cPtkikWmNrZLk/KzGJY29voqZSkQgadat3S0kJlkoHMpZIkZJk0saWq7rwgPp6wEP8i/96x7b+PAAaYv8+1/F/XE+0gQe1JtxcVaZYFBQ08YvjlB7R2rxddfmC/bIDaJfcVtDK9XiqV3dXXZ9DV3a9UM0jaW/RdDsbGSklfn2YvgQNK/2j/tf+lK7u7jcRMplrW28tQKpU0DYUilff3y1RSqZw9d27/X/Ho6I/2Y7DHC/7vzREBaOf6E/ejDViVte1GVbW1pB5pl6avv5/E4fPJwGIBWakkc+h0KZPLlR6NjSV8naHB9EK70J5efr5xWWMjv6u9h2lgYKCQglwBMgCmHlVF12gkpmJxl6CoSHvzCH9QQKcCGGB0yo3FUAAFUAAFUAAFiBDAAEOEIraBAiiAAiiAAiigUwEMMDrlxmIogAIogAIogAJECGCAIUIR20ABFEABFEABFNCpAAYYnXJjMRRAARRAARRAASIEMMAQoYhtoAAKoAAKoAAK6FQAA4xOubEYCqAACqAACqAAEQIYYIhQxDZQAAVQAAVQAAV0KoABRqfcWAwFUAAFUAAFUIAIAQwwRChiGyiAAiiAAiiAAjoVwACjU24shgIogAIogAIoQIQABhgiFLENFEABFEABFEABnQpggNEpNxZDARRAARRAARQgQgADDBGK2AYKoAAKoAAKoIBOBTDA6JQbi6EACqAACqAAChAhgAGGCEVsAwVQAAVQAAVQQKcCGGB0yo3FUAAFUAAFUAAFiBDAAEOEIraBAiiAAiiAAiigUy8sOjgAAAMYSURBVAEMMDrlxmIogAIogAIogAJECGCAIUIR20ABFEABFEABFNCpAAYYnXJjMRRAARRAARRAASIEMMAQoYhtoAAKoAAKoAAK6FQAA4xOubEYCqAACqAACqAAEQIYYIhQxDZQAAVQAAVQAAV0KoABRqfcWAwFUAAFUAAFUIAIAQwwRChiGyiAAiiAAiiAAjoVwACjU24shgIogAIogAIoQIQABhgiFLENFEABFEABFEABnQpggNEpNxZDARRAARRAARQgQgADDBGK2AYKoAAKoAAKoIBOBTDA6JQbi6EACqAACqAAChAhgAGGCEVsAwVQAAVQAAVQQKcCGGB0yo3FUAAFUAAFUAAFiBDAAEOEIraBAiiAAiiAAiigUwEMMDrlxmIogAIogAIogAJECGCAIUIR20ABFEABFEABFNCpAAYYnXJjMRRAARRAARRAASIEMMAQoYhtoAAKoAAKoAAK6FQAA4xOubEYCqAACqAACqAAEQIYYIhQxDZQAAVQAAVQAAV0KoABRqfcWAwFUAAFUAAFUIAIAQwwRChiGyiAAiiAAiiAAjoVwACjU24shgIogAIogAIoQIQABhgiFLENFEABFEABFEABnQpggNEpNxZDARRAARRAARQgQgADDBGK2AYKoAAKoAAKoIBOBTDA6JQbi6EACqAACqAAChAhgAGGCEVsAwVQAAVQAAVQQKcCGGB0yo3FUAAFUAAFUAAFiBDAAEOEIraBAiiAAiiAAiigUwEMMDrlxmIogAIogAIogAJECGCAIUIR20ABFEABFEABFNCpAAYYnXJjMRRAARRAARRAASIEMMAQoYhtoAAKoAAKoAAK6FQAA4xOubEYCqAACqAACqAAEQIYYIhQxDZQAAVQAAVQAAV0KoABRqfcWAwFUAAFUAAFUIAIAQwwRChiGyiAAiiAAiiAAjoVwACjU24shgIogAIogAIoQIQABhgiFLENFEABFEABFEABnQpggNEpNxZDARRAARRAARQgQgADDBGK2AYKoAAKoAAKoIBOBTDA6JQbi6EACqAACqAAChAh8H8AysrEA3mCAPYAAAAASUVORK5CYII=;" vertex="1" parent="1">
          <mxGeometry x="180" y="490" width="165.9" height="110" as="geometry" />
        </mxCell>
      </root>
    </mxGraphModel>
  </diagram>
</mxfile>
